<?xml version="1.0" encoding="UTF-8" standalone="no"?>
<svg
   xmlns:dc="http://purl.org/dc/elements/1.1/"
   xmlns:cc="http://creativecommons.org/ns#"
   xmlns:rdf="http://www.w3.org/1999/02/22-rdf-syntax-ns#"
   xmlns:svg="http://www.w3.org/2000/svg"
   xmlns="http://www.w3.org/2000/svg"
   version="1.1"
   viewBox="0 0 1118 802.81944"
   height="802.81944"
   width="1118"
   data-name="Layer 1"
   id="a329d3bf-4b11-4261-9182-40685c3b1c8f">
  <metadata
     id="metadata4208">
    <rdf:RDF>
      <cc:Work
         rdf:about="">
        <dc:format>image/svg+xml</dc:format>
        <dc:type
           rdf:resource="http://purl.org/dc/dcmitype/StillImage" />
        <dc:title>Savings</dc:title>
      </cc:Work>
    </rdf:RDF>
  </metadata>
  <defs
     id="defs3933">
    <linearGradient
       gradientUnits="userSpaceOnUse"
       y2="326.59687"
       x2="882.01746"
       y1="830.63698"
       x1="882.01746"
       id="b604d933-963c-47a0-8899-51e94ba39cbc">
      <stop
         id="stop3926"
         stop-opacity="0.25"
         stop-color="gray"
         offset="0" />
      <stop
         id="stop3928"
         stop-opacity="0.12"
         stop-color="gray"
         offset="0.53514" />
      <stop
         id="stop3930"
         stop-opacity="0.1"
         stop-color="gray"
         offset="1" />
    </linearGradient>
  </defs>
  <title
     id="title3935">Savings</title>
  <g
     style="display:inline"
     id="layer13">
    <path
       style="fill:#695eb8;fill-opacity:1;stroke-width:1.52324"
       d="m 667.19462,726.06361 a 55.683799,68.129366 0 0 1 -2.73818,17.31451 c -0.38576,1.45626 -0.81669,2.96034 -1.30465,4.50201 -7.82766,24.74675 -31.96267,39.46409 -32.66501,34.52399 -0.70233,-4.9401 -5.03118,-17.17514 -10.90406,-12.10815 -5.87288,5.06699 -15.73964,6.32707 -15.73964,6.32707 -17.84764,2.1061 -17.88987,-19.76996 -14.61359,-39.00565 a 137.49736,168.22861 0 0 1 4.18379,-18.70362 c 1.49817,-5.40831 2.68351,-8.99425 2.68351,-8.99425 l 69.17046,-1.14447 c 0,0 2.42743,6.17607 1.92737,17.28856 z"
       fill="#6c63ff"
       id="path4169-1" />
    <path
       style="fill:#695eb8;fill-opacity:1;stroke-width:1.42913"
       d="m 393.98581,724.57235 a 54.226442,61.583959 0 0 0 2.66651,15.65092 c 0.37562,1.31637 0.79524,2.67592 1.2705,4.06946 7.62272,22.36908 31.12599,35.67241 31.80992,31.20696 0.68395,-4.46547 4.89948,-15.52498 10.61864,-10.94482 5.71914,4.58016 15.32759,5.71916 15.32759,5.71916 17.3804,1.90377 17.42153,-17.87046 14.23104,-35.258 a 133.90076,152.0686 0 0 0 -4.07427,-16.90659 c -1.45896,-4.88869 -2.61323,-8.13008 -2.61323,-8.13008 l -67.35966,-1.03452 c 0,0 -2.364,5.58261 -1.87704,15.62751 z"
       fill="#6c63ff"
       id="path4171-5" />
    <path
       style="fill:#695eb8;fill-opacity:1"
       d="m 799.25484,493.22586 c 0,134.15881 -45.384,242.91608 -254.82007,242.91608 -140.73325,0 -249.61209,-34.968 -254.82008,-242.91608 -3.359,-134.11682 114.08677,-242.91611 254.82,-242.91611 140.73323,0 254.82015,108.75723 254.82015,242.91611 z"
       fill="#6c63ff"
       id="path4181-8" />
    <path
       d="m 619.2992,126.74844 h 0.0298 a 0.05793,0.05793 0 0 1 -0.0223,0.007 z"
       opacity="0.2"
       style="isolation:isolate"
       id="path4183-1" />
    <path
       d="m 619.79773,126.66664 c 0.64728,-0.10413 1.92694,-0.28272 3.78693,-0.42411 l -4.14411,0.49106 q 0.0893,-0.0223 0.22318,-0.0446 c 0.0447,-0.007 0.0819,-0.0149 0.134,-0.0223 z"
       opacity="0.2"
       style="isolation:isolate"
       id="path4185-2" />
    <path
       style="fill:#695eb8;fill-opacity:1;stroke-width:1.16378"
       d="m 642.84477,276.12363 c 0,0 66.53719,-73.32931 95.97234,-59.91093 0,0 23.87057,33.80432 -25.25632,97.24167 z"
       fill="#6c63ff"
       id="path4191-9" />
    <path
       d="m 642.84477,276.18197 c 0,0 66.53719,-73.21469 95.97234,-59.81728 0,0 23.87057,33.75148 -25.25632,97.08968 z"
       opacity="0.2"
       style="isolation:isolate;stroke-width:1.16287"
       id="path4193-1" />
    <path
       style="fill:#695eb8;fill-opacity:1;stroke-width:0.873825"
       d="m 664.96158,538.87146 c 0,39.85572 -71.49396,71.3427 -138.76477,71.3427 -67.27077,0 -104.84447,-31.48702 -104.84447,-71.3427 0,-39.85568 54.64656,-70.60766 121.8046,-72.16512 106.38633,-2.4672 121.80464,32.30941 121.80464,72.16512 z"
       fill="#6c63ff"
       id="path4195-0" />
    <path
       d="m 664.96158,538.87146 c 0,41.70071 -72.37022,74.64526 -140.46555,74.64526 -68.09533,0 -106.12959,-32.9446 -106.12959,-74.64526 0,-41.70066 55.31639,-73.87619 123.29761,-75.50575 107.69024,-2.58141 123.29753,33.80507 123.29753,75.50575 z"
       opacity="0.2"
       style="isolation:isolate;stroke-width:0.899284"
       id="path4197-4" />
    <ellipse
       style="fill:#695eb8;fill-opacity:1"
       cx="584.69037"
       cy="533.22498"
       rx="16.36801"
       ry="20.832029"
       fill="#6c63ff"
       id="ellipse4199-2" />
    <ellipse
       style="display:inline;fill:#695eb8;fill-opacity:1"
       id="ellipse4199-2-4"
       fill="#6c63ff"
       ry="20.832029"
       rx="16.36801"
       cy="541.39612"
       cx="501.23273" />
    <path
       id="path4301"
       fill="#6c63ff"
       d="m 444.98614,269.40911 c 0,0 -65.56398,-82.59564 -94.5686,-67.48163 0,0 -23.52143,38.07604 24.88691,109.52971 z"
       style="fill:#695eb8;fill-opacity:1;stroke-width:1.22606" />
    <path
       id="path4303"
       style="isolation:isolate;stroke-width:1.25578"
       opacity="0.2"
       d="m 444.98614,269.40911 c 0,0 -64.54759,-88.01299 -93.10256,-71.90767 0,0 -23.15678,40.5734 24.50111,116.71365 z" />
    <ellipse
       cx="455.57962"
       cy="381.16452"
       rx="16.36801"
       ry="20.832029"
       fill="#6c63ff"
       id="ellipse4305"
       style="display:inline;fill:#4c5674;fill-opacity:1" />
    <ellipse
       id="ellipse4307"
       fill="#6c63ff"
       ry="20.832029"
       rx="16.36801"
       cy="382.8028"
       cx="608.80627"
       style="fill:#4c5674;fill-opacity:1" />
  </g>
  <g
     id="layer14">
    <ellipse
       ry="62.180645"
       rx="66.591805"
       cy="95.928345"
       cx="551.44635"
       id="path4423"
       style="fill:#4c5674;fill-opacity:1;fill-rule:evenodd;stroke:#33333f;stroke-width:13.701;stroke-miterlimit:4;stroke-dasharray:none;stroke-opacity:1" />
    <path
       d="m 569.07193,64.857285 c -0.72639,-3.182051 -3.42152,-5.113548 -6.01672,-6.763587 -2.41828,-1.316589 -4.99551,-2.417233 -7.79575,-2.440789 -1.92643,-0.0162 -2.7967,0.259521 -4.68758,0.634335 -7.66413,2.327877 -15.07047,6.063035 -21.40077,10.966204 -2.67329,2.733906 -5.0781,5.954414 -6.18585,9.668466 -0.18066,0.605711 -0.27823,1.233162 -0.41734,1.849742 -0.35589,3.14735 0.31914,6.246938 1.61867,9.104975 1.22661,2.08079 3.15461,3.37709 5.4566,4.00392 0.51768,-0.0115 1.03869,0.0253 1.55305,-0.0345 3.24561,-0.37702 6.67907,-1.92351 9.82905,-2.84597 3.69696,-0.99992 7.22063,0.17345 10.72671,1.31012 4.23528,1.3441 6.49284,3.86866 9.07336,7.28541 2.27765,3.330789 2.86859,6.334439 2.70328,10.289169 -0.16778,2.89506 -1.23748,4.99859 -2.99031,7.22164 -0.22235,0.23451 -0.41587,0.50019 -0.66705,0.70352 -0.43752,0.35416 -3.55029,2.04016 -2.02853,1.12569 13.67103,-8.21533 10.70815,-5.73417 6.18536,-4.18258 -3.3228,1.08065 -6.72257,1.70978 -10.20813,1.85093 -4.18189,0.18513 -8.24071,-0.56929 -12.24289,-1.69662 -2.51606,-0.85174 -5.06033,-1.88257 -7.18663,-3.51469 -1.0656,-0.81795 -1.43573,-1.29887 -2.33353,-2.27028 -1.62964,-1.73493 -2.12908,-4.03081 -3.01748,-6.15014 -0.6462,-0.9601 -0.13229,-1.101189 -1.37961,-0.81956 0,0 -8.97809,4.9422 -8.97809,4.9422 v 0 c -1.05109,0.84742 -0.61852,0.58468 -0.64635,1.8856 0.46634,2.49142 1.88629,4.58105 3.34023,6.6172 0.38484,0.43036 0.7413,0.8879 1.15453,1.29109 2.45622,2.39657 5.64455,3.89377 8.84862,4.99435 2.19092,0.66166 4.38954,1.33064 6.67012,1.61602 1.99179,0.24925 4.01342,0.14416 6.01323,0.22737 1.20466,-0.005 2.58837,0.0243 3.78897,-0.12 2.30824,-0.27752 4.51478,-1.08535 6.77924,-1.57033 5.39704,-1.61111 8.32899,-3.98147 14.19395,-7.32401 0.97396,-0.55507 1.79428,-1.25648 2.35481,-2.23431 1.56448,-2.56778 2.27472,-4.55389 2.26301,-7.61658 0.0154,-4.269539 -0.76308,-7.252079 -3.24651,-10.796529 -2.50045,-3.704 -5.0907,-6.312395 -9.38912,-7.870236 -3.59066,-1.402596 -7.25083,-2.840944 -11.14485,-1.843836 -3.5831,0.997866 -7.06906,2.404657 -10.74419,3.018813 -2.44539,-0.128823 -3.83512,-0.889881 -5.21876,-2.928316 -1.4991,-2.520227 -2.23141,-5.226546 -1.80767,-8.179449 0.10525,-0.547629 0.16739,-1.105334 0.31575,-1.642887 0.97461,-3.531237 3.35165,-6.545766 6.01857,-8.963613 3.18851,-2.287107 4.01968,-2.791518 -4.58717,2.346009 -0.70938,0.423433 1.46078,-0.772982 2.2053,-1.131016 1.35628,-0.652214 3.45755,-1.556703 4.86262,-2.080419 0.78222,-0.291561 1.58132,-0.535697 2.37198,-0.803545 4.91213,-1.212621 7.50666,-1.212065 12.06091,1.204946 2.46888,1.540282 4.64689,3.343443 5.75224,6.124316 0,0 8.18072,-4.458275 8.18072,-4.458275 z"
       id="path4441"
       style="fill:#333333;fill-opacity:1;fill-rule:nonzero;stroke:none" />
    <path
       d="m 536.84328,52.774762 c 0.78315,3.51768 1.74516,6.991542 2.56741,10.499952 1.16896,5.668261 2.38434,11.325591 3.62978,16.97752 1.37397,6.998545 2.57727,14.028717 3.89055,21.039046 1.20414,5.91265 2.40322,11.82389 3.50253,17.75695 0.64905,3.37237 1.13187,6.76664 1.50273,10.17902 0.29896,1.68596 0.35913,3.42044 0.73004,5.09243 0.34162,1.0691 0.77741,2.12029 0.98301,3.22876 0.17498,0.94339 -0.0818,0.35955 0.30202,1.05384 2.06705,0.0324 4.03579,-1.52698 5.69059,-2.41054 0,0 0.31247,-0.19431 0.31247,-0.19431 v 0 c 1.69361,-0.9799 3.97159,-1.86522 5.20147,-3.55638 -0.11533,-0.83965 0.0407,-0.15341 -0.36648,-1.00857 -0.46977,-0.98657 -0.71237,-2.07236 -0.94862,-3.13185 -0.3879,-1.58888 -0.87277,-3.15195 -1.10355,-4.77781 -0.62681,-3.32922 -1.19961,-6.67144 -2.1145,-9.93757 -1.39413,-5.81087 -2.71125,-11.64017 -3.98649,-17.478249 -1.43358,-6.98749 -2.64435,-14.016779 -3.92947,-21.032582 -1.11636,-5.689946 -2.3848,-11.350898 -3.66792,-17.005153 -0.90977,-3.45118 -1.91869,-6.888708 -2.59991,-10.392557 0,0 -9.59566,5.098053 -9.59566,5.098053 z"
       id="path4447"
       style="fill:#333333;fill-opacity:1;fill-rule:nonzero;stroke:none" />
    <ellipse
       style="fill:#4c5674;fill-opacity:1;fill-rule:evenodd;stroke:#33333f;stroke-width:13.701;stroke-miterlimit:4;stroke-dasharray:none;stroke-opacity:1"
       id="ellipse4451"
       cx="971.93158"
       cy="616.66382"
       rx="66.591805"
       ry="62.180645" />
    <path
       style="fill:#333333;fill-opacity:1;fill-rule:nonzero;stroke:none"
       id="path4453"
       d="m 989.55717,585.59276 c -0.72639,-3.18205 -3.42152,-5.11355 -6.01672,-6.76359 -2.41828,-1.31659 -4.99551,-2.41723 -7.79575,-2.44079 -1.92643,-0.0162 -2.7967,0.25952 -4.68758,0.63434 -7.66413,2.32787 -15.07047,6.06303 -21.40077,10.9662 -2.67329,2.73391 -5.0781,5.95441 -6.18585,9.66847 -0.18066,0.60571 -0.27823,1.23316 -0.41734,1.84974 -0.35589,3.14735 0.31914,6.24694 1.61867,9.10497 1.22661,2.08079 3.15461,3.37709 5.4566,4.00392 0.51768,-0.0115 1.03869,0.0253 1.55305,-0.0345 3.24561,-0.37702 6.67907,-1.92351 9.82905,-2.84597 3.69696,-0.99992 7.22063,0.17345 10.72671,1.31012 4.23528,1.3441 6.49284,3.86866 9.07336,7.28541 2.27765,3.33079 2.86859,6.33444 2.70328,10.28917 -0.16778,2.89506 -1.23748,4.99859 -2.99031,7.22164 -0.22235,0.23451 -0.41587,0.50019 -0.66705,0.70352 -0.43752,0.35416 -3.55029,2.04016 -2.02853,1.12569 13.67103,-8.21533 10.70815,-5.73417 6.18536,-4.18258 -3.3228,1.08065 -6.72257,1.70978 -10.20813,1.85093 -4.18189,0.18513 -8.24071,-0.56929 -12.24289,-1.69662 -2.51606,-0.85174 -5.06033,-1.88257 -7.18663,-3.51469 -1.0656,-0.81795 -1.43573,-1.29887 -2.33353,-2.27028 -1.62964,-1.73493 -2.12908,-4.03081 -3.01748,-6.15014 -0.6462,-0.9601 -0.13229,-1.10119 -1.37961,-0.81956 0,0 -8.97809,4.9422 -8.97809,4.9422 v 0 c -1.05109,0.84742 -0.61852,0.58468 -0.64635,1.8856 0.46634,2.49142 1.88629,4.58105 3.34023,6.6172 0.38484,0.43036 0.7413,0.8879 1.15453,1.29109 2.45622,2.39657 5.64455,3.89377 8.84862,4.99435 2.19092,0.66166 4.38954,1.33064 6.67012,1.61602 1.99179,0.24925 4.01342,0.14416 6.01323,0.22737 1.20466,-0.005 2.58837,0.0243 3.78897,-0.12 2.30824,-0.27752 4.51478,-1.08535 6.77924,-1.57033 5.39704,-1.61111 8.32899,-3.98147 14.19395,-7.32401 0.97396,-0.55507 1.79428,-1.25648 2.35481,-2.23431 1.56448,-2.56778 2.27472,-4.55389 2.26301,-7.61658 0.0154,-4.26954 -0.76308,-7.25208 -3.24651,-10.79653 -2.50045,-3.704 -5.0907,-6.31239 -9.38912,-7.87023 -3.59066,-1.4026 -7.25083,-2.84095 -11.14485,-1.84384 -3.5831,0.99787 -7.06906,2.40466 -10.74419,3.01881 -2.44539,-0.12882 -3.83512,-0.88988 -5.21876,-2.92831 -1.4991,-2.52023 -2.23141,-5.22655 -1.80767,-8.17945 0.10525,-0.54763 0.16739,-1.10534 0.31575,-1.64289 0.97461,-3.53124 3.35165,-6.54576 6.01857,-8.96361 3.18851,-2.28711 4.01968,-2.79152 -4.58717,2.34601 -0.70938,0.42343 1.46078,-0.77298 2.2053,-1.13102 1.35628,-0.65221 3.45755,-1.5567 4.86262,-2.08042 0.78222,-0.29156 1.58132,-0.53569 2.37198,-0.80354 4.91213,-1.21262 7.50666,-1.21207 12.06091,1.20494 2.46888,1.54029 4.64689,3.34345 5.75224,6.12432 0,0 8.18072,-4.45828 8.18072,-4.45828 z" />
    <path
       style="fill:#333333;fill-opacity:1;fill-rule:nonzero;stroke:none"
       id="path4455"
       d="m 957.32852,573.51023 c 0.78315,3.51768 1.74516,6.99155 2.56741,10.49996 1.16896,5.66826 2.38434,11.32559 3.62978,16.97752 1.37397,6.99854 2.57727,14.02871 3.89055,21.03904 1.20414,5.91265 2.40322,11.82389 3.50253,17.75695 0.64905,3.37237 1.13187,6.76664 1.50273,10.17902 0.29896,1.68596 0.35913,3.42044 0.73004,5.09243 0.34162,1.0691 0.77741,2.12029 0.98301,3.22876 0.17498,0.94339 -0.0818,0.35955 0.30202,1.05384 2.06705,0.0324 4.03579,-1.52698 5.69059,-2.41054 0,0 0.31247,-0.19431 0.31247,-0.19431 v 0 c 1.69361,-0.9799 3.97159,-1.86522 5.20147,-3.55638 -0.11533,-0.83965 0.0407,-0.15341 -0.36648,-1.00857 -0.46977,-0.98657 -0.71237,-2.07236 -0.94862,-3.13185 -0.3879,-1.58888 -0.87277,-3.15195 -1.10355,-4.77781 -0.62681,-3.32922 -1.19961,-6.67144 -2.1145,-9.93757 -1.39413,-5.81087 -2.71125,-11.64017 -3.98649,-17.47825 -1.43358,-6.98749 -2.64435,-14.01678 -3.92947,-21.03258 -1.11636,-5.68995 -2.3848,-11.3509 -3.66792,-17.00515 -0.90977,-3.45118 -1.91869,-6.88871 -2.59991,-10.39256 0,0 -9.59566,5.09805 -9.59566,5.09805 z" />
    <ellipse
       ry="62.180645"
       rx="66.591805"
       cy="637.52991"
       cx="153.32732"
       id="ellipse4457"
       style="fill:#4c5674;fill-opacity:1;fill-rule:evenodd;stroke:#33333f;stroke-width:13.701;stroke-miterlimit:4;stroke-dasharray:none;stroke-opacity:1" />
    <path
       d="m 170.9529,606.45887 c -0.72639,-3.18205 -3.42152,-5.11355 -6.01672,-6.76359 -2.41828,-1.31659 -4.99551,-2.41723 -7.79575,-2.44079 -1.92643,-0.0162 -2.7967,0.25952 -4.68758,0.63434 -7.66413,2.32787 -15.07047,6.06303 -21.40077,10.9662 -2.67329,2.73391 -5.0781,5.95441 -6.18585,9.66847 -0.18066,0.60571 -0.27823,1.23316 -0.41734,1.84974 -0.35589,3.14735 0.31914,6.24694 1.61867,9.10497 1.22661,2.08079 3.15461,3.37709 5.4566,4.00392 0.51768,-0.0115 1.03869,0.0253 1.55305,-0.0345 3.24561,-0.37702 6.67907,-1.92351 9.82905,-2.84597 3.69696,-0.99992 7.22063,0.17345 10.72671,1.31012 4.23528,1.3441 6.49284,3.86866 9.07336,7.28541 2.27765,3.33079 2.86859,6.33444 2.70328,10.28917 -0.16778,2.89506 -1.23748,4.99859 -2.99031,7.22164 -0.22235,0.23451 -0.41587,0.50019 -0.66705,0.70352 -0.43752,0.35416 -3.55029,2.04016 -2.02853,1.12569 13.67103,-8.21533 10.70815,-5.73417 6.18536,-4.18258 -3.3228,1.08065 -6.72257,1.70978 -10.20813,1.85093 -4.18189,0.18513 -8.24071,-0.56929 -12.24289,-1.69662 -2.51606,-0.85174 -5.06033,-1.88257 -7.18663,-3.51469 -1.0656,-0.81795 -1.43573,-1.29887 -2.33353,-2.27028 -1.62964,-1.73493 -2.12908,-4.03081 -3.01748,-6.15014 -0.6462,-0.9601 -0.13229,-1.10119 -1.37961,-0.81956 0,0 -8.97809,4.9422 -8.97809,4.9422 v 0 c -1.05109,0.84742 -0.61852,0.58468 -0.64635,1.8856 0.46634,2.49142 1.88629,4.58105 3.34023,6.6172 0.38484,0.43036 0.7413,0.8879 1.15453,1.29109 2.45622,2.39657 5.64455,3.89377 8.84862,4.99435 2.19092,0.66166 4.38954,1.33064 6.67012,1.61602 1.99179,0.24925 4.01342,0.14416 6.01323,0.22737 1.20466,-0.005 2.58837,0.0243 3.78897,-0.12 2.30824,-0.27752 4.51478,-1.08535 6.77924,-1.57033 5.39704,-1.61111 8.32899,-3.98147 14.19395,-7.32401 0.97396,-0.55507 1.79428,-1.25648 2.35481,-2.23431 1.56448,-2.56778 2.27472,-4.55389 2.26301,-7.61658 0.0154,-4.26954 -0.76308,-7.25208 -3.24651,-10.79653 -2.50045,-3.704 -5.0907,-6.31239 -9.38912,-7.87023 -3.59066,-1.4026 -7.25083,-2.84095 -11.14485,-1.84384 -3.5831,0.99787 -7.06906,2.40466 -10.74419,3.01881 -2.44539,-0.12882 -3.83512,-0.88988 -5.21876,-2.92831 -1.4991,-2.52023 -2.23141,-5.22655 -1.80767,-8.17945 0.10525,-0.54763 0.16739,-1.10534 0.31575,-1.64289 0.97461,-3.53124 3.35165,-6.54576 6.01857,-8.96361 3.18851,-2.28711 4.01968,-2.79152 -4.58717,2.34601 -0.70938,0.42343 1.46078,-0.77298 2.2053,-1.13102 1.35628,-0.65221 3.45755,-1.5567 4.86262,-2.08042 0.78222,-0.29156 1.58132,-0.53569 2.37198,-0.80354 4.91213,-1.21262 7.50666,-1.21207 12.06091,1.20494 2.46888,1.54029 4.64689,3.34345 5.75224,6.12432 0,0 8.18072,-4.45828 8.18072,-4.45828 z"
       id="path4459"
       style="fill:#333333;fill-opacity:1;fill-rule:nonzero;stroke:none" />
    <path
       d="m 138.72425,594.37634 c 0.78315,3.51768 1.74516,6.99155 2.56741,10.49996 1.16896,5.66826 2.38434,11.32559 3.62978,16.97752 1.37397,6.99854 2.57727,14.02871 3.89055,21.03904 1.20414,5.91265 2.40322,11.82389 3.50253,17.75695 0.64905,3.37237 1.13187,6.76664 1.50273,10.17902 0.29896,1.68596 0.35913,3.42044 0.73004,5.09243 0.34162,1.0691 0.77741,2.12029 0.98301,3.22876 0.17498,0.94339 -0.0818,0.35955 0.30202,1.05384 2.06705,0.0324 4.03579,-1.52698 5.69059,-2.41054 0,0 0.31247,-0.19431 0.31247,-0.19431 v 0 c 1.69361,-0.9799 3.97159,-1.86522 5.20147,-3.55638 -0.11533,-0.83965 0.0407,-0.15341 -0.36648,-1.00857 -0.46977,-0.98657 -0.71237,-2.07236 -0.94862,-3.13185 -0.3879,-1.58888 -0.87277,-3.15195 -1.10355,-4.77781 -0.62681,-3.32922 -1.19961,-6.67144 -2.1145,-9.93757 -1.39413,-5.81087 -2.71125,-11.64017 -3.98649,-17.47825 -1.43358,-6.98749 -2.64435,-14.01678 -3.92947,-21.03258 -1.11636,-5.68995 -2.3848,-11.3509 -3.66792,-17.00515 -0.90977,-3.45118 -1.91869,-6.88871 -2.59991,-10.39256 0,0 -9.59566,5.09805 -9.59566,5.09805 z"
       id="path4461"
       style="fill:#333333;fill-opacity:1;fill-rule:nonzero;stroke:none" />
  </g>
</svg>
