<?xml version="1.0" encoding="UTF-8" standalone="no"?>
<svg
   xmlns:dc="http://purl.org/dc/elements/1.1/"
   xmlns:cc="http://creativecommons.org/ns#"
   xmlns:rdf="http://www.w3.org/1999/02/22-rdf-syntax-ns#"
   xmlns:svg="http://www.w3.org/2000/svg"
   xmlns="http://www.w3.org/2000/svg"
   id="svg62"
   version="1.1"
   width="24"
   viewBox="0 0 24 24"
   height="24">
  <metadata
     id="metadata68">
    <rdf:RDF>
      <cc:Work
         rdf:about="">
        <dc:format>image/svg+xml</dc:format>
        <dc:type
           rdf:resource="http://purl.org/dc/dcmitype/StillImage" />
        <dc:title></dc:title>
      </cc:Work>
    </rdf:RDF>
  </metadata>
  <defs
     id="defs66" />
  <path
     id="path58"
     fill="none"
     d="M0 0h24v24H0z" />
  <g
     id="layer5">
    <path
       d="M 11.975369,5.1399934 C 11.367402,5.4022337 10.800511,5.7547125 10.244576,6.112879 9.9909487,6.27934 9.7486807,6.4622851 9.504373,6.6419371 9.0588189,6.9717352 8.6059691,7.2913978 8.1490576,7.6052105 7.733612,7.8933079 7.3118151,8.1720023 6.8867113,8.4455882 6.502457,8.68878 6.1148513,8.9265925 5.7303863,9.1694486 5.4220458,9.3696319 5.1122346,9.5675751 4.8045959,9.7688409 4.5973084,9.9025448 4.389722,10.035782 4.1827312,10.169945 c -0.154339,0.100083 -0.3106275,0.197092 -0.4644478,0.297969 -0.034184,0.02443 -0.071943,0.0445 -0.1039006,0.07189 0.036815,0.268115 0.1130389,0.182558 0.2223562,0.121701 0,0 1.0948846,-0.8839523 1.0948846,-0.8839523 v 0 c -0.1354682,0.075765 -0.1139107,0.020631 0.015,0.2345253 0.030702,-0.016637 0.057325,-0.040526 0.087383,-0.05834 C 5.179573,9.8567765 5.3276081,9.7635652 5.4733999,9.6669393 5.6793082,9.533773 5.887241,9.4037225 6.0905613,9.2665845 6.3893544,9.0688706 6.6884659,8.8715404 6.9910941,8.6797359 7.3742663,8.4376317 7.7603338,8.2001553 8.1423637,7.9562467 8.5617657,7.6832106 8.9754064,7.4015856 9.3877706,7.1180493 9.8492841,6.7961372 10.306222,6.4677747 10.765529,6.1427319 c 0.254141,-0.1818918 0.507459,-0.3654877 0.77239,-0.5315608 0.464218,-0.2817004 0.120408,-0.071962 -0.980236,0.5611026 -0.03101,0.017836 0.0615,-0.036583 0.09276,-0.053979 0.04072,-0.022662 0.108384,-0.057038 0.151691,-0.077518 0.01878,-0.00888 0.03792,-0.016993 0.05689,-0.02549 0,0 1.116351,-0.8752934 1.116351,-0.8752934 z"
       id="path1128"
       style="fill:#6930c3;fill-opacity:1;fill-rule:nonzero;stroke:none" />
    <path
       d="m 11.09938,5.7336496 c 0.204045,0.2202333 0.386214,0.4595377 0.582492,0.6867386 0.363852,0.4408593 0.769255,0.8427805 1.177217,1.2420262 0.408726,0.402277 0.822907,0.7992769 1.269202,1.159885 0.275353,0.2136806 0.569563,0.4023569 0.874824,0.5701352 0.263357,0.1460631 0.532888,0.2795245 0.806973,0.4040561 0.304855,0.1289089 0.613413,0.2483753 0.918044,0.3779463 0.248658,0.102034 0.49836,0.20194 0.749586,0.297536 0.215757,0.08159 0.430935,0.164583 0.648662,0.240803 0.175383,0.05677 0.344174,0.130942 0.515631,0.198015 0.0759,0.02449 0.147643,0.06036 0.222808,0.08666 0.0063,5.9e-5 0.03205,0.01907 0.02226,0.0023 0.386186,-0.268493 0.772372,-0.536986 1.158559,-0.80548 0,0 -1.137813,0.861224 -1.137813,0.861224 v 0 c 0.398948,-0.271026 0.797895,-0.542052 1.196843,-0.813078 -0.01388,-0.01859 -0.03369,-0.02903 -0.05471,-0.03835 -0.07676,-0.03411 -0.162544,-0.04625 -0.238676,-0.08286 C 19.63255,10.062947 19.454578,10.002835 19.279862,9.9331552 19.062836,9.8558311 18.843767,9.7841838 18.63069,9.6961301 18.377075,9.6016514 18.121044,9.513716 17.870804,9.4102352 17.564216,9.2895166 17.260106,9.1627608 16.955885,9.0362353 16.684151,8.9137446 16.417542,8.7797991 16.153507,8.6415395 15.849769,8.4764219 15.551205,8.3021407 15.268763,8.1021124 14.802696,7.7681184 14.380075,7.3821164 13.972189,6.9796646 13.575022,6.5805137 13.192585,6.1662675 12.839436,5.7273235 12.658242,5.4898157 12.480493,5.2496915 12.312263,5.0027593 c 0,0 -1.212883,0.7308903 -1.212883,0.7308903 z"
       id="path1134"
       style="fill:#6930c3;fill-opacity:1;fill-rule:nonzero;stroke:none" />
    <path
       d="m 4.6138767,18.08987 c 0.336336,0.07127 0.6841873,0.06904 1.0265747,0.08206 0.4712366,0.01429 0.9426525,0.01666 1.4140615,0.01678 0.5868295,-0.0042 1.1736203,-0.0018 1.7604221,0.0041 0.6450824,0.0028 1.290111,0.01149 1.93518,0.01633 0.653752,-5.3e-5 1.307416,0.0097 1.961093,0.01861 0.477018,0.01106 0.954062,0.02118 1.431061,0.03314 0.345697,0.01208 0.691607,0.01501 1.037438,0.02098 0.304624,0.0036 0.60927,0.0069 0.913841,0.01374 0.181018,0.0055 0.362081,0.0092 0.543094,0.01479 0.135706,0.0027 0.27142,0.0032 0.407103,0.0072 0.07774,-0.0012 0.155441,0.0011 0.233011,0.0061 0.01495,9.73e-4 0.02988,0.0024 0.0448,0.0037 -0.01396,-0.01809 0.0085,-0.0046 0.01782,-0.0023 0.03168,0.01407 0.07244,0.0064 0.106438,0.0059 0.02432,-0.0062 0.106215,0.02183 0.08113,-0.02217 -0.03424,-0.0363 -0.04448,-0.08772 -0.07484,-0.126245 0,0 1.336997,-0.515587 1.336997,-0.515587 v 0 c -0.0053,-0.05142 -0.03787,-0.09632 -0.06153,-0.140121 -0.03607,-0.04234 -0.078,-0.03365 -0.13026,-0.03234 -0.02517,-4.52e-4 -0.06683,-0.0086 -0.08659,0.0044 -0.01423,-5.98e-4 -0.01612,0.0048 -0.02559,-0.0094 -0.01764,-3.11e-4 -0.03531,5.95e-4 -0.05295,3.28e-4 -0.08101,-3.9e-5 -0.161946,-0.0028 -0.24293,-0.0045 -0.137746,0.004 -0.275615,0.0048 -0.413387,0.0015 -0.187406,-0.0031 -0.374821,-0.0049 -0.562256,-0.0036 -0.30763,0.0018 -0.615222,-0.0028 -0.922821,-0.0068 -0.350342,-0.0014 -0.700631,-0.0081 -1.050971,-0.0101 -0.488049,-0.0044 -0.976055,-0.01209 -1.464147,-0.01047 -0.654575,-0.003 -1.309115,-0.01027 -1.963657,-0.017 -0.643654,-0.0049 -1.287319,-0.0077 -1.9309081,-0.01882 -0.5816019,-0.0073 -1.1632022,-0.01334 -1.7448426,-0.0165 -0.4666959,-0.0042 -0.933447,-0.0084 -1.3999829,-0.02197 -0.3175609,-0.01 -0.6413135,-0.01183 -0.9510968,-0.08974 0,0 -1.1712999,0.79805 -1.1712999,0.79805 z"
       id="path1138"
       style="fill:#6930c3;fill-opacity:1;fill-rule:nonzero;stroke:none" />
    <path
       d="m 5.4041408,10.951527 c 0.036434,0.267943 0.041099,0.539262 0.050797,0.809179 0.015118,0.4857 0.019725,0.971388 0.048274,1.456584 0.015726,0.46348 0.050348,0.92592 0.075354,1.388877 0.014819,0.377033 0.021225,0.754553 0.017394,1.13187 -0.00248,0.163481 -0.00715,0.327174 -0.024336,0.489859 -0.00144,0.03333 -4.827e-4,0.06673 0.00186,0.09999 0.00484,0.07209 0.00495,0.144371 0.00332,0.216571 0.00579,0.0903 0.00709,0.180714 0.0075,0.271175 7.543e-4,0.06751 -3.297e-4,0.134953 0.00275,0.202415 0.00562,0.08167 0.00156,0.163382 -0.0032,0.244942 -8.212e-4,0.02358 -0.0024,0.04713 -0.00515,0.07056 6.444e-4,8.35e-4 -9.401e-4,0.0036 -0.00103,0.004 0,0 1.7350756,-0.882794 1.7350756,-0.882794 v 0 c -3.257e-4,-0.0013 -0.00121,-0.0026 -0.00102,-0.004 -0.00283,-0.02175 -0.00428,-0.04365 -0.00507,-0.06557 -0.00498,-0.08083 -0.00875,-0.161781 -0.00387,-0.242759 0.00208,-0.06893 -8.724e-4,-0.13759 -0.00517,-0.206402 -0.00518,-0.08896 -0.00582,-0.177946 -0.00299,-0.267012 -0.00182,-0.07435 -0.00133,-0.148708 0.00172,-0.223026 7.095e-4,-0.03163 -0.00153,-0.06282 -0.00521,-0.09423 -0.017984,-0.154372 -0.024607,-0.309772 -0.031828,-0.464935 -0.017111,-0.372618 -0.035619,-0.745048 -0.05908,-1.117336 -0.02197,-0.461462 -0.054304,-0.921867 -0.085269,-1.382789 -0.016221,-0.487761 -0.036654,-0.975973 -0.01875,-1.464014 0.00516,-0.283466 0.00487,-0.567395 0.021522,-0.850444 0,0 -1.7135822,0.879275 -1.7135822,0.879275 z"
       id="path1142"
       style="fill:#6930c3;fill-opacity:1;fill-rule:nonzero;stroke:none" />
    <path
       d="m 9.7510101,11.087815 c 0.1353537,0.194135 0.1556981,0.443974 0.1864462,0.672296 0.052778,0.367703 0.049297,0.739707 0.064391,1.109973 0.01641,0.384172 0.01849,0.76867 0.03024,1.152981 0.01651,0.421445 0.02356,0.843083 0.03097,1.264751 0.0126,0.376878 0.0088,0.753951 0.01465,1.130924 0.0026,0.238754 -0.0039,0.477369 -8.88e-4,0.716097 0.0012,0.101034 0.0014,0.202138 -0.0047,0.303027 -0.0015,0.02356 -0.0081,0.04465 2.18e-4,0.06674 0.0057,0.02154 0.02057,0.04353 -0.0072,0.0025 0.0031,0.06614 0.07013,0.137113 0.112166,0.188259 0.544956,-0.348974 1.089912,-0.697948 1.634868,-1.046921 0,0 -1.743258,0.847631 -1.743258,0.847631 v 0 c 0.542961,-0.338411 1.085922,-0.676822 1.628884,-1.015233 0.0098,0.01373 0.128569,0.220867 0.10864,0.16107 -0.0018,-0.01119 -0.02771,-0.04362 -0.01159,-0.03885 0.0091,0.0092 -0.0027,-0.03883 -0.0021,-0.04619 -0.01027,-0.09741 -0.01605,-0.1952 -0.02286,-0.292893 -0.01504,-0.230197 -0.03334,-0.460296 -0.03921,-0.690969 -0.0069,-0.374873 -0.02293,-0.749489 -0.0295,-1.124377 -0.01117,-0.422167 -0.02789,-0.844207 -0.02714,-1.266612 -0.0048,-0.385619 -0.0196,-0.770906 -0.02793,-1.15646 -0.0093,-0.37844 -0.03048,-0.756683 -0.05712,-1.134272 -0.03388,-0.264294 -0.0694,-0.534209 -0.181306,-0.778766 0,0 -1.6566596,0.975314 -1.6566596,0.975314 z"
       id="path1144"
       style="fill:#6930c3;fill-opacity:1;fill-rule:nonzero;stroke:none" />
    <path
       d="m 12.822997,10.42924 c 0.02341,0.225714 0.02848,0.45272 0.04537,0.678958 0.02444,0.403156 0.0516,0.8061 0.0692,1.209625 0.01134,0.399387 0.02739,0.798599 0.04036,1.197936 0.01385,0.334995 0.0246,0.670187 0.04253,1.005001 0.01448,0.321379 0.02633,0.642826 0.04342,0.964089 0.0137,0.298518 0.02639,0.597103 0.03322,0.895868 0.0061,0.21076 0.0077,0.421725 0.01763,0.632348 0.006,0.153659 0.01229,0.307276 0.01169,0.461072 -0.0027,0.07369 7.41e-4,0.147316 0.0014,0.22097 -0.0083,0.08142 0.01278,0.106987 0.05915,0.18266 0,0 1.610435,-1.092152 1.610435,-1.092152 v 0 c 0.06413,0.110933 0.05696,0.124022 0.04726,0.02775 -0.0041,-0.07282 -0.0021,-0.145986 -0.01296,-0.218391 -0.01535,-0.150233 -0.02108,-0.300918 -0.02823,-0.451715 -0.0084,-0.207133 -0.02895,-0.413636 -0.03852,-0.62074 -0.01697,-0.297311 -0.02711,-0.594957 -0.0441,-0.89227 -0.01459,-0.320341 -0.03356,-0.640417 -0.04764,-0.960772 -0.0115,-0.334369 -0.03144,-0.668428 -0.04687,-1.002627 -0.02137,-0.39504 -0.04571,-0.789921 -0.06455,-1.185094 -0.016,-0.408722 -0.02343,-0.817693 -0.03475,-1.226558 -3.48e-4,-0.230852 -0.01402,-0.4637064 0.01747,-0.6931039 0,0 -1.721528,0.8671489 -1.721528,0.8671489 z"
       id="path1146"
       style="fill:#6930c3;fill-opacity:1;fill-rule:nonzero;stroke:none" />
    <path
       d="m 15.587683,10.582346 c 0.04786,0.279801 0.06395,0.564407 0.08333,0.847349 0.02402,0.38167 0.03958,0.76357 0.03417,1.145985 -0.0045,0.334491 -0.01417,0.668906 -0.01608,1.003447 0.0044,0.252621 0.02726,0.504141 0.04719,0.755807 0.01537,0.205526 0.02821,0.411101 0.02991,0.617221 0.0013,0.16379 -0.0021,0.327603 -6.3e-4,0.491384 0.01194,0.186226 0.02557,0.372282 0.04261,0.558112 0.01008,0.144859 0.0285,0.288975 0.03741,0.433896 0.0075,0.113969 0.0113,0.227876 0.0081,0.342051 0.0017,0.07652 -0.0026,0.152792 -0.0065,0.229137 -0.0025,0.04658 0.0043,0.09277 0.0078,0.139099 0.0043,0.04652 8.8e-4,0.09378 0.0075,0.140053 0.0045,0.01993 0.0023,0.03975 0.0022,0.05979 -0.002,0.026 9.2e-5,0.05196 -1.5e-5,0.07797 -0.0021,0.02991 0.0036,0.05925 0.0044,0.08912 0.0024,0.04014 0.0096,0.07993 0.01355,0.119973 9.64e-4,0.03294 0.0046,0.06563 0.0074,0.09844 1.34e-4,0.0097 0.0022,0.01813 0.0065,0.0267 0,0 1.710749,-0.928857 1.710749,-0.928857 v 0 c 0.0055,0.01042 0.0029,0.0047 0.0019,-0.0022 -0.0057,-0.02963 -0.0072,-0.05978 -0.01092,-0.08968 -0.0037,-0.03812 -0.0061,-0.07608 -0.0054,-0.114365 -0.0021,-0.02649 -9.25e-4,-0.05256 -0.0013,-0.07908 -1.22e-4,-0.02802 0.0021,-0.05601 -0.0012,-0.08395 -0.0014,-0.02436 -0.0063,-0.04795 -0.0093,-0.07212 -0.0019,-0.04369 -0.009,-0.08726 -0.0079,-0.131178 -0.0024,-0.04261 -0.0028,-0.08504 -0.0019,-0.12772 -0.0037,-0.07509 -0.008,-0.1501 -0.0076,-0.225338 -0.0066,-0.117736 -0.0053,-0.236106 -0.02069,-0.353154 -0.01855,-0.142299 -0.02919,-0.285494 -0.04981,-0.42757 -0.01828,-0.181459 -0.03479,-0.363748 -0.02896,-0.546332 -0.0012,-0.163446 -0.0028,-0.327014 -0.01054,-0.490287 -0.01058,-0.207414 -0.01867,-0.415028 -0.04518,-0.621231 -0.02269,-0.245729 -0.04233,-0.491985 -0.05115,-0.738636 -0.0114,-0.33047 -0.0038,-0.660798 -0.0039,-0.991389 -0.0095,-0.385046 -0.01303,-0.770255 -0.03757,-1.154773 -0.0127,-0.292734 -0.03007,-0.5864019 -0.02179,-0.8793231 0,0 -1.706331,0.8816311 -1.706331,0.8816311 z"
       id="path1148"
       style="fill:#6930c3;fill-opacity:1;fill-rule:nonzero;stroke:none" />
    <path
       d="m 5.7048247,10.75733 c 0.091514,-0.02492 0.1819474,-0.05354 0.272467,-0.0818 0.029623,-0.0111 0.045717,0.0025 0.033754,-0.0288 0.2790287,-0.03138 0.5610294,-0.03057 0.8414626,-0.03758 0.7101186,-0.01441 1.4203846,-0.0139 2.1305711,-0.0065 0.690376,0.0076 1.3807576,0.01415 2.0711376,0.0214 0.601799,0.003 1.203449,0.01871 1.805245,0.02031 0.407261,0.0017 0.814219,0.01783 1.221494,0.01392 0.261275,2.99e-4 0.522533,-0.0028 0.783802,-0.0038 0.223594,0.0016 0.447214,0.0048 0.670632,0.01418 0.106515,0.0054 0.21301,0.01135 0.319419,0.01856 0.477519,0.06829 1.688343,-0.8694187 1.154094,-0.8337868 0,0 -1.152662,0.8343748 -1.152662,0.8343748 v 0 c 0.493616,0.05473 1.709707,-0.882259 1.152063,-0.8345302 -0.113532,0.00194 -0.227087,3.36e-5 -0.340605,-0.00194 -0.227024,-0.00468 -0.454022,-0.011498 -0.681105,-0.012116 -0.265856,-4.079e-4 -0.53159,0.00419 -0.797332,0.011936 -0.419114,0.00552 -0.838165,0.018197 -1.257361,0.015105 -0.606928,-0.00612 -1.213877,-0.00165 -1.820805,-0.00867 -0.693444,-0.00452 -1.386849,-0.011863 -2.080298,-0.01508 C 9.3327887,9.84072 8.6347165,9.838106 7.9368727,9.8213414 7.6796333,9.8143778 7.421951,9.8145054 7.165079,9.7988516 7.133917,9.7689316 7.142368,9.7870506 7.100554,9.8015116 7.01168,9.8342976 6.9225589,9.8668276 6.8316411,9.8935306 c 0,0 -1.1268169,0.8637984 -1.1268164,0.8637994 z"
       id="path1154"
       style="fill:#6930c3;fill-opacity:1;fill-rule:nonzero;stroke:none" />
    <circle
       r="0.047768719"
       cy="12.092849"
       cx="22.34421"
       style="fill:#6930c3;stroke:#6930c3"
       id="path1156" />
  </g>
</svg>
