<?xml version="1.0" encoding="UTF-8" standalone="no"?>
<svg
   xmlns:dc="http://purl.org/dc/elements/1.1/"
   xmlns:cc="http://creativecommons.org/ns#"
   xmlns:rdf="http://www.w3.org/1999/02/22-rdf-syntax-ns#"
   xmlns:svg="http://www.w3.org/2000/svg"
   xmlns="http://www.w3.org/2000/svg"
   id="svg62"
   version="1.1"
   width="24"
   viewBox="0 0 24 24"
   height="24">
  <metadata
     id="metadata68">
    <rdf:RDF>
      <cc:Work
         rdf:about="">
        <dc:format>image/svg+xml</dc:format>
        <dc:type
           rdf:resource="http://purl.org/dc/dcmitype/StillImage" />
        <dc:title></dc:title>
      </cc:Work>
    </rdf:RDF>
  </metadata>
  <defs
     id="defs66" />
  <path
     id="path58"
     fill="none"
     d="M0 0h24v24H0z" />
  <g
     id="layer5">
    <path
       d="m 3.5733181,7.5427625 c 0.010624,0.1756181 0.010249,0.3517058 0.015902,0.5275369 0.012247,0.2557753 0.028788,0.5112694 0.045348,0.766784 0.016669,0.2603946 0.02922,0.5210275 0.042223,0.7816241 0.011692,0.2459487 0.020819,0.4920175 0.029216,0.7380995 0.00965,0.30671 0.020697,0.613301 0.032724,0.919929 0.00837,0.378863 0.035724,0.756812 0.053465,1.135262 0.021214,0.45093 0.038188,0.901918 0.04866,1.353229 0.011623,0.370004 0.021085,0.740064 0.028127,1.110182 0.00883,0.283438 0.020102,0.566585 0.0203,0.850202 0.00113,0.233889 0.00622,0.467677 0.00484,0.701588 -0.00267,0.126952 -0.00613,0.253421 -1.606e-4,0.380246 0.00137,0.09569 0.010858,0.190964 0.016373,0.286441 0.0012,0.05917 0.00653,0.117859 0.014438,0.176484 0.00989,0.07877 0.025026,0.156711 0.036547,0.235246 0.00391,0.03208 0.00995,0.06415 0.010028,0.09658 -1.637e-4,0.01719 -0.014784,-0.02225 -0.00545,-3.18e-4 0.020648,0.483788 0.2556843,-0.12467 1.2864929,-0.644762 0,0 -1.286966,0.620229 -1.286966,0.620229 v 0 c 0.4265356,-0.206396 0.8530711,-0.412792 1.2796067,-0.619188 6e-6,-6.1e-5 1.16e-4,-0.0035 3.568e-4,-0.0036 -0.00226,-0.0067 -0.00496,-0.01334 -0.00714,-0.0201 -0.00821,-0.03151 -0.015278,-0.06333 -0.022468,-0.09509 -0.0149,-0.07532 -0.023142,-0.151486 -0.032146,-0.227693 -0.00462,-0.05847 -0.00176,-0.117512 -0.012563,-0.175405 -0.012417,-0.09094 -0.018586,-0.1825 -0.020214,-0.274272 -0.00205,-0.123649 -0.00733,-0.247082 -0.013806,-0.370595 -0.00893,-0.232536 -0.00946,-0.465037 -0.013564,-0.697649 -0.01078,-0.281861 -0.017067,-0.563897 -0.033616,-0.845502 -0.017395,-0.367225 -0.028221,-0.734716 -0.044512,-1.10198 C 5.0247396,12.695696 5.0069137,12.245035 4.9926961,11.794209 4.9798307,11.41339 4.9717827,11.032462 4.9555529,10.651756 4.9476171,10.342762 4.9439105,10.033635 4.9385568,9.7245865 4.9335836,9.4771837 4.9206785,9.2301336 4.9091351,8.9829665 4.8959062,8.7226172 4.8760941,8.4627011 4.8628238,8.202359 4.8500423,7.9471146 4.8291165,7.6921228 4.8279359,7.4364615 c -3.889e-4,-0.179521 1.01e-4,-0.359278 0.010919,-0.5385223 0,0 -1.2655371,0.6448233 -1.2655368,0.6448233 z"
       id="path1176"
       style="fill:#000000;fill-opacity:1;fill-rule:nonzero;stroke:none" />
    <path
       d="m 18.673059,7.3024812 c 0.0068,0.180799 0.0069,0.3618011 0.01059,0.5426935 0.0073,0.274318 0.01323,0.5487257 0.02941,0.8226846 0.02303,0.4149569 0.05258,0.8295096 0.07687,1.2443769 0.02567,0.5326268 0.03382,1.0658948 0.04256,1.5990098 0.0089,0.463291 0.01051,0.926709 0.02334,1.389915 0.007,0.390309 0.01367,0.780633 0.01847,1.170975 0.002,0.292747 0.0056,0.585464 0.01029,0.878178 0.0059,0.219682 0.0044,0.439376 0.01285,0.658991 0.0018,0.231939 0.01109,0.463716 0.01519,0.695591 -0.0022,0.209069 5.48e-4,0.418066 0.0091,0.626965 0.0054,0.136771 0.0091,0.273608 0.0091,0.410493 5.55e-4,0.0499 0.0037,0.09977 0.0053,0.149682 0.0083,0.06759 0.01025,0.135653 0.01542,0.203483 5.94e-4,0.05034 0.01222,0.09965 0.01281,0.149867 -0.0021,0.04973 0.0061,0.09898 0.0097,0.148493 0.0025,0.03445 0.0014,0.07009 0.01252,0.103216 0.008,0.01688 0.003,0.007 0.01577,0.02925 0,0 1.230226,-0.73703 1.230226,-0.73703 v 0 c 0.01067,0.01934 0.0065,0.0115 0.01269,0.02335 -0.0023,-0.02079 -0.0061,-0.05082 -0.0087,-0.07413 -0.0041,-0.05106 2e-4,-0.10196 -0.0057,-0.152808 -0.0072,-0.0474 -0.01632,-0.09456 -0.01707,-0.142738 -0.0028,-0.06698 -0.01224,-0.133547 -0.0109,-0.20069 -0.0011,-0.0506 -0.0038,-0.101306 -0.01051,-0.151495 -0.01508,-0.13228 -0.02073,-0.265269 -0.02769,-0.398166 -0.007,-0.206029 -0.01494,-0.412041 -0.01875,-0.618163 -0.0019,-0.233156 -0.0041,-0.466193 -0.01017,-0.699295 -5.01e-4,-0.219669 -0.01078,-0.4391 -0.01677,-0.658667 -0.01335,-0.289119 -0.01926,-0.57835 -0.02809,-0.867626 -0.01214,-0.387846 -0.02153,-0.775787 -0.03351,-1.163642 -0.0095,-0.460973 -0.02635,-0.921761 -0.03649,-1.382724 -0.01386,-0.534401 -0.0265,-1.0688259 -0.04106,-1.6032066 -0.01244,-0.4192882 -0.03305,-0.8379749 -0.04952,-1.2570915 -0.0031,-0.2773285 -0.0068,-0.5546505 -0.0043,-0.8319977 -6.94e-4,-0.181569 -0.008,-0.3642393 0.01508,-0.5448107 0,0 -1.268112,0.6370657 -1.268112,0.6370657 z"
       id="path1178"
       style="fill:#000000;fill-opacity:1;fill-rule:nonzero;stroke:none" />
    <path
       d="m 3.8247794,18.628279 c 0.251432,-0.109698 0.5251147,-0.142564 0.7953878,-0.169895 0.4272845,-0.03465 0.8563148,-0.03125 1.2846289,-0.03084 0.5804641,-0.0037 1.16087,0.0078 1.7412846,0.01368 0.579575,0.0035 1.1590886,0.0039 1.7385994,0.01413 0.4441104,0.0071 0.8883259,0.01244 1.3325029,0.01227 0.459289,-0.0025 0.918555,9e-5 1.3778,0.0065 0.414135,0.0037 0.828267,0.0024 1.242393,0.0074 0.359864,2.53e-4 0.719701,5.1e-5 1.079561,0.0035 0.33813,0.0021 0.676258,0.0043 1.014392,0.0057 0.298731,7.87e-4 0.597409,0.0069 0.896122,0.0095 0.28735,-0.0023 0.574664,0.0046 0.861999,0.0031 0.261003,-1.37e-4 0.521978,0.0055 0.782924,0.01043 0.100951,0.0044 0.202205,0.0043 0.303056,0.01077 -0.0079,-0.01031 0.0451,0.01405 0.0388,0.0027 -0.0088,-0.01578 -0.0453,-0.0338 -0.0308,-0.04456 1.175021,-0.871919 1.256324,-1.240341 1.14917,-0.773783 0,0 -1.186708,0.788989 -1.186708,0.788989 v 0 c 0.407528,0.329422 1.597759,-0.392203 1.234447,-0.800672 -0.0086,-0.0097 -0.03981,0.0039 -0.04892,-0.0035 -0.110355,-0.0044 -0.220315,-0.0026 -0.330746,0.0012 -0.26527,0.0022 -0.530596,0.0033 -0.795849,-9.89e-4 -0.286544,-0.0047 -0.573123,-5.06e-4 -0.859682,-0.0046 -0.301326,-0.0013 -0.602647,-0.0029 -0.903971,-0.0046 -0.338862,7.3e-5 -0.677725,-5.4e-5 -1.016576,-0.0032 -0.361507,-0.0015 -0.723021,-0.0017 -1.084526,-5.37e-4 -0.417553,0.0021 -0.835104,0.0022 -1.252661,9.01e-4 -0.458748,-0.0014 -0.917467,-0.0062 -1.376208,-0.0087 -0.448721,-0.0022 -0.897471,-5e-4 -1.346194,-0.0015 -0.5835357,0.0014 -1.1670317,-0.0015 -1.7505568,-0.0051 -0.5745304,-0.0051 -1.1490024,-0.01576 -1.7234379,-0.02726 -0.4225667,-0.0044 -0.8455659,-0.01177 -1.2679542,0.0033 -0.2629159,0.01848 -0.5282873,0.04049 -0.7830121,0.112 0,0 -1.1152726,0.873681 -1.1152726,0.873681 z"
       id="path1180"
       style="fill:#000000;fill-opacity:1;fill-rule:nonzero;stroke:none" />
    <path
       d="m 4.6679954,8.1723088 c 0.3855481,-0.059426 0.7773985,-0.06509 1.1666657,-0.075781 0.6591295,-0.016452 1.3184768,-0.017741 1.9777701,-0.019224 0.5927423,-0.00116 1.1854629,0.00144 1.778203,8.083e-4 0.5293948,0.00958 1.0584618,-0.00634 1.5877168,-0.010609 0.674118,-0.00366 1.348173,-0.00891 2.022283,-0.00144 0.464475,0.00778 0.92901,0.0086 1.39352,0.012317 0.378507,0.00419 0.757028,0.00148 1.135541,5.96e-5 0.404349,-0.00947 0.808696,1.011e-4 1.213016,0.00481 0.250614,-1.445e-4 0.50117,0.00497 0.751779,0.00601 0.123749,-3.12e-4 0.247336,0.00646 0.371065,0.00707 0.101704,1.677e-4 0.203392,-0.0018 0.305096,-0.0015 0.08603,0.0018 0.172085,6.224e-4 0.258113,0.00234 0.0062,-0.00869 0.05135,0.011066 0.05741,7.72e-4 0.0018,-0.00301 -0.0073,-0.00742 -0.0044,-0.0095 1.125686,-0.833778 1.603504,-0.9001555 1.105193,-0.8254566 0,0 -1.140262,0.8499509 -1.140262,0.8499509 v 0 c 0.510424,-0.047656 0.05784,-3.144e-4 1.213631,-0.8387806 0.02467,-0.017897 -0.0959,-0.015758 -0.08197,-0.012187 -0.08818,0.00167 -0.176384,5.905e-4 -0.264565,0.00234 -0.100326,2.897e-4 -0.200635,-0.00167 -0.300961,-0.0015 -0.130211,6.31e-4 -0.260296,0.0073 -0.390525,0.00707 -0.256127,0.00106 -0.512204,0.00612 -0.768335,0.00601 -0.408727,0.00461 -0.817487,0.014233 -1.226238,0.0048 -0.378542,-0.00145 -0.757092,-0.00414 -1.135628,6.3e-6 -0.475967,0.0037 -0.951958,0.00458 -1.427886,0.012583 -0.675001,0.00778 -1.349965,0.00362 -2.024986,0.00305 -0.523691,-0.00158 -1.04727,-0.014465 -1.571035,-0.00179 -0.600732,0.00441 -1.2013722,0.015058 -1.8021265,0.016853 -0.651234,0.00188 -1.3024532,0.00236 -1.9536784,-5.185e-4 -0.3703942,0.00164 -0.7407843,0.00417 -1.1110101,0.016598 0,0 -1.1333506,0.8448273 -1.1333506,0.8448273 z"
       id="path1186"
       style="fill:#000000;fill-opacity:1;fill-rule:nonzero;stroke:none" />
    <path
       d="m 3.3492197,10.868441 c 0.2195482,-0.01468 0.4391908,-0.02601 0.6584518,-0.04473 0.3661832,-0.02582 0.732546,-0.04951 1.0989735,-0.0718 0.4279912,-0.02266 0.8556967,-0.05015 1.2835472,-0.07533 0.4782174,-0.02685 0.9567704,-0.04752 1.434798,-0.07764 0.4247579,-0.0242 0.8498885,-0.0409 1.2749025,-0.05979 0.3412822,-0.01396 0.6821883,-0.0319 1.0236793,-0.04052 0.330813,-0.0088 0.66124,-0.03007 0.991506,-0.05074 0.354049,-0.02874 0.709051,-0.03205 1.063909,-0.03971 0.343384,-0.0093 0.686706,-0.02045 1.030091,-0.02972 0.291377,-0.0072 0.582581,-0.02001 0.873596,-0.03603 0.333118,-0.02376 0.667036,-0.03386 1.000649,-0.04834 0.270313,-0.002 0.539988,-0.01651 0.809912,-0.02927 0.229963,-0.006 0.459568,-0.02002 0.689365,-0.03019 0.245458,-0.0087 0.490838,-0.01923 0.736347,-0.02651 0.169715,-0.0019 0.339471,-0.0061 0.509122,6.37e-4 0.02854,0.0042 0.06062,-0.0011 0.08773,0.01016 0.612195,0.713889 3.319691,-1.7753116 2.274127,-1.7149218 0,0 -2.337623,1.6925778 -2.337623,1.6925778 v 0 c 0.98624,0.11349 2.147379,-2.6450094 2.409928,-1.712152 -0.03386,0.016868 -0.07652,0.012664 -0.112818,0.021305 -0.183527,0.021572 -0.367985,0.030202 -0.552609,0.036599 -0.244872,0.00796 -0.489828,0.012524 -0.734634,0.022058 -0.231594,0.00839 -0.463306,0.01419 -0.694572,0.029655 -0.279425,0.016196 -0.558556,0.034922 -0.837798,0.053828 -0.327539,0.012555 -0.655117,0.024917 -0.982826,0.032039 -0.295437,0.0134 -0.590481,0.033373 -0.885743,0.05 C 15.118472,8.744998 14.7756,8.757032 14.432566,8.763941 14.074447,8.770601 13.716494,8.786598 13.358539,8.798952 13.030577,8.814551 12.702668,8.831575 12.374878,8.850379 12.028452,8.866826 11.681554,8.870382 11.335607,8.895708 10.89799,8.924865 10.460732,8.959566 10.022768,8.983502 9.5479543,9.006087 9.0734861,9.035603 8.5984878,9.05457 8.1769939,9.073521 7.755374,9.089948 7.3341928,9.115075 6.9786748,9.131774 6.6231105,9.147193 6.2675902,9.163614 c -0.1930294,0.0029 -0.3862561,0.012029 -0.5792497,0.00536 0,0 -2.3391218,1.699472 -2.3391218,1.699472 z"
       id="path1194"
       style="fill:#000000;fill-opacity:1;fill-rule:nonzero;stroke:none" />
  </g>
</svg>
