<?xml version="1.0" encoding="UTF-8" standalone="no"?>
<svg
   xmlns:dc="http://purl.org/dc/elements/1.1/"
   xmlns:cc="http://creativecommons.org/ns#"
   xmlns:rdf="http://www.w3.org/1999/02/22-rdf-syntax-ns#"
   xmlns:svg="http://www.w3.org/2000/svg"
   xmlns="http://www.w3.org/2000/svg"
   xmlns:sodipodi="http://sodipodi.sourceforge.net/DTD/sodipodi-0.dtd"
   xmlns:inkscape="http://www.inkscape.org/namespaces/inkscape"
   inkscape:version="1.0 (6e3e5246a0, 2020-05-07)"
   sodipodi:docname="configure.svg"
   id="svg62"
   version="1.1"
   width="24"
   viewBox="0 0 24 24"
   height="24">
  <metadata
     id="metadata68">
    <rdf:RDF>
      <cc:Work
         rdf:about="">
        <dc:format>image/svg+xml</dc:format>
        <dc:type
           rdf:resource="http://purl.org/dc/dcmitype/StillImage" />
        <dc:title></dc:title>
      </cc:Work>
    </rdf:RDF>
  </metadata>
  <defs
     id="defs66" />
  <sodipodi:namedview
     inkscape:current-layer="layer6"
     inkscape:window-maximized="1"
     inkscape:window-y="27"
     inkscape:window-x="53"
     inkscape:cy="11.061074"
     inkscape:cx="9.6369184"
     inkscape:zoom="19.51905"
     showgrid="false"
     id="namedview64"
     inkscape:window-height="713"
     inkscape:window-width="1313"
     inkscape:pageshadow="2"
     inkscape:pageopacity="0"
     guidetolerance="10"
     gridtolerance="10"
     objecttolerance="10"
     borderopacity="1"
     bordercolor="#666666"
     pagecolor="#ffffff" />
  <path
     id="path58"
     fill="none"
     d="M0 0h24v24H0z" />
  <g
     inkscape:label="Layer 6"
     id="layer6"
     inkscape:groupmode="layer">
    <ellipse
       ry="5.4180632"
       rx="5.6167927"
       cy="12.46003"
       cx="11.921143"
       id="path1871"
       style="fill:none;fill-opacity:1;fill-rule:nonzero;stroke:#000000;stroke-width:0.9;stroke-miterlimit:4;stroke-dasharray:none;stroke-opacity:1" />
    <ellipse
       ry="2.6384981"
       rx="2.7320986"
       cy="12.172377"
       cx="11.883728"
       id="path1873"
       style="fill:none;fill-opacity:1;fill-rule:nonzero;stroke:#000000;stroke-width:0.9;stroke-miterlimit:4;stroke-dasharray:none;stroke-opacity:1" />
    <path
       d="m 10.059855,5.6415965 c 0.04971,0.2403741 0.05404,0.4879226 0.06455,0.7325288 0.0043,0.098973 0.0056,0.1981862 -0.0018,0.297029 10e-4,0.00573 0.0021,0.01145 0.0031,0.017175 0,0 1.266843,-0.6651319 1.266843,-0.6651319 v 0 c 2.53e-4,-5.778e-4 5.06e-4,-0.00116 7.59e-4,-0.00173 -0.0098,-0.096501 -0.02129,-0.1928428 -0.03091,-0.2893681 -0.0259,-0.2542276 -0.04546,-0.5089327 -0.05656,-0.764263 0,0 -1.245962,0.6737634 -1.245962,0.6737634 z"
       id="path1875"
       style="fill:#000000;fill-opacity:1;fill-rule:nonzero;stroke:none" />
    <path
       d="m 9.9973341,5.1347662 c 0.2024689,0.021547 0.4035989,-0.024664 0.6023629,-0.056195 0.231263,-0.036686 0.225789,-0.034473 0.457518,-0.065259 0.428111,-0.044437 0.853437,-0.1105262 1.280912,-0.1601555 0.237441,-0.023839 0.475144,-0.045225 0.713032,-0.064118 0.06372,-0.00492 0.127619,-0.00596 0.190789,-0.016096 0.04931,-0.010734 0.09768,-0.024434 0.147437,-0.032932 0.04909,0.020612 0.002,-0.052487 5.19e-4,-0.04697 -0.0032,0.012268 0.0021,0.025288 0.0028,0.037956 0.0011,0.02099 0.0017,0.042005 0.0026,0.063007 -0.0026,0.1995101 -0.01712,0.3988398 -0.037,0.5973285 -0.01452,0.1034543 -0.01983,0.2076402 -0.02619,0.3117812 0.0054,0.071396 0.0057,0.142785 0.0031,0.214314 -0.0029,0.063691 -0.0077,0.1273492 -0.01477,0.1907238 -0.01099,0.038566 -5.9e-4,0.039727 -0.03813,-0.018671 0,0 1.330178,-0.5278228 1.330178,-0.5278228 v 0 c -0.0099,-0.036485 -0.0181,-0.059382 -0.01644,-0.094636 -2.45e-4,-0.062997 0.0025,-0.1259591 0.0029,-0.1889536 0.0015,-0.072308 0.0046,-0.144572 0.0022,-0.2168906 -5.1e-4,-0.09879 0.0066,-0.1974367 0.0089,-0.2961782 0.0092,-0.2047217 0.0288,-0.4086543 0.03801,-0.6133384 -10e-4,-0.079458 9.25e-4,-0.2635923 -0.114876,-0.2627909 -0.05346,0.00349 -0.106926,0.00711 -0.158741,0.021836 -0.0631,0.019024 -0.125834,0.033607 -0.192065,0.037946 -0.252005,0.033139 -0.503755,0.068407 -0.75658,0.094979 -0.430669,0.049652 -0.85883,0.1182435 -1.289903,0.1647151 -0.325325,0.040447 -0.651191,0.098163 -0.978444,0.1119642 0,0 -1.1600959,0.8144565 -1.1600959,0.8144565 z"
       id="path1877"
       style="fill:#000000;fill-opacity:1;fill-rule:nonzero;stroke:none" />
    <path
       d="m 15.619218,7.9664305 c 0.265148,-0.081025 0.526082,-0.1757726 0.788848,-0.264351 0.264255,-0.084059 0.519921,-0.1919563 0.782327,-0.2811807 0.07318,-0.024061 0.147659,-0.043638 0.222161,-0.063032 0.03762,-0.00979 0.05797,-0.013577 0.05532,-0.021032 -0.0069,-0.019527 -0.02474,-0.033259 -0.0371,-0.049889 -0.0093,-0.00522 -0.01859,-0.01044 -0.02788,-0.01566 0,0 1.28353,-0.6146837 1.28353,-0.6146837 v 0 c -0.0045,-0.024355 -0.009,-0.048709 -0.01346,-0.073064 -0.01752,-0.027578 -0.02961,-0.059486 -0.05257,-0.082733 -0.04217,-0.042701 -0.278673,0.060914 -0.330068,0.06742 -0.272519,0.082902 -0.530214,0.2046903 -0.800838,0.2932912 -0.2476,0.082897 -0.495798,0.1639149 -0.744123,0.2445814 0,0 -1.126148,0.860332 -1.126148,0.860332 z"
       id="path1879"
       style="fill:#000000;fill-opacity:1;fill-rule:nonzero;stroke:none" />
    <path
       d="m 17.699522,6.5727163 c 0.162416,0.2333368 0.238414,0.4995376 0.308959,0.7712024 0.11356,0.4760648 0.2604,0.9431032 0.407106,1.4097127 0.116106,0.3526056 0.206917,0.7126681 0.31114,1.0687769 0.02912,0.088594 0.04669,0.1808987 0.08601,0.2657797 0.01399,0.03212 0.03171,0.06252 0.05017,0.09225 0.0011,0.002 0.0021,0.004 0.0032,0.006 0,0 1.228445,-0.738761 1.228445,-0.738761 v 0 c -9.5e-5,6.439e-4 -1.89e-4,0.00129 -2.84e-4,0.00193 C 20.076718,9.431005 20.062688,9.4098 20.052778,9.386063 20.015308,9.307915 19.978918,9.229212 19.947175,9.1485234 19.810465,8.808675 19.690565,8.4623996 19.587882,8.1106999 19.441928,7.6452354 19.296791,7.1789274 19.202311,6.6996145 c -0.0401,-0.1792969 -0.07417,-0.364297 -0.140444,-0.5364852 -0.02031,-0.052774 -0.07373,-0.1488337 -0.09779,-0.2028737 -0.01128,-0.025344 -0.02011,-0.051713 -0.03016,-0.07757 0,0 -1.234357,0.6900365 -1.234357,0.6900365 z"
       id="path1881"
       style="fill:#000000;fill-opacity:1;fill-rule:nonzero;stroke:none" />
    <path
       d="m 17.593219,10.517123 c 0.184473,-0.01254 0.367256,-0.0432 0.550241,-0.06902 0.04254,-0.0059 0.08505,-0.01203 0.127634,-0.01756 0.009,-0.0012 0.03105,0.0021 0.0266,-0.0058 -0.01637,-0.02909 -0.03739,-0.0553 -0.05608,-0.08296 -0.01367,-0.02202 -0.02346,-0.047 -0.04102,-0.06607 -0.0068,-0.0074 -0.03107,0.02563 -0.02234,0.02051 0.401559,-0.235556 0.802058,-0.472916 1.203087,-0.7093741 0,0 -1.112393,0.8956381 -1.112393,0.8956381 v 0 c 0.410732,-0.241702 0.821965,-0.4825534 1.232194,-0.7251066 0.0092,-0.00543 0.02573,-0.010312 0.02428,-0.020887 -0.0038,-0.027775 -0.01657,-0.053569 -0.02486,-0.080353 -0.01914,-0.029248 -0.03525,-0.060728 -0.05743,-0.087743 -0.0032,-0.00396 -0.165296,0.033792 -0.177195,0.035398 -0.174086,0.033508 -0.349323,0.061772 -0.525949,0.077987 0,0 -1.146761,0.8353616 -1.146761,0.8353616 z"
       id="path1883"
       style="fill:#000000;fill-opacity:1;fill-rule:nonzero;stroke:none" />
    <path
       d="m 17.537599,13.450865 c 0.201471,0.07481 0.414945,0.107725 0.625949,0.143337 0.176075,0.02842 0.354543,0.03994 0.530145,0.0713 0.01992,0.02577 0.06672,-0.0047 0.02366,-0.01683 0,0 1.25358,-0.681036 1.25358,-0.681036 v 0 c -0.02413,-0.05785 -0.04851,-0.11468 -0.119242,-0.116769 -0.183241,-0.02428 -0.368364,-0.02758 -0.551281,-0.05511 -0.195407,-0.03023 -0.396389,-0.05425 -0.580461,-0.129803 0,0 -1.182348,0.784906 -1.182348,0.784906 z"
       id="path1885"
       style="fill:#000000;fill-opacity:1;fill-rule:nonzero;stroke:none" />
    <path
       d="m 19.47964,13.326191 c -0.05981,0.420441 -0.116745,0.841352 -0.168237,1.262897 -0.07357,0.532654 -0.120024,1.068248 -0.170865,1.603349 -0.02898,0.152502 -0.01538,0.316036 -0.0593,0.466125 -0.353119,-0.376118 1.324027,-0.182245 1.267568,-0.701158 0,0 -1.26227,0.646753 -1.26227,0.646753 v 0 c -0.02873,0.533332 1.518169,-0.144035 1.272994,-0.58162 -0.01446,-0.145723 -0.0016,-0.293407 -0.0036,-0.439356 0.01848,-0.526723 0.05616,-1.053241 0.136095,-1.574568 0.07125,-0.432696 0.129339,-0.872043 0.263603,-1.290738 0,0 -1.275937,0.608316 -1.275937,0.608316 z"
       id="path1887"
       style="fill:#000000;fill-opacity:1;fill-rule:nonzero;stroke:none" />
    <path
       d="m 16.960957,16.458707 c 0.224911,-0.004 0.447542,0.02975 0.662813,0.09299 0.100563,0.03443 0.19871,0.07649 0.291329,0.128756 0.01369,0.0079 0.0071,0.0027 0.01891,0.01667 0,0 1.186838,-0.802084 1.186838,-0.802084 v 0 c -9.73e-4,0.01276 0.0017,0.0087 -0.01448,8.42e-4 -0.108267,-0.04774 -0.220272,-0.0865 -0.331182,-0.127488 -0.06986,-0.02405 -0.14524,-0.05218 -0.21757,-0.06819 -0.148254,-0.03282 -0.302047,-0.04261 -0.451976,-0.06477 0,0 -1.144689,0.823273 -1.144689,0.823273 z"
       id="path1889"
       style="fill:#000000;fill-opacity:1;fill-rule:nonzero;stroke:none" />
    <path
       d="m 9.7094422,18.915892 c 0.019364,0.230791 0.012249,0.463139 0.00499,0.694361 -0.00758,0.184915 -0.031487,0.368406 -0.061627,0.550807 -0.00428,0.03973 -0.025521,0.07089 -0.010918,0.106793 0,0 1.2680938,-0.668749 1.2680938,-0.668749 v 0 c 0.02463,0.0529 0.0016,-0.04712 0.01163,-0.06727 0.0091,-0.181347 0.01844,-0.362683 0.02535,-0.544133 0.0092,-0.237427 0.008,-0.475533 0.0282,-0.712355 0,0 -1.265719,0.640546 -1.2657188,0.640546 z"
       id="path1891"
       style="fill:#000000;fill-opacity:1;fill-rule:nonzero;stroke:none" />
    <path
       d="m 9.8588106,20.785805 c 0.2908554,-0.09404 0.5955034,-0.131957 0.8973494,-0.172006 0.380732,-0.0539 0.764498,-0.07688 1.147811,-0.102747 0.32619,-0.02352 0.65186,-0.05454 0.976403,-0.09486 0.159461,-0.02104 0.317934,-0.04909 0.475833,-0.07958 0.05807,-0.01241 0.116607,-0.02337 0.174327,-0.03738 1.249169,-0.713623 1.106592,-0.252006 1.24898,-0.735404 0,0 -1.321241,0.54081 -1.321241,0.54081 v 0 c -0.479161,-0.05574 -0.02392,9.27e-4 1.189701,-0.69189 -0.05009,0.03615 -0.108947,0.05003 -0.167305,0.06847 -0.162711,0.0412 -0.327691,0.07252 -0.492249,0.10538 -0.326852,0.05371 -0.656395,0.09094 -0.986619,0.116473 -0.38768,0.02157 -0.774686,0.05057 -1.159855,0.10118 -0.286091,0.03308 -0.574145,0.05969 -0.856657,0.116629 0,0 -1.1264784,0.864933 -1.1264784,0.864933 z"
       id="path1893"
       style="fill:#000000;fill-opacity:1;fill-rule:nonzero;stroke:none" />
    <path
       d="m 13.623726,18.813363 c 0.05244,0.225673 0.07878,0.4564 0.100322,0.686762 0.0061,0.04896 0.0073,0.09817 0.0068,0.147404 0,0 1.26104,-0.658537 1.26104,-0.658537 v 0 c -0.01002,-0.04715 -0.0204,-0.09422 -0.02947,-0.141571 -0.04279,-0.228996 -0.07717,-0.460063 -0.08803,-0.693017 0,0 -1.250688,0.658959 -1.250688,0.658959 z"
       id="path1895"
       style="fill:#000000;fill-opacity:1;fill-rule:nonzero;stroke:none" />
    <path
       d="m 4.0160148,16.073407 c 0.044313,0.294537 0.1508574,0.571998 0.2651168,0.84519 0.1188114,0.293163 0.2856979,0.562119 0.4520394,0.82987 0.1243545,0.190159 0.2563544,0.375041 0.3761844,0.568136 0.065953,0.124864 0.149604,0.238011 0.2318196,0.352259 0.051696,0.07159 0.095518,0.14813 0.1323707,0.228268 0.030584,0.04474 0.012622,0.02245 0.055235,0.06577 0,0 1.19713,-0.773465 1.19713,-0.773465 v 0 c -0.010146,0.01273 -0.00438,0.01182 -0.017498,5.58e-4 C 6.6592178,18.108381 6.6135068,18.024317 6.5539618,17.949518 6.4694528,17.840327 6.3937131,17.72535 6.3160377,17.611242 6.1878723,17.423541 6.058027,17.237081 5.9265522,17.051676 5.7558604,16.796287 5.5932173,16.534576 5.4748637,16.25 5.3696009,15.99401 5.2599453,15.721718 5.2830803,15.439568 c 0,0 -1.2670655,0.633839 -1.2670655,0.633839 z"
       id="path1897"
       style="fill:#000000;fill-opacity:1;fill-rule:nonzero;stroke:none" />
    <path
       d="m 7.5440708,17.74083 c 0.2670889,-0.178879 0.5271776,-0.36784 0.7874876,-0.556355 0.1153068,-0.08562 0.2383014,-0.160664 0.3501882,-0.250873 0,0 -1.3233091,0.529424 -1.3233091,0.529424 v 0 c -0.1017064,0.07671 -0.2046579,0.151769 -0.3063714,0.228474 -0.2671566,0.197273 -0.5385748,0.388776 -0.8214594,0.563062 0,0 1.3134641,-0.513732 1.3134641,-0.513732 z"
       id="path1899"
       style="fill:#000000;fill-opacity:1;fill-rule:nonzero;stroke:none" />
    <path
       d="m 5.8512681,14.898869 c 0.1537531,-0.158256 0.3185887,-0.305422 0.4863063,-0.448639 0.4257875,-0.361071 1.2677129,-0.782524 -0.8838839,0.467961 0.00497,-0.0038 0.00994,-0.0077 0.014905,-0.01149 0,0 1.1139255,-0.890793 1.1139255,-0.890793 v 0 c -0.00775,0.0025 -0.01551,0.005 -0.023265,0.0075 -0.5893792,0.34234 -1.0614593,0.533605 -1.5150941,0.953005 -0.1698863,0.154647 -0.3400524,0.309959 -0.4974231,0.477408 0,0 1.3045288,-0.55499 1.3045288,-0.55499 z"
       id="path1901"
       style="fill:#000000;fill-opacity:1;fill-rule:nonzero;stroke:none" />
    <path
       d="m 5.4207168,10.746553 c -0.1169056,-0.04239 -0.2338505,-0.08097 -0.3574778,-0.09721 -0.053682,-0.0056 -0.1072554,-0.01059 -0.1604171,3.61e-4 -0.5012694,0.106601 0.9481095,-0.8141309 -1.1470749,0.871109 -0.01085,0.0087 0.027794,0.002 0.041717,0.0022 0.020804,2.73e-4 0.041608,-5.29e-4 0.062412,-7.94e-4 0.2475599,0.01213 0.4896776,0.07179 0.7263543,0.141955 0.1927679,0.0587 0.3801022,0.133748 0.5622436,0.219656 0.029729,0.01134 0.050981,0.02601 0.072762,0.04828 0,0 1.1676352,-0.826465 1.1676352,-0.826465 v 0 c -0.00155,0.04034 -0.04205,-0.0051 -0.065921,-0.0077 -0.1987597,-0.06953 -0.3960089,-0.143277 -0.5951765,-0.211656 -0.235848,-0.07686 -0.4766321,-0.134941 -0.7196777,-0.184377 -0.00918,-0.0016 -0.080251,-0.01732 -0.089604,-0.01051 -1.1086501,0.808193 -1.5052658,1.187858 -1.1356436,0.845521 0.040981,-0.03001 0.078546,-0.05706 0.1318746,-0.05926 0.1153573,-0.0076 0.2244253,0.0051 0.3278212,0.06158 0,0 1.1781727,-0.792692 1.1781727,-0.792692 z"
       id="path1903"
       style="fill:#000000;fill-opacity:1;fill-rule:nonzero;stroke:none" />
    <path
       d="M 4.736906,10.424269 C 4.8822426,10.09989 5.0245188,9.7740584 5.1728997,9.4510142 5.3246358,9.122668 5.474057,8.7932996 5.6431046,8.4734123 5.7344685,8.3066059 5.8314589,8.142982 5.9268702,7.9784804 5.9978453,7.8634573 6.0653696,7.7460967 6.1410877,7.634082 6.2160117,7.5295639 6.2631233,7.4090729 6.3146457,7.2920675 6.347661,7.2463781 6.3728765,7.1113313 6.4271131,7.0848832 c 0.00627,-0.00306 0.013815,0.00196 0.020722,0.00294 0,0 -1.3191737,0.5479345 -1.3191737,0.5479345 v 0 C 5.124169,7.7213239 5.0641895,7.7961926 5.0359828,7.8747825 4.9797471,7.9890631 4.9200859,8.10053 4.8465384,8.2048659 4.7801833,8.3196834 4.7101808,8.4323525 4.6467854,8.5488631 4.5548164,8.7111477 4.4591937,8.8715415 4.3844506,9.0428961 4.2329613,9.364716 4.0931538,9.6917798 3.9406701,10.013137 c -0.1554753,0.335026 -0.3020383,0.674727 -0.4842656,0.99653 0,0 1.2805015,-0.585398 1.2805015,-0.585398 z"
       id="path1905"
       style="fill:#000000;fill-opacity:1;fill-rule:nonzero;stroke:none" />
    <path
       d="m 5.6606779,8.0775226 c 0.2723387,0.048544 0.5363063,0.1369996 0.8001103,0.21888 0.196998,0.059286 0.3889537,0.1328219 0.5774387,0.2148823 0.030859,0.014284 0.062482,0.027168 0.09247,0.043281 0,0 1.187619,-0.8001755 1.187619,-0.8001755 v 0 c -0.036751,-0.0088 -0.072638,-0.0209 -0.108829,-0.031668 C 8.0043503,7.657388 7.8031351,7.5801623 7.5953522,7.5230897 7.3359484,7.4428217 7.0783328,7.3571515 6.8205153,7.2719622 c 0,0 -1.1598374,0.8055604 -1.1598374,0.8055604 z"
       id="path1907"
       style="fill:#000000;fill-opacity:1;fill-rule:nonzero;stroke:none" />
    <circle
       r="0.047768719"
       cy="9.1032114"
       cx="22.911285"
       style="fill:#000000;stroke:#000000"
       id="path1909" />
  </g>
</svg>
