<?xml version="1.0" encoding="UTF-8" standalone="no"?>
<svg
   xmlns:dc="http://purl.org/dc/elements/1.1/"
   xmlns:cc="http://creativecommons.org/ns#"
   xmlns:rdf="http://www.w3.org/1999/02/22-rdf-syntax-ns#"
   xmlns:svg="http://www.w3.org/2000/svg"
   xmlns="http://www.w3.org/2000/svg"
   xmlns:sodipodi="http://sodipodi.sourceforge.net/DTD/sodipodi-0.dtd"
   xmlns:inkscape="http://www.inkscape.org/namespaces/inkscape"
   inkscape:version="1.0 (6e3e5246a0, 2020-05-07)"
   sodipodi:docname="expense.svg"
   id="svg62"
   version="1.1"
   width="24"
   viewBox="0 0 24 24"
   height="24">
  <metadata
     id="metadata68">
    <rdf:RDF>
      <cc:Work
         rdf:about="">
        <dc:format>image/svg+xml</dc:format>
        <dc:type
           rdf:resource="http://purl.org/dc/dcmitype/StillImage" />
        <dc:title></dc:title>
      </cc:Work>
    </rdf:RDF>
  </metadata>
  <defs
     id="defs66" />
  <sodipodi:namedview
     inkscape:current-layer="layer6"
     inkscape:window-maximized="1"
     inkscape:window-y="27"
     inkscape:window-x="53"
     inkscape:cy="11.061074"
     inkscape:cx="9.6369184"
     inkscape:zoom="19.51905"
     showgrid="false"
     id="namedview64"
     inkscape:window-height="713"
     inkscape:window-width="1313"
     inkscape:pageshadow="2"
     inkscape:pageopacity="0"
     guidetolerance="10"
     gridtolerance="10"
     objecttolerance="10"
     borderopacity="1"
     bordercolor="#666666"
     pagecolor="#ffffff" />
  <path
     id="path58"
     fill="none"
     d="M0 0h24v24H0z" />
  <g
     inkscape:label="Layer 6"
     id="layer6"
     inkscape:groupmode="layer">
    <path
       d="M 2.4778119,5.790141 C 2.9089074,5.758213 3.3410008,5.741158 3.772877,5.72356 4.4577899,5.700353 5.1426969,5.678606 5.8275444,5.653305 6.6202367,5.628535 7.4127394,5.598508 8.205459,5.574569 8.9842773,5.548331 9.7634824,5.537682 10.54243,5.516815 11.350281,5.486068 12.158315,5.462956 12.966569,5.446134 13.613163,5.42672 14.259912,5.417293 14.90671,5.408199 c 0.52446,-0.016275 1.049015,-0.018745 1.573671,-0.019707 0.507145,-0.00564 1.01414,-0.00197 1.521191,0.00779 0.354103,-0.00403 0.706905,0.00893 1.059161,0.044439 0.205098,0.024192 0.409863,0.049301 0.615958,0.06318 0.105873,0.0076 0.211742,0.016162 0.317127,0.028997 0.0096,2.346e-4 0.01898,0.00245 0.02717,0.00598 0,0 1.161794,-0.8410543 1.161794,-0.8410543 v 0 c -0.0064,0.00238 -0.02124,0.00448 -0.03054,0.00308 -0.113699,3.547e-4 -0.227385,-0.0038 -0.340896,-0.010089 -0.208873,-0.013279 -0.41728,-0.031571 -0.62551,-0.052635 -0.362264,-0.027046 -0.725276,-0.043278 -1.088653,-0.036775 -0.512866,0.00277 -1.025742,0.00565 -1.538616,0.00406 -0.525245,-0.00296 -1.050641,7.618e-4 -1.575665,0.016871 -0.658396,0.022329 -1.316721,0.04618 -1.975282,0.063281 -0.809712,0.025358 -1.619422,0.050874 -2.429172,0.074988 -0.779754,0.013574 -1.559357,0.033834 -2.3388582,0.05788 -0.7914887,0.023635 -1.5828109,0.051942 -2.3742742,0.076147 -0.6758532,0.014894 -1.3516256,0.031026 -2.0273864,0.04967 -0.4061682,0.010593 -0.8125972,0.019669 -1.2188977,0.011794 0,0 -1.1412166,0.8340523 -1.1412166,0.8340523 z"
       id="path1783"
       style="fill:#000000;fill-opacity:1;fill-rule:nonzero;stroke:none" />
    <path
       d="m 3.2732538,16.998167 c 0.4027586,0.01021 0.8058387,0.0037 1.2087133,0.0032 0.7333238,-0.0049 1.466659,-9.87e-4 2.1999762,-0.0074 0.8072774,-0.005 1.6145335,-0.01195 2.421826,-0.01345 0.6810365,-0.0025 1.3619137,0.01557 2.0429277,0.0116 0.701408,-0.01735 1.403038,-0.0203 2.104586,-0.02809 0.64747,-6.22e-4 1.294923,-0.0052 1.942391,-0.0063 0.56641,0.002 1.132718,-0.0085 1.699113,-0.01112 0.39932,0.0021 0.798631,0.0013 1.197891,-0.0062 0.299926,-0.0038 0.599524,-0.01815 0.899415,-0.02309 0.247812,-0.0064 0.495589,-0.0095 0.743466,-0.01094 0.141852,-0.0015 0.283751,-0.0034 0.425585,1.6e-4 0.534853,0.02017 0.03852,0.0286 1.20439,-0.829543 0,0 -1.170681,0.805907 -1.170681,0.805907 v 0 c 1.432408,-0.974935 1.661365,-0.834245 1.112789,-0.81109 -0.148643,0.0062 -0.297404,0.0089 -0.446109,0.01324 -0.251379,0.008 -0.502783,0.0097 -0.75415,0.01761 -0.303691,0.01042 -0.607499,0.01615 -0.911004,0.03183 -0.409194,0.01188 -0.818542,0.01813 -1.227735,0.03023 -0.569396,0.0091 -1.13888,0.0079 -1.708259,0.01853 -0.652666,0.0062 -1.30534,0.0096 -1.95799,0.0175 -0.698196,0.0011 -1.396224,0.01534 -2.094394,0.02017 -0.687573,0.009 -1.375016,-0.0072 -2.062587,0.0032 -0.8084601,0.0087 -1.6169488,0.01356 -2.4254508,0.01664 -0.7219094,-0.0023 -1.4438881,-0.0017 -2.1656947,-0.01579 -0.3749694,-0.0066 -0.7511787,-0.0096 -1.1244378,-0.04938 0,0 -1.1545769,0.82252 -1.1545769,0.82252 z"
       id="path1785"
       style="fill:#000000;fill-opacity:1;fill-rule:nonzero;stroke:none" />
    <path
       d="m 1.9257158,5.9263338 c -0.065193,0.3346978 -0.072682,0.6780742 -0.074357,1.0180978 0.030933,0.6005915 0.026695,1.2020253 0.054292,1.8027119 0.027061,0.6502201 0.052495,1.3005615 0.069946,1.9511195 9.517e-4,0.633447 0.033651,1.266047 0.054879,1.898958 0.01978,0.52455 0.039474,1.049127 0.067773,1.573297 0.021666,0.483152 0.034084,0.966491 0.035021,1.450114 -6.292e-4,0.322391 0.018218,0.644425 0.036552,0.966176 0.01041,0.161699 0.00755,0.323848 0.014721,0.485637 -10e-4,0.03533 0.00761,0.07369 -0.00419,0.108138 -0.3433805,-0.04279 -0.7260376,0.383353 1.2567851,-0.678433 0,0 -1.2501921,0.686388 -1.2501921,0.686388 v 0 c 0.4255747,-0.211878 0.8511493,-0.423756 1.2767239,-0.635633 -0.00224,-0.0058 -0.00438,-0.01156 -0.00515,-0.01778 -0.00592,-0.03831 -0.010543,-0.07683 -0.015395,-0.115282 C 3.4276115,16.264036 3.4027053,16.109184 3.3960621,15.952546 3.3754162,15.636415 3.3500693,15.320561 3.3373038,15.003955 3.317768,14.521394 3.3096186,14.03856 3.2901966,13.556001 3.2684812,13.03505 3.2189302,12.51583 3.2024678,11.994636 3.1773294,11.363968 3.1430619,10.733557 3.1378235,10.10225 3.1212313,9.4500641 3.0999183,8.7979979 3.0734531,8.1461348 3.0521209,7.5417122 3.0371039,6.9372094 3.057397,6.3324304 3.0668407,5.9984658 3.070461,5.6464307 3.2116951,5.3371848 c 0,0 -1.2859793,0.589149 -1.2859793,0.589149 z"
       id="path1787"
       style="fill:#000000;fill-opacity:1;fill-rule:nonzero;stroke:none" />
    <path
       d="m 21.379736,5.6013386 c -0.08272,0.2769807 -0.09431,0.5622184 -0.100766,0.8489488 0.0084,0.6417486 0.01083,1.2832056 -0.0014,1.9249527 7.66e-4,0.477801 -0.02169,0.9555635 -0.01948,1.4333591 0.0013,0.2766258 0.01131,0.4654188 0.02238,0.7423488 0.04246,0.737859 0.08168,1.475889 0.116314,2.214158 0.03282,0.554678 0.0064,1.10969 -0.0043,1.664441 -0.0044,0.402514 0.0018,0.804819 0.02441,1.206695 0.01175,0.20671 0.02287,0.413597 0.02606,0.620651 0.0012,0.0444 -0.0015,0.08873 -0.0075,0.132701 -0.0056,-0.0062 0.0016,0.0187 -0.003,0.01588 -0.0054,-0.0033 -0.008,-0.0098 -0.01199,-0.01468 -0.0032,-0.0039 -0.01421,-0.0092 -0.0098,-0.01171 0.409362,-0.23356 0.82364,-0.458396 1.235459,-0.687594 0,0 -1.188404,0.7914 -1.188404,0.7914 v 0 c 3.272631,-1.739711 1.278135,-0.173665 1.254438,-0.736038 -0.0016,-0.04734 -0.0049,-0.09436 -0.01334,-0.141081 -0.02556,-0.198687 -0.05422,-0.397118 -0.06861,-0.597039 -0.02597,-0.396606 -0.04224,-0.793703 -0.03414,-1.19127 -0.0023,-0.5502 -0.01023,-1.100754 -0.04183,-1.650134 -0.04641,-0.735191 -0.09247,-1.470451 -0.125811,-2.2063761 -0.02194,-0.7246994 -0.0094,-1.4497665 0.0099,-2.1744496 0.01149,-0.6471646 0.0055,-1.2951423 0.04624,-1.9413602 0.02766,-0.2820588 0.05355,-0.5760166 0.185133,-0.832228 0,0 -1.289959,0.5884195 -1.289959,0.5884195 z"
       id="path1801"
       style="fill:#000000;fill-opacity:1;fill-rule:nonzero;stroke:none" />
    <path
       d="M 14.103868,6.9402685 C 13.847053,6.7953033 13.563156,6.7406294 13.274222,6.7039307 12.837322,6.6562078 12.409423,6.7477594 11.989718,6.8587475 11.542642,6.9966497 11.111036,7.1798133 10.679026,7.3582949 10.081899,7.6104221 9.5412128,7.9672857 8.9855913,8.3023762 8.923384,8.3398929 8.8693506,8.3895439 8.8117784,8.4338463 8.6718235,8.5415428 8.5700538,8.6236314 8.4314907,8.734054 8.1591223,8.9698607 7.8438624,9.199187 7.6828036,9.5334011 c -0.022975,0.047676 -0.035651,0.099662 -0.053476,0.1494929 -0.00168,0.051152 -0.010722,0.102592 -0.00505,0.1534566 0.036763,0.3296914 0.3405647,0.4637194 0.6071094,0.5771674 0.535154,0.191376 1.0979571,0.283046 1.6588789,0.360227 0.5864081,0.06141 1.1743671,0.102274 1.7597591,0.173859 0.483572,0.06838 0.962571,0.16956 1.429342,0.313253 0.365446,0.122897 0.688135,0.270718 0.987996,0.514872 0.234482,0.212921 0.335583,0.466495 0.39018,0.771028 0.03597,0.31347 -0.04762,0.58293 -0.19382,0.855388 -0.02927,0.0439 -0.05596,0.08963 -0.0878,0.131702 -0.0682,0.09011 -0.142927,0.169688 -0.234703,0.236531 -0.05248,0.03822 -0.221751,0.135137 -0.165706,0.102363 1.070337,-0.625912 1.290408,-0.713712 0.740974,-0.469461 -0.595584,0.234884 -1.216319,0.303385 -1.850509,0.331682 -0.606844,0.001 -1.218425,-0.047 -1.809668,-0.190071 -0.110993,-0.02686 -0.220187,-0.06067 -0.33028,-0.091 -0.430628,-0.128623 -0.8387975,-0.317464 -1.2157804,-0.560993 -0.018565,-0.01301 -0.1068676,-0.07354 -0.131132,-0.0948 -0.00435,-0.0038 -0.012925,-0.01916 -0.00936,-0.01461 0.023689,0.0302 0.046503,0.06107 0.069754,0.09161 0,0 -1.3224314,0.536715 -1.3224314,0.536715 v 0 c 0.013678,0.03883 0.021793,0.0801 0.041033,0.116492 0.027799,0.05259 0.1545746,0.0774 0.1920281,0.116928 0.4165143,0.221867 0.8475064,0.414309 1.3024884,0.544389 0.1123067,0.03227 0.2235572,0.06848 0.3369203,0.09682 0.597295,0.149314 1.215961,0.196457 1.829347,0.214961 0.62242,-0.01646 1.249577,-0.06217 1.842698,-0.267079 0.688214,-0.259204 0.289156,-0.09552 1.576759,-0.85787 0.21244,-0.125779 0.360784,-0.329246 0.477288,-0.541182 0.02269,-0.04934 0.04815,-0.09749 0.06806,-0.148013 0.09868,-0.250461 0.117947,-0.523838 0.08844,-0.789295 -0.06849,-0.323667 -0.193573,-0.622701 -0.443726,-0.849927 -0.04503,-0.03684 -0.08817,-0.07614 -0.135097,-0.110533 C 14.822963,10.739377 14.506482,10.614621 14.194105,10.500655 13.716902,10.354361 13.227879,10.25209 12.734149,10.17916 12.145556,10.11272 11.555294,10.065376 10.965271,10.014171 10.420827,9.944634 9.8763036,9.8501993 9.358407,9.662681 9.1689094,9.5801755 8.8637371,9.4747512 8.8617527,9.2193795 8.8614514,9.1805996 8.8740494,9.1427983 8.8801977,9.1045077 8.8987771,9.0635404 8.9138019,9.020767 8.9359359,8.9816057 9.1101998,8.6732824 9.4097583,8.4593372 9.6747157,8.2362372 9.8088753,8.1318049 9.9282537,8.0366077 10.066573,7.9378628 10.12785,7.8941177 10.319343,7.7746775 10.253174,7.8105952 8.3408571,8.8486208 9.1946211,8.4001223 9.6222508,8.1921783 10.049116,8.0103233 10.478758,7.8329231 10.917985,7.6829433 11.322873,7.5636684 11.736733,7.4577353 12.16288,7.49159 c 0.261642,0.028381 0.530015,0.065679 0.752666,0.2175846 0,0 1.188322,-0.7689061 1.188322,-0.7689061 z"
       id="path1803"
       style="fill:#000000;fill-opacity:1;fill-rule:nonzero;stroke:none" />
    <path
       d="m 10.551826,6.9575381 c -0.0076,0.3566103 -0.0052,0.7131682 -0.0038,1.0698281 -0.0017,0.6208186 0.0065,1.2415909 0.01029,1.8623983 0.01004,0.7345775 -0.0015,1.4692025 0.0051,2.2037755 0.0044,0.571098 0.01891,1.14204 0.02819,1.71306 0.003,0.362177 0.01086,0.72426 0.02168,1.086279 0.0051,0.218821 0.02257,0.436968 0.04211,0.654873 0.006,0.06656 0.01085,0.133221 0.01456,0.199948 0.04588,0.49145 1.128279,-0.23703 1.252008,-0.702829 0,0 -1.258207,0.662631 -1.258207,0.662631 v 0 c 0.117756,0.518556 1.347524,-0.211052 1.271418,-0.627822 -0.01551,-0.06066 -0.02526,-0.12265 -0.03539,-0.184364 -0.03058,-0.209304 -0.05086,-0.420161 -0.06438,-0.63122 -0.01759,-0.357192 -0.02733,-0.714729 -0.04724,-1.071821 -0.02571,-0.563005 -0.05679,-1.125879 -0.06814,-1.689419 -0.0073,-0.734259 -0.0135,-1.468495 -0.0042,-2.2027774 0.0043,-0.6258637 0.01154,-1.251682 0.02338,-1.8774454 0.01185,-0.3650251 0.022,-0.7323183 0.07697,-1.0938629 0,0 -1.26426,0.6287678 -1.26426,0.6287678 z"
       id="path1811"
       style="fill:#000000;fill-opacity:1;fill-rule:nonzero;stroke:none" />
  </g>
</svg>
