<?xml version="1.0" encoding="UTF-8" standalone="no"?>
<svg
   xmlns:dc="http://purl.org/dc/elements/1.1/"
   xmlns:cc="http://creativecommons.org/ns#"
   xmlns:rdf="http://www.w3.org/1999/02/22-rdf-syntax-ns#"
   xmlns:svg="http://www.w3.org/2000/svg"
   xmlns="http://www.w3.org/2000/svg"
   id="svg62"
   version="1.1"
   width="24"
   viewBox="0 0 24 24"
   height="24">
  <metadata
     id="metadata68">
    <rdf:RDF>
      <cc:Work
         rdf:about="">
        <dc:format>image/svg+xml</dc:format>
        <dc:type
           rdf:resource="http://purl.org/dc/dcmitype/StillImage" />
        <dc:title></dc:title>
      </cc:Work>
    </rdf:RDF>
  </metadata>
  <defs
     id="defs66" />
  <path
     id="path58"
     fill="none"
     d="M0 0h24v24H0z" />
  <g
     id="layer5">
    <path
       d="m 5.6612789,10.533491 c 0.00108,0.239359 0.00186,0.478725 0.00519,0.718085 0.00791,0.452637 -1.809e-4,0.905256 0.00726,1.357917 0.00542,0.452411 -0.013801,0.904554 -0.016322,1.356895 -0.00622,0.361452 -0.00742,0.722882 -0.00128,1.084334 -5.947e-4,0.417487 -0.0046,0.83494 -0.00212,1.252449 -0.00534,0.386465 -0.014519,0.772772 -0.017761,1.159261 -0.00871,0.30993 -0.00703,0.619947 -0.010284,0.929941 -0.00269,0.277042 -0.00862,0.554043 -0.011359,0.831084 -9.142e-4,0.212765 -0.0104,0.425348 -0.014526,0.638041 4.939e-4,0.125055 -0.00308,0.250006 -0.00954,0.374877 -0.00125,0.02644 -0.00267,0.0529 -0.0053,0.07924 0.037062,0.394123 -0.7869885,0.428959 1.0762262,-0.574579 0,0 -1.0707107,0.538498 -1.0707107,0.538498 v 0 c 0.3582144,-0.169939 0.7164287,-0.339878 1.0746431,-0.509817 2.979e-4,6.1e-5 0.00157,0.0039 5.818e-4,1.18e-4 -0.0029,-0.02436 -0.00411,-0.04888 -0.00538,-0.07337 -0.00646,-0.121741 -0.00925,-0.243588 -0.00717,-0.365507 -7.569e-4,-0.210244 -0.00431,-0.420486 -6.5e-6,-0.630729 0.00164,-0.275438 -0.00163,-0.550898 0.00172,-0.826337 0.00111,-0.30885 0.00804,-0.617645 0.00293,-0.926509 5.229e-4,-0.383571 -0.00104,-0.767132 0.00115,-1.1507 0.00779,-0.418618 0.00511,-0.837215 0.00821,-1.255854 0.00869,-0.362298 0.00882,-0.724643 0.00669,-1.087026 0.00108,-0.448263 -0.017586,-0.896422 -0.00794,-1.344714 0.010607,-0.457154 0.00444,-0.914511 0.021529,-1.371509 0.00863,-0.244791 0.011964,-0.491276 0.04845,-0.733903 0,0 -1.0748727,0.529815 -1.0748727,0.529815 z"
       id="path1036"
       style="fill:#000000;fill-opacity:1;fill-rule:nonzero;stroke:none;stroke-width:0.842465" />
    <path
       d="m 16.182775,10.149013 c 0.0041,0.193318 7.34e-4,0.386711 4.62e-4,0.580056 -1.11e-4,0.290729 0.0036,0.581422 0.01178,0.872051 0.0088,0.37024 0.0095,0.740594 0.0181,1.110828 0.0054,0.347718 0.0049,0.695484 0.0091,1.043217 0.0052,0.311951 2.68e-4,0.623922 0.0056,0.93587 10e-4,0.316855 0.0064,0.633641 0.0099,0.950463 0.0024,0.339928 0.0058,0.679806 0.0051,1.019747 2.64e-4,0.288297 -0.0026,0.576594 -0.0025,0.86489 -0.0017,0.250312 -5.72e-4,0.500627 -0.0041,0.750923 -0.0041,0.207193 1.31e-4,0.41436 -0.0022,0.621577 -0.0017,0.169306 -0.0014,0.338589 -0.0055,0.507867 -0.0034,0.114446 -0.0014,0.228946 -0.0021,0.343417 3.68e-4,0.10478 -6.84e-4,0.209537 -0.0014,0.314312 7.45e-4,0.07602 -0.0024,0.151984 -0.0031,0.22799 -5.81e-4,0.03397 -0.0014,0.06797 -0.0037,0.101878 -1.62e-4,0.0041 -7.62e-4,0.0083 -0.0012,0.01238 0,0 1.081811,-0.545944 1.081811,-0.545944 v 0 c -4.71e-4,-0.0037 -0.0011,-0.0074 -0.0012,-0.01113 -0.0025,-0.03263 -0.0031,-0.06537 -0.0037,-0.09808 -7.97e-4,-0.07495 -0.0039,-0.149845 -0.0031,-0.224811 -6.87e-4,-0.104314 -0.0018,-0.208611 -0.0014,-0.31293 -8.12e-4,-0.113748 0.0013,-0.227527 -0.0021,-0.341251 -0.0041,-0.167422 -0.0038,-0.334851 -0.0055,-0.502303 -0.0024,-0.206483 0.0019,-0.412916 -0.0021,-0.619376 -0.0036,-0.248939 -0.0022,-0.497896 -0.0041,-0.746851 -9.3e-5,-0.287086 -0.0034,-0.574181 -0.0061,-0.861249 -0.0046,-0.339047 -0.008,-0.678095 -0.0097,-1.017167 0.0011,-0.317931 0.0017,-0.635769 -0.0041,-0.953679 0.0015,-0.311663 -0.0058,-0.623175 -0.0092,-0.934805 -0.0041,-0.346521 -0.0096,-0.693004 -0.01777,-1.039456 -0.0038,-0.371133 -0.01127,-0.742234 -0.0113,-1.113408 0.0024,-0.292949 2.59e-4,-0.585965 0.0071,-0.878853 0.0042,-0.196452 0.0055,-0.3937638 0.03136,-0.5888844 0,0 -1.072881,0.5327264 -1.072881,0.5327264 z"
       id="path1038"
       style="fill:#000000;fill-opacity:1;fill-rule:nonzero;stroke:none;stroke-width:0.842465" />
    <path
       d="m 5.9114147,10.081127 c 0.1607135,-0.04052 0.3281979,-0.04301 0.4930389,-0.04942 0.2656312,-0.01134 0.5315756,-0.01063 0.7973935,-0.01193 0.2853342,-0.0015 0.5706727,-8.3e-4 0.8560105,-0.0014 0.3448721,-0.0021 0.689747,-0.0037 1.0346261,-0.0046 0.3907153,-0.004 0.7814322,3.12e-4 1.1721573,-4.83e-4 0.358671,2.29e-4 0.717203,-0.0093 1.075728,-0.018152 0.28411,-0.00905 0.568301,-0.00452 0.8523,0.00527 0.23649,0.01071 0.473133,0.01513 0.709813,0.01874 0.235996,0.0032 0.472002,0.0052 0.707984,0.0094 0.256384,0.0054 0.512863,0.0044 0.769294,0.0058 0.247329,0.0034 0.494592,0.002 0.7419,-0.0017 0.216338,-0.0036 0.432672,-0.0053 0.649017,-0.002 0.157417,-8.3e-4 0.313694,0.01744 0.470023,0.03295 0.160704,0.01552 0.322017,0.02119 0.483367,0.02437 0.16078,0.0052 0.321565,0.01035 0.482316,0.01641 0.06583,0.0025 0.13171,0.004 0.197501,0.0075 -0.0041,-0.0089 0.01729,0.0066 0.01661,0.0012 -0.003,-0.02383 -0.02563,-0.04076 -0.03854,-0.06107 0.33336,-0.2144328 0.666721,-0.4288652 1.000081,-0.6432976 0,0 -0.972072,0.7094886 -0.972072,0.7094886 v 0 c 0.345178,-0.2152243 0.701334,-0.4140764 1.035536,-0.6456727 3.1e-5,-2.18e-5 -0.02965,-0.054808 -0.04496,-0.065071 -0.0052,-0.00355 -0.01438,0.00708 -0.01911,0.0012 -0.0703,0.00322 -0.140671,0.00382 -0.211029,0.00439 -0.163288,8.552e-4 -0.326581,-0.00181 -0.489731,-0.00879 -0.157656,-0.00689 -0.315661,-0.0081 -0.472892,-0.02257 -0.160894,-0.014669 -0.32171,-0.033736 -0.483464,-0.035423 -0.219902,-0.00203 -0.439783,6.695e-4 -0.659638,0.00548 -0.2475,0.00441 -0.495021,0.00761 -0.742566,0.00481 -0.255782,2.796e-4 -0.511533,-0.00203 -0.767292,-0.00511 -0.235239,-0.0038 -0.470365,-0.013623 -0.705679,-0.011857 -0.237136,-0.0017 -0.474237,-0.00692 -0.711241,-0.014984 -0.289367,-0.00751 -0.578954,-0.012259 -0.868338,-0.0022 -0.360349,0.011978 -0.720716,0.027041 -1.081347,0.025992 -0.390506,9.81e-4 -0.781026,0.00399 -1.171523,3.522e-4 -0.3405191,-9.894e-4 -0.6810336,-0.00257 -1.0215448,-0.00478 -0.2846087,-6.05e-4 -0.5692141,-1.067e-4 -0.8538222,-6.009e-4 -0.2624603,1.121e-4 -0.5249117,0.0026 -0.7873727,0.00151 -0.1616714,0.00169 -0.3234071,0.00587 -0.4847251,0.016912 0,0 -0.957814,0.7193614 -0.957814,0.7193614 z"
       id="path1040"
       style="fill:#000000;fill-opacity:1;fill-rule:nonzero;stroke:none;stroke-width:0.842465" />
    <path
       d="m 5.2812737,21.08481 c 0.1726112,-0.03946 0.3512916,-0.04378 0.5276476,-0.05063 0.1885485,-0.0076 0.377209,-0.0016 0.5658083,-0.0012 0.2320231,0.0029 0.4640463,0.0037 0.6960813,0.0047 0.3256366,0.0027 0.6512846,0.0015 0.9769284,0.0018 0.3726653,-0.0023 0.7452534,0.0069 1.1179027,0.0077 0.3223214,0.0012 0.6446499,0.0019 0.966964,0.0044 0.292705,0.0022 0.585368,0.006 0.878011,0.01226 0.256117,0.0041 0.512224,0.0087 0.768336,0.01319 0.190729,0.0029 0.381246,0.01176 0.572009,0.01121 0.251744,-0.0078 0.503201,-0.01686 0.755124,-0.01699 0.281099,0.0016 0.562115,0.0089 0.843099,0.01657 0.198206,0.006 0.396507,0.0079 0.59477,0.01114 0.192204,-1.18e-4 0.384272,0.0043 0.576385,0.0096 0.144814,0.0023 0.289614,0.0049 0.43445,0.0041 0.100746,-0.0012 0.201349,0.0044 0.301955,0.0088 0.04265,0.0023 0.08536,0.0032 0.128039,0.0047 0.02522,1.91e-4 0.05042,7.6e-5 0.07562,0.0011 0.02335,-0.0026 0.04595,-0.0023 0.06971,-5.45e-4 0.02061,0.0016 0.04122,0.0034 0.06175,0.0058 -0.258208,-0.422755 0.01235,-0.156685 0.968364,-0.698467 0,0 -0.981305,0.69774 -0.981305,0.69774 v 0 c 0.804051,-0.44018 1.295802,-0.272055 0.997008,-0.701103 -0.02141,7.51e-4 -0.04283,6.5e-5 -0.06423,-6.39e-4 -0.02439,-0.0013 -0.04747,-0.0064 -0.07141,-0.008 -0.02583,9.22e-4 -0.05165,10e-4 -0.07749,10e-4 -0.04425,0.0011 -0.08852,0.0012 -0.132779,0.0014 -0.105026,-2.79e-4 -0.21005,-0.0013 -0.31507,-0.0024 -0.145461,-0.0012 -0.290919,6.3e-4 -0.43638,-9.23e-4 -0.19366,-1.93e-4 -0.387235,-0.0028 -0.580854,-0.0065 -0.201124,-0.0022 -0.402229,-0.0066 -0.60338,-0.0047 -0.28423,-0.0012 -0.56838,-0.0077 -0.852583,-0.01133 -0.245508,-0.0023 -0.491136,-0.0065 -0.736579,0.0015 -0.192981,0.0034 -0.385971,-5.58e-4 -0.578951,-0.0027 -0.258381,-0.0029 -0.516784,-0.0031 -0.775147,-0.0076 -0.294983,-0.0047 -0.589954,-0.0095 -0.884992,-0.0089 -0.323661,-0.0024 -0.647291,-0.0035 -0.970965,-0.0022 -0.3741014,-0.0011 -0.748251,0.0046 -1.1223069,-0.0038 -0.3200111,-0.0048 -0.6400458,-0.0077 -0.9600445,-0.01326 -0.2279058,-0.0047 -0.4558427,-0.007 -0.6837186,-0.01296 -0.1899919,-0.0057 -0.3802023,-0.003 -0.5702585,-0.0028 -0.1727417,0.0047 -0.3452477,0.01375 -0.5178895,0.02095 0,0 -0.9596241,0.717992 -0.9596241,0.717992 z"
       id="path1042"
       style="fill:#000000;fill-opacity:1;fill-rule:nonzero;stroke:none;stroke-width:0.842465" />
    <path
       d="M 12.380302,4.8135009 C 11.745822,5.1234332 11.173562,5.4843526 10.617768,5.9019051 10.332073,6.1221986 10.06027,6.3597942 9.7904022,6.5989954 9.4119775,6.9341853 9.0280284,7.2629821 8.6389975,7.5857776 8.2021027,7.9464479 7.7478578,8.2853044 7.2892733,8.6176923 6.8475268,8.9301307 6.4054945,9.2420902 5.9675627,9.5598658 5.5994835,9.8316512 5.2457567,10.121988 4.8931912,10.413385 4.5858895,10.667738 4.280313,10.924151 3.9760825,11.182166 3.76191,11.367816 3.5394091,11.543362 3.3198462,11.722473 c -0.052477,0.04537 -0.1085694,0.08669 -0.1598172,0.133504 -0.00366,0.0057 -0.00785,0.0096 -0.012937,0.01401 -0.00114,0.0012 -0.00259,0.0021 -0.00387,0.0031 1.3635844,-0.551158 0.9694817,-0.240828 1.3892113,-0.578521 0,0 -1.3128502,0.517195 -1.3128502,0.517195 v 0 c -0.4554796,0.284187 -0.078461,0.04418 1.2507459,-0.483053 9.83e-4,-0.0011 0.00183,-0.0024 0.00299,-0.0033 0.00403,-0.0041 0.00697,-0.0077 0.012106,-0.0094 0.045333,-0.03899 0.088552,-0.08043 0.1348197,-0.118359 C 4.8256564,11.022477 5.030987,10.847258 5.2364197,10.672154 5.5387036,10.415559 5.843668,10.162158 6.147642,9.9075702 6.4957712,9.6192824 6.8470036,9.3344314 7.2116419,9.0671122 7.6453727,8.7498172 8.0866975,8.4431402 8.5227419,8.1290499 8.9805393,7.7929002 9.4347167,7.4513727 9.8718352,7.0884984 10.265593,6.7620444 10.653054,6.4283768 11.038644,6.0923206 11.320223,5.8532502 11.600681,5.6120505 11.899051,5.3938698 12.373137,5.0536336 13.456537,4.3908139 11.27404,5.7009899 c 0,0 1.106262,-0.887489 1.106262,-0.887489 z"
       id="path1044"
       style="fill:#000000;fill-opacity:1;fill-rule:nonzero;stroke:none" />
    <path
       d="m 11.581068,5.2703011 c 0.299891,0.2430017 0.58664,0.501629 0.874406,0.7587031 0.342842,0.3086423 0.671698,0.6329684 1.018326,0.9374372 0.197623,0.1735874 0.409648,0.3450026 0.612767,0.5119287 0.619665,0.507586 1.271221,0.973492 1.954289,1.3914098 0.746455,0.4325267 1.54737,0.7526513 2.338573,1.0909444 0.515045,0.2182417 1.029054,0.4428057 1.564725,0.6061997 0.27929,0.07007 0.561579,0.130035 0.847827,0.162784 0.113331,0.01475 0.227552,0.01723 0.341338,0.02512 -0.0019,-0.0031 0.07553,0.0126 0.07467,0.01056 -0.0058,-0.01359 -0.01721,-0.02401 -0.02557,-0.03618 -0.308448,-0.448701 -0.0095,-0.08771 1.149688,-0.7807313 -0.0063,0.00724 -0.01264,0.014477 -0.01896,0.021716 0,0 -1.136577,0.8559423 -1.136577,0.8559423 v 0 c 0.01363,0.0038 0.02725,0.0076 0.04088,0.01135 0.41876,-0.24875 1.503126,-0.511773 1.173628,-0.8704755 -0.02323,-0.025293 -0.07111,-0.017142 -0.09961,-0.028887 -0.120295,-0.024849 -0.241631,-0.01346 -0.36384,-0.01947 C 21.637139,9.9043728 21.349414,9.8641931 21.066319,9.7962643 20.508527,9.6626796 19.969289,9.4661783 19.436775,9.2544679 18.646345,8.934544 17.857476,8.601213 17.118145,8.1735264 16.811132,7.9887197 16.747195,7.9557373 16.449662,7.7544992 16.008986,7.4564469 15.590696,7.1266082 15.172015,6.7989187 14.617207,6.3385367 14.089114,5.8483214 13.584195,5.3335407 13.319909,5.0649947 13.040303,4.810632 12.788186,4.5308065 c 0,0 -1.207118,0.7394946 -1.207118,0.7394946 z"
       id="path1046"
       style="fill:#000000;fill-opacity:1;fill-rule:nonzero;stroke:none" />
    <path
       d="m 9.3065836,16.36048 c 0.012336,0.213436 0.016481,0.427448 0.020598,0.641216 0.0052,0.353974 0.00271,0.707986 0.00482,1.061979 -0.00264,0.327822 -7.455e-4,0.655589 0.00453,0.983368 -0.00355,0.287538 -0.00282,0.575086 -0.00519,0.862633 -0.00399,0.224017 -0.00285,0.448043 -0.013055,0.671901 -0.00381,0.05584 -0.00531,0.111994 -0.01224,0.167586 0.1142538,0.472224 1.3262864,-0.215371 1.2716544,-0.707006 0,0 -1.2640596,0.642449 -1.2640596,0.642449 v 0 c -0.071496,0.522054 1.1178336,-0.143477 1.2684776,-0.585661 -0.0075,-0.05128 -0.0079,-0.103403 -0.0118,-0.154979 -0.0096,-0.220108 -0.0066,-0.440341 -0.0082,-0.6606 5.83e-4,-0.28641 0.0031,-0.572707 -0.0052,-0.859058 0.0012,-0.326607 -0.0056,-0.653003 -0.01015,-0.979559 0.0021,-0.355629 -3.69e-4,-0.711277 0.0048,-1.066887 0.0042,-0.220767 0.0085,-0.441744 0.0206,-0.662206 0,0 -1.2655371,0.644824 -1.2655371,0.644824 z"
       id="path1048"
       style="fill:#000000;fill-opacity:1;fill-rule:nonzero;stroke:none" />
    <path
       d="m 12.39307,16.567392 c -0.06944,0.162579 -0.08797,0.339079 -0.102706,0.513405 -0.01564,0.233523 -0.01249,0.467559 -0.01349,0.701412 -0.003,0.201502 -0.0069,0.402731 9e-5,0.604171 0.01217,0.25529 0.01126,0.510847 0.0096,0.766336 0.003,0.184445 -0.0057,0.368722 -0.0085,0.553063 0.0046,0.117954 0.0053,0.235946 0.0071,0.353956 0.0056,0.113367 -1.08e-4,0.22672 -0.0013,0.340084 -3.98e-4,0.04836 -0.002,0.09673 -0.006,0.144936 -0.002,0.0142 -0.0021,0.01209 0.0052,0.02703 -0.0027,0.02086 0.0019,0.04199 0.0083,0.062 0.425992,-0.22307 0.851984,-0.44614 1.277977,-0.66921 0,0 -1.285893,0.617876 -1.285893,0.617876 v 0 c 0.422842,-0.209801 0.845684,-0.419601 1.268526,-0.629402 0.0025,-0.01738 -5.01e-4,-0.03618 -0.0033,-0.05366 0.0106,0.01414 0.0038,0.0046 0.0041,-0.0041 -0.004,-0.04627 -0.0055,-0.09275 -0.0059,-0.139179 -0.0014,-0.113087 -0.0077,-0.226107 -0.0042,-0.339246 -0.0014,-0.117656 -0.0064,-0.235257 -0.0079,-0.35292 -0.0064,-0.180653 -0.01173,-0.361286 -0.01149,-0.542091 -0.0041,-0.256798 -0.0085,-0.513602 -0.0046,-0.770438 0.0011,-0.199643 -0.0027,-0.399125 -0.0052,-0.598743 5.79e-4,-0.230493 0.0031,-0.461703 0.02616,-0.691199 0.02251,-0.163725 0.0507,-0.331489 0.152826,-0.466862 0,0 -1.299455,0.572826 -1.299455,0.572826 z"
       id="path1050"
       style="fill:#000000;fill-opacity:1;fill-rule:nonzero;stroke:none" />
    <path
       d="m 9.6931026,16.708621 c 0.2927304,-0.01196 0.5855564,-0.01901 0.8784714,-0.02457 0.44677,-0.0162 0.893756,-0.02418 1.340667,-0.03494 0.426629,-0.01081 0.853265,-0.02061 1.279995,-0.02622 0.21862,-0.0036 0.437256,-0.005 0.6559,-0.0055 0.05579,2.36e-4 0.111579,-0.0022 0.167369,-0.0015 0.01765,4.98e-4 0.01152,0.0016 0.02747,0.02248 0,0 1.118645,-0.89765 1.118645,-0.89765 v 0 c 0.01728,0.02469 0.02274,0.02085 0.0041,0.02513 -0.05935,0.01 -0.119586,0.01361 -0.179526,0.01805 -0.230993,0.01647 -0.462419,0.02575 -0.693779,0.03534 -0.42951,0.01603 -0.859207,0.0251 -1.288936,0.03308 -0.443322,0.01013 -0.886493,0.02924 -1.330023,0.02827 -0.277318,0.0041 -0.554904,0.0088 -0.832068,-0.0042 0,0 -1.1482724,0.832166 -1.1482724,0.832166 z"
       id="path1052"
       style="fill:#000000;fill-opacity:1;fill-rule:nonzero;stroke:none" />
  </g>
</svg>
