<?xml version="1.0" encoding="UTF-8" standalone="no"?>
<svg
   xmlns:dc="http://purl.org/dc/elements/1.1/"
   xmlns:cc="http://creativecommons.org/ns#"
   xmlns:rdf="http://www.w3.org/1999/02/22-rdf-syntax-ns#"
   xmlns:svg="http://www.w3.org/2000/svg"
   xmlns="http://www.w3.org/2000/svg"
   xmlns:sodipodi="http://sodipodi.sourceforge.net/DTD/sodipodi-0.dtd"
   xmlns:inkscape="http://www.inkscape.org/namespaces/inkscape"
   inkscape:version="1.0 (6e3e5246a0, 2020-05-07)"
   sodipodi:docname="investment.svg"
   id="svg62"
   version="1.1"
   width="24"
   viewBox="0 0 24 24"
   height="24">
  <metadata
     id="metadata68">
    <rdf:RDF>
      <cc:Work
         rdf:about="">
        <dc:format>image/svg+xml</dc:format>
        <dc:type
           rdf:resource="http://purl.org/dc/dcmitype/StillImage" />
        <dc:title></dc:title>
      </cc:Work>
    </rdf:RDF>
  </metadata>
  <defs
     id="defs66" />
  <sodipodi:namedview
     inkscape:current-layer="layer5"
     inkscape:window-maximized="1"
     inkscape:window-y="27"
     inkscape:window-x="53"
     inkscape:cy="11.061074"
     inkscape:cx="9.6369184"
     inkscape:zoom="19.51905"
     showgrid="false"
     id="namedview64"
     inkscape:window-height="713"
     inkscape:window-width="1313"
     inkscape:pageshadow="2"
     inkscape:pageopacity="0"
     guidetolerance="10"
     gridtolerance="10"
     objecttolerance="10"
     borderopacity="1"
     bordercolor="#666666"
     pagecolor="#ffffff" />
  <path
     id="path58"
     fill="none"
     d="M0 0h24v24H0z" />
  <g
     inkscape:label="Layer 5"
     id="layer5"
     inkscape:groupmode="layer">
    <path
       d="m 1.949849,15.257442 c 0.048987,-0.144734 0.1248333,-0.278165 0.1985964,-0.411303 0.098797,-0.190511 0.2233927,-0.364473 0.3489958,-0.537695 0.1223907,-0.175308 0.2517705,-0.345553 0.3795324,-0.516941 0.092918,-0.115849 0.1900905,-0.228085 0.2762909,-0.349147 0.08732,-0.12069 0.1730757,-0.242513 0.2611027,-0.362701 0.115526,-0.148896 0.226813,-0.30101 0.3415439,-0.450505 0.1235833,-0.170067 0.2562574,-0.333396 0.3738777,-0.507688 0.1219884,-0.188275 0.2470163,-0.374532 0.3706106,-0.561749 0.081892,-0.136324 0.1740394,-0.265925 0.2607934,-0.399036 0.04714,-0.08111 0.095653,-0.16116 0.148415,-0.238745 0.019025,-0.03063 0.039799,-0.06016 0.058663,-0.09089 0.00121,-0.02845 0.00628,0.01231 0.012507,-0.0024 0.00816,-0.01672 0.012794,-0.009 0.027565,-0.01022 0.4936187,-0.08616 -1.2248508,0.114718 -1.3206698,0.597682 0,0 1.2939017,-0.597425 1.2939017,-0.597425 v 0 c 0.2973325,-0.414764 -1.0790196,0.110592 -1.3020836,0.535269 -0.00661,0.01291 -0.00331,0.02723 -0.016312,0.03646 -0.015878,0.01006 0.010725,0.02719 -0.00445,0.02113 -0.015813,0.02762 -0.031594,0.05527 -0.048607,0.08219 -0.046985,0.07903 -0.093535,0.158355 -0.1431967,0.235742 -0.081744,0.128597 -0.1578112,0.260697 -0.2410307,0.388371 -0.1239232,0.186384 -0.245346,0.374484 -0.3731598,0.558208 -0.1256164,0.169548 -0.2519917,0.338543 -0.3805783,0.505856 -0.1134258,0.152651 -0.2321597,0.301165 -0.344669,0.454473 -0.088934,0.122686 -0.1796434,0.244061 -0.2702665,0.365501 -0.087455,0.113569 -0.1758027,0.226472 -0.2607708,0.341934 -0.1273701,0.170819 -0.2522038,0.343441 -0.3748317,0.517701 -0.1272656,0.179336 -0.24636709,0.364393 -0.35158733,0.557644 -0.0761365,0.14201 -0.14540708,0.287136 -0.20875438,0.435315 0,0 1.28857031,-0.596979 1.28857031,-0.596979 z"
       id="path1482"
       style="fill:#000000;fill-opacity:1;fill-rule:nonzero;stroke:none" />
    <path
       d="m 4.3208762,11.137355 c 0.2203787,0.127827 0.3959052,0.320123 0.5730573,0.500227 0.2533566,0.257841 0.5058834,0.516439 0.7641186,0.769421 0.1623292,0.151403 0.3187872,0.309698 0.486871,0.454813 0.1410769,0.105445 0.2951233,0.191589 0.4486303,0.277242 0.1637085,0.08769 0.3248412,0.179654 0.4830942,0.276814 0.093069,0.05878 0.1887454,0.113305 0.2852446,0.166215 0.077551,0.04259 0.1564888,0.08217 0.234982,0.122939 0.075878,0.04253 0.1470285,0.09305 0.2147747,0.147483 0.00663,0.0053 0.012979,0.01089 0.019387,0.01643 0,0 1.2098489,-0.766964 1.2098489,-0.766964 v 0 c -0.00868,-0.0056 -0.017514,-0.01095 -0.026364,-0.01628 C 8.9355973,13.037782 8.856938,12.989356 8.780524,12.937505 8.7058248,12.888545 8.6280738,12.846539 8.5498079,12.80364 8.4504254,12.753961 8.3483569,12.709649 8.2522294,12.653574 8.0891648,12.56229 7.9319593,12.460919 7.7658994,12.374921 7.619284,12.293956 7.4733284,12.210671 7.3354915,12.115342 7.1593539,11.980746 6.9906952,11.836365 6.8271559,11.686783 6.5636357,11.441997 6.3022773,11.194114 6.0639359,10.924305 5.8867021,10.733164 5.7079526,10.543382 5.5146172,10.368233 c 0,0 -1.193741,0.769122 -1.193741,0.769122 z"
       id="path1484"
       style="fill:#000000;fill-opacity:1;fill-rule:nonzero;stroke:none" />
    <path
       d="m 9.0880059,13.09691 c 0.054487,-0.09261 0.1175408,-0.178681 0.1888255,-0.25888 0.1302682,-0.142358 0.2583843,-0.286353 0.382545,-0.434107 0.2789864,-0.320804 0.5267786,-0.666009 0.7741506,-1.011171 0.312214,-0.427518 0.61296,-0.862837 0.893736,-1.311629 0.208768,-0.3433135 0.414955,-0.6882418 0.611923,-1.0384758 0.07904,-0.1545494 0.169729,-0.2996081 0.278467,-0.4346235 0.08802,-0.1124489 0.186258,-0.2165465 0.284433,-0.3201226 0.07545,-0.085053 0.155736,-0.165563 0.233283,-0.248658 0.02931,-0.01823 0.04,-0.059323 0.06842,-0.076866 0.03576,-0.03681 0.07086,-0.074422 0.107309,-0.1107653 0.04104,-0.047869 0.08188,-0.095631 0.119947,-0.1458933 0.03788,-0.042707 0.07767,-0.083318 0.112765,-0.1283733 0.01644,-0.020179 0.02802,-0.032279 0.02405,-0.058169 -0.0031,-0.021925 0.004,-0.032837 0.01627,-0.048121 0.01484,-0.015708 -0.0352,-0.080142 -0.03869,-0.085918 0,0 -1.223758,0.7449254 -1.223758,0.7449254 v 0 c -0.01179,-0.021492 -0.04033,-0.086648 -0.03931,-0.062155 -0.0034,0.015517 -6.21e-4,0.037589 -0.01728,0.045138 -0.01582,-0.010624 -0.02284,0.0115 -0.03467,0.022894 -0.03696,0.041717 -0.07425,0.083146 -0.108116,0.1275118 -0.04006,0.045794 -0.08012,0.091867 -0.12435,0.1337042 -0.03783,0.03951 -0.07521,0.079699 -0.111726,0.1203023 -0.01522,0.027327 -0.0426,0.045501 -0.06068,0.071082 -0.07302,0.081407 -0.147653,0.1613819 -0.22098,0.2425136 -0.09726,0.1070975 -0.194116,0.214733 -0.277785,0.3330773 -0.09811,0.1395952 -0.174367,0.2908575 -0.248732,0.4442106 -0.179223,0.3455884 -0.368167,0.6863276 -0.578474,1.0141476 -0.2788266,0.445224 -0.5741738,0.879215 -0.8896566,1.299455 -0.2593567,0.349086 -0.5253856,0.693635 -0.8175194,1.016242 -0.1388846,0.151037 -0.2843091,0.296344 -0.4157665,0.453977 -0.066978,0.08945 -0.1255131,0.184543 -0.1886456,0.276687 0,0 1.300027,-0.571939 1.300027,-0.571939 z"
       id="path1486"
       style="fill:#000000;fill-opacity:1;fill-rule:nonzero;stroke:none" />
    <path
       d="m 12.090055,8.036981 c 0.257725,0.2390032 0.452888,0.5348852 0.656032,0.8192647 0.22491,0.3171675 0.43918,0.6417017 0.654078,0.9656859 0.181729,0.2639464 0.355103,0.5329154 0.523266,0.8056284 0.12269,0.191713 0.250443,0.380104 0.374999,0.570615 0.07545,0.119395 0.1589,0.233428 0.239302,0.349507 0.06532,0.09219 0.123486,0.189056 0.183923,0.284412 0.01707,0.027 0.03459,0.0537 0.05197,0.0805 0.0047,0.0073 0.002,0.0031 0.008,0.01264 0,0 1.213527,-0.764372 1.213527,-0.764372 v 0 c 0.0013,0.0023 0.0025,0.0047 0.0038,0.007 1.09e-4,6.81e-4 2.17e-4,0.0014 3.26e-4,0.002 -0.02225,-0.01414 -0.03659,-0.03939 -0.05461,-0.0581 -0.06947,-0.08963 -0.12932,-0.185787 -0.191334,-0.280595 -0.08211,-0.11468 -0.167648,-0.226879 -0.248543,-0.34245 C 15.371589,10.305514 15.244247,10.118239 15.115262,9.9320466 14.936855,9.6642501 14.766071,9.3913361 14.578351,9.1298519 14.354405,8.8106478 14.139747,8.4851515 13.914291,8.1670087 13.709552,7.8775227 13.501851,7.5901529 13.296139,7.3013731 c 0,0 -1.206084,0.7356079 -1.206084,0.7356079 z"
       id="path1488"
       style="fill:#000000;fill-opacity:1;fill-rule:nonzero;stroke:none" />
    <path
       d="m 16.004879,11.021087 c 0.06165,-0.230573 0.187598,-0.438676 0.305245,-0.644257 0.191138,-0.334817 0.410391,-0.6518937 0.628714,-0.969223 0.264106,-0.3777358 0.527484,-0.7560554 0.786593,-1.1372381 0.254822,-0.3819386 0.500618,-0.7698562 0.745098,-1.1584766 0.185749,-0.3007419 0.368953,-0.6030694 0.552245,-0.9053207 0.107647,-0.1688157 0.212054,-0.3396167 0.317352,-0.5098759 0.06679,-0.09674 0.130124,-0.1957844 0.195893,-0.2932117 0.04647,-0.069489 0.08967,-0.1410735 0.134947,-0.2113971 0.04283,-0.057391 0.08452,-0.1164389 0.120114,-0.1786751 0.01734,-0.031966 0.03278,-0.064669 0.05292,-0.095016 0.02447,-0.024086 0.04006,-0.058601 0.0585,-0.087848 0.02594,-0.039123 0.0536,-0.076674 0.07689,-0.1174349 0.01491,-0.024163 0.0356,-0.045265 0.0571,-0.063906 -0.0246,-0.4888566 0.0023,-0.010311 -1.307936,0.5973735 0,0 1.292236,-0.6090174 1.292236,-0.6090174 v 0 c -1.299841,0.5777334 -1.008502,0.9515922 -1.301591,0.5724506 -0.01498,0.026172 -0.03003,0.052288 -0.04517,0.078321 -0.02602,0.03748 -0.05061,0.075756 -0.07457,0.1146183 -0.02108,0.031923 -0.04657,0.062623 -0.06139,0.097821 -0.01494,0.030998 -0.03134,0.061008 -0.05114,0.089249 -0.03831,0.057892 -0.07717,0.1154158 -0.114835,0.1737086 -0.04323,0.068809 -0.08574,0.1380387 -0.129628,0.2064318 -0.06377,0.098873 -0.133692,0.193922 -0.189511,0.2977063 -0.0945,0.1660425 -0.191765,0.3305209 -0.287557,0.4958211 -0.178661,0.2993824 -0.351108,0.6025201 -0.538419,0.8966731 -0.238571,0.3843135 -0.467979,0.7746309 -0.728411,1.1449095 -0.265201,0.3835514 -0.53484,0.7638384 -0.80387,1.144659 -0.22069,0.3219757 -0.439968,0.6457557 -0.634595,0.9843587 -0.127173,0.224517 -0.262283,0.447785 -0.33401,0.69769 0,0 1.278806,-0.610894 1.278806,-0.610894 z"
       id="path1490"
       style="fill:#000000;fill-opacity:1;fill-rule:nonzero;stroke:none" />
    <path
       d="m 15.968056,4.9654845 c 0.355326,-0.03173 0.706411,-0.1031466 1.055581,-0.1744249 0.600267,-0.1384578 1.198821,-0.2833818 1.798344,-0.4248619 0.530621,-0.1276821 1.065071,-0.2390947 1.595533,-0.3673647 0.177766,-0.04391 0.352779,-0.098176 0.520845,-0.1709519 0.09092,-0.044303 0.184492,-0.082502 0.27959,-0.1167673 0.04417,-0.00782 -0.03947,-0.099092 -0.06125,-0.115853 -0.0068,0.023949 -0.0048,0.00871 0.0038,0.045966 0,0 1.278331,-0.63782 1.278331,-0.63782 v 0 c 0.01447,0.0033 0.0087,0.00545 0.01586,-0.00972 -0.009,-0.051283 -0.05054,-0.1822623 -0.114878,-0.1589037 -0.10027,0.036619 -0.200601,0.073591 -0.298389,0.1164323 -0.173367,0.085007 -0.350712,0.1615032 -0.537074,0.2139677 -0.548442,0.158397 -1.103668,0.2922133 -1.65952,0.4217674 -0.583277,0.1319643 -1.169643,0.2497849 -1.750463,0.3927996 -0.324751,0.066061 -0.651816,0.1281547 -0.982881,0.1513677 0,0 -1.143428,0.8343661 -1.143428,0.8343661 z"
       id="path1492"
       style="fill:#000000;fill-opacity:1;fill-rule:nonzero;stroke:none" />
    <path
       d="m 21.371932,3.770681 c -0.01978,0.3282802 -0.04232,0.6555481 -0.04747,0.9845557 -0.01041,0.4748738 0.02929,0.9481533 0.106615,1.4162836 0.09604,0.4386746 0.237801,0.8655203 0.403198,1.2824608 0.112569,0.2740438 0.227354,0.547275 0.347118,0.8182654 0.05591,0.1218012 0.107275,0.2455775 0.160923,0.3683637 0.01322,0.039339 0.03846,0.07256 0.05527,0.110098 0.190445,0.4769238 -0.543979,0.3152834 1.30242,-0.6106645 0,0 -1.310291,0.5684473 -1.310291,0.5684473 v 0 c 1.027124,-0.5014122 1.4847,-0.2057788 1.249602,-0.6631185 -0.01908,-0.036829 -0.04156,-0.070769 -0.06288,-0.1062953 C 23.512491,7.8230215 23.453066,7.7045162 23.393581,7.58614 23.263545,7.3238166 23.133459,7.0613644 23.020352,6.7911246 22.853738,6.3859421 22.700586,5.973544 22.617972,5.5417587 22.539565,5.07953 22.513798,4.6131364 22.53151,4.1443769 c 0.01316,-0.3347834 0.03883,-0.6704663 0.111687,-0.9982992 0,0 -1.271265,0.6246033 -1.271265,0.6246033 z"
       id="path1494"
       style="fill:#000000;fill-opacity:1;fill-rule:nonzero;stroke:none" />
    <path
       d="m 19.798245,6.2933265 c -0.141301,0.2123287 -0.27083,0.4319074 -0.399362,0.6520937 -0.176245,0.3126576 -0.361443,0.6201355 -0.5478,0.9268345 -0.169033,0.279668 -0.354587,0.5488713 -0.546934,0.812887 -0.164714,0.223518 -0.336158,0.441909 -0.506767,0.6609115 -0.167001,0.2151192 -0.336171,0.4285615 -0.499038,0.6468419 -0.184525,0.2570399 -0.369197,0.5138909 -0.547637,0.7752039 -0.141319,0.199351 -0.271164,0.40633 -0.404332,0.611092 -0.07868,0.122909 -0.157458,0.245736 -0.236586,0.368387 -0.06755,0.09807 -0.132236,0.198022 -0.198414,0.297011 -0.05597,0.08227 -0.109811,0.165937 -0.166892,0.247456 -0.03041,0.04816 -0.05592,0.09938 -0.08321,0.149431 -0.03227,0.05774 -0.01919,0.03513 0.03238,0.124126 0.02381,0.01389 0.04761,0.02778 0.07142,0.04168 0,0 1.13766,-0.852449 1.13766,-0.852449 v 0 c 0.0017,0.01718 0.0033,0.03435 0.005,0.05153 0.04752,0.09276 0.02934,0.100155 0.05567,0.05047 0.0246,-0.04678 0.05243,-0.09149 0.08273,-0.134776 0.05088,-0.08172 0.104564,-0.161586 0.156608,-0.242561 0.06696,-0.100982 0.137833,-0.199394 0.201231,-0.302705 0.07268,-0.12036 0.146018,-0.240315 0.220002,-0.359875 0.125213,-0.201591 0.253656,-0.40129 0.386734,-0.597777 0.180332,-0.259205 0.360531,-0.518893 0.552303,-0.769782 0.169196,-0.2158052 0.33731,-0.4324456 0.506207,-0.6484838 0.16953,-0.2168389 0.334444,-0.4371661 0.493997,-0.6614736 0.189391,-0.2681735 0.374918,-0.5393567 0.540958,-0.8228175 0.18152,-0.3092649 0.363519,-0.6182667 0.547036,-0.9263451 0.138349,-0.2254456 0.278942,-0.4511199 0.446872,-0.6560775 0,0 -1.299823,0.559171 -1.299823,0.559171 z"
       id="path1496"
       style="fill:#000000;fill-opacity:1;fill-rule:nonzero;stroke:none" />
    <path
       d="m 12.003839,11.012835 c 0.296037,0.167854 0.530589,0.421847 0.763313,0.665673 0.265759,0.28742 0.503503,0.598803 0.757415,0.896407 0.216404,0.250825 0.43151,0.50278 0.648194,0.753351 0.116581,0.124567 0.218653,0.261097 0.325334,0.393828 0.0368,0.0429 0.06909,0.0895 0.106476,0.131887 0.0094,0.01001 0.01863,0.02007 0.02735,0.03064 0,0 1.193783,-0.793801 1.193783,-0.793801 v 0 c 0.0022,0.0074 0.0011,0.01041 -0.0072,0.0078 -0.04544,-0.02239 -0.07073,-0.07574 -0.109423,-0.106698 -0.118059,-0.126408 -0.232213,-0.256467 -0.353105,-0.380235 -0.226474,-0.241594 -0.450038,-0.486194 -0.665624,-0.737569 -0.251844,-0.302747 -0.501909,-0.60724 -0.763566,-0.901583 -0.234913,-0.25203 -0.473383,-0.501909 -0.738473,-0.722796 0,0 -1.184444,0.763072 -1.184444,0.763072 z"
       id="path1500"
       style="fill:#000000;fill-opacity:1;fill-rule:nonzero;stroke:none" />
    <path
       d="m 11.742854,11.73388 c -0.145055,0.316572 -0.387596,0.575907 -0.614783,0.835089 -0.344008,0.367745 -0.688148,0.735409 -1.032411,1.102952 -0.2896642,0.305359 -0.5617291,0.626375 -0.8486129,0.934278 -0.1670859,0.196989 -0.3382312,0.389649 -0.5103745,0.582123 -0.054106,0.06038 -0.1093195,0.119721 -0.1644024,0.179196 -0.00876,0.0095 -0.017691,0.01878 -0.026422,0.02827 0.4675793,0.362631 1.1181766,-0.173652 1.3443416,-0.605974 0,0 -1.3033313,0.566354 -1.3033313,0.566354 v 0 C 8.234857,15.74195 9.02603,15.01154 9.8670646,14.838064 c 0.00682,-0.0083 0.013515,-0.0167 0.020417,-0.02493 0.047594,-0.05691 0.094595,-0.114313 0.1428474,-0.170675 0.160441,-0.187144 0.307291,-0.385688 0.477024,-0.564901 0.27646,-0.308167 0.541731,-0.626345 0.828723,-0.92503 0.338647,-0.370091 0.686665,-0.731339 1.023466,-1.10304 0.248579,-0.282693 0.509255,-0.565348 0.663872,-0.913337 0,0 -1.28056,0.597728 -1.28056,0.597728 z"
       id="path1502"
       style="fill:#000000;fill-opacity:1;fill-rule:nonzero;stroke:none" />
    <path
       d="m 4.5134416,13.742889 c 0.1973704,0.131151 0.3609702,0.306694 0.5291217,0.472164 0.2110722,0.208153 0.432477,0.404476 0.6633891,0.590194 0.1693085,0.13209 0.3428692,0.258581 0.5162903,0.385182 0.1225906,0.08645 0.2367542,0.183708 0.3494435,0.282471 0.045697,0.04154 0.091659,0.08269 0.13902,0.122319 0.059036,0.04615 0.1242548,0.08293 0.1836511,0.128561 0.0484,0.03954 0.094214,0.08206 0.1418386,0.122506 0.024179,0.01983 0.049764,0.04691 0.073693,0.06197 -0.2986905,-0.515531 0.1082365,-0.216995 1.1397224,-0.805667 0,0 -1.124038,0.87315 -1.124038,0.87315 v 0 c 0.2364396,-0.132467 1.5744405,-0.334495 1.1949462,-0.832313 -0.021408,-0.02068 -0.056147,-0.02491 -0.074673,-0.05096 C 8.1972929,15.050214 8.144101,15.013739 8.0959653,14.970918 8.0393769,14.921881 7.9803049,14.878267 7.9169497,14.838471 7.867357,14.799971 7.8205025,14.757794 7.7693254,14.721164 7.6455659,14.629505 7.5270373,14.531531 7.4045833,14.438266 7.2273711,14.315938 7.048317,14.196217 6.8734664,14.070528 6.6423817,13.893 6.4244544,13.699751 6.2192185,13.492745 6.0482566,13.32431 5.8819367,13.151216 5.7103316,12.983501 c 0,0 -1.19689,0.759388 -1.19689,0.759388 z"
       id="path1504"
       style="fill:#000000;fill-opacity:1;fill-rule:nonzero;stroke:none" />
    <path
       d="M 3.8811546,14.088632 C 3.7035918,14.300155 3.5243899,14.510266 3.3480991,14.722866 3.0018716,15.151794 2.6610883,15.585011 2.3142326,16.013458 1.9562027,16.462537 1.5810858,16.89747 1.20327,17.329884 c -0.1854459,0.21514 -0.38436784,0.418153 -0.56743818,0.635342 -0.0281,0.03678 -0.0541622,0.07596 -0.0739356,0.117964 -0.0774632,-0.06207 0.0243148,0.06312 0.0752474,0.141084 0,0 1.15634048,-0.839469 1.15634048,-0.839469 v 0 c 0.059884,0.128383 0.082707,0.213125 0.075537,0.115394 0.02192,-0.03026 0.04302,-0.06109 0.066757,-0.09002 0.158321,-0.208752 0.3340793,-0.403547 0.5041392,-0.602619 0.3708499,-0.428148 0.7175883,-0.876234 1.08275,-1.309205 0.356665,-0.436156 0.7068261,-0.877734 1.0743697,-1.304884 0.1924978,-0.22226 0.3864126,-0.443795 0.593623,-0.652572 0,0 -1.3095058,0.547736 -1.3095058,0.547736 z"
       id="path1506"
       style="fill:#000000;fill-opacity:1;fill-rule:nonzero;stroke:none" />
    <path
       d="m 3.2684561,16.385541 c 0.046294,0.190055 0.057529,0.386523 0.066698,0.581259 0.00768,0.215208 0.010049,0.43054 0.00792,0.645863 -0.0047,0.151377 -1.749e-4,0.30281 -8.232e-4,0.454218 -2.474e-4,0.09508 7.422e-4,0.190155 -0.00158,0.285215 -0.00628,0.04458 9.878e-4,0.08824 0.00437,0.132515 0.00251,0.05235 0.00402,0.104822 0.00339,0.157237 -0.024882,0.529728 -0.3863857,0.242827 1.3098393,-0.602907 0,0 -1.2942763,0.569729 -1.2942763,0.569729 v 0 c 1.5420913,-0.693812 1.2853374,-0.108429 1.2524268,-0.614276 -0.00162,-0.05549 -9.171e-4,-0.111058 -0.00508,-0.166467 -0.00273,-0.04023 -0.00355,-0.08048 -0.00577,-0.120756 -0.00287,-0.09454 -0.00268,-0.189138 -0.00643,-0.283656 -0.0062,-0.147968 -0.010563,-0.296018 -0.013884,-0.444077 -0.003,-0.217376 -4.566e-4,-0.434905 -0.011334,-0.652093 -0.011894,-0.20313 -0.033349,-0.405059 -0.057416,-0.607082 0,0 -1.24806,0.665278 -1.24806,0.665278 z"
       id="path1510"
       style="fill:#000000;fill-opacity:1;fill-rule:nonzero;stroke:none" />
    <path
       d="m 7.924963,16.428492 c 0.0591,0.184883 0.065914,0.381665 0.073205,0.574135 0.00449,0.22261 -0.00139,0.445304 -0.00709,0.667845 -0.00299,0.182912 -0.00211,0.36594 -0.010517,0.548715 -0.00723,0.0909 -0.00675,0.182088 -0.010333,0.273123 -0.00223,0.05043 -0.00436,0.100873 -0.00879,0.151166 -6.98e-4,0.0075 -0.00154,0.0151 -0.00236,0.02262 0.088698,0.122788 0.044065,0.143612 0.1004961,0.108318 0,0 1.1217187,-0.883817 1.1217187,-0.883817 v 0 c -0.062462,0.01254 -0.018297,-0.0014 0.057028,0.126735 -5.615e-4,-0.0065 -0.00107,-0.01301 -0.00129,-0.01952 -0.00193,-0.04901 -10e-4,-0.09805 -4.649e-4,-0.147079 6.265e-4,-0.08966 0.00199,-0.179329 -0.00117,-0.268967 -0.004,-0.180977 -0.00343,-0.361989 4.248e-4,-0.54297 0.00152,-0.223377 0.0046,-0.446801 -0.00523,-0.670067 -0.00808,-0.208856 -0.016703,-0.418376 -0.060066,-0.623563 0,0 -1.2455595,0.68333 -1.2455595,0.68333 z"
       id="path1512"
       style="fill:#000000;fill-opacity:1;fill-rule:nonzero;stroke:none" />
    <path
       d="m 11.855367,14.088854 c -0.003,0.250585 -0.0082,0.501186 -0.01341,0.751753 -0.0088,0.341099 -0.01649,0.682234 -0.0226,1.023394 -0.0023,0.331525 -0.01441,0.662866 -0.01947,0.994331 -0.0016,0.243039 -0.01871,0.485457 -0.03707,0.727674 -0.01046,0.142719 -0.02699,0.285017 -0.05353,0.425657 -0.01206,0.06973 -0.02968,0.137982 -0.04659,0.20658 -0.01361,0.03706 -0.02285,0.07512 -0.0323,0.113367 -0.0063,0.01688 -0.0064,0.02878 -0.0065,0.04579 0.0013,0.01265 3.72e-4,0.02537 7e-5,0.03805 0.0034,0.01646 0.002,0.0333 0.0033,0.04997 0.0048,0.02992 -0.0021,0.0564 -0.0093,0.08479 -0.0081,0.02676 -0.007,0.05484 -0.0092,0.08255 7.96e-4,0.01043 -0.0029,0.02054 -0.0072,0.02822 0.4275,-0.217567 0.854999,-0.435134 1.282499,-0.652701 0,0 -1.275895,0.641941 -1.275895,0.641941 v 0 c 3.415616,-1.654419 1.235778,-0.130536 1.280076,-0.653659 0.0031,-0.02579 0.01044,-0.05039 0.01219,-0.07628 0.0025,-0.03472 -0.0018,-0.06907 3.65e-4,-0.103834 0.0011,-0.0152 -7.2e-4,-0.03145 0.0035,-0.04602 7.56e-4,-0.0083 8.07e-4,-0.01701 0.0048,-0.02451 0.0039,-0.01001 0.0091,-0.01949 0.0099,-0.03299 0.0089,-0.03809 0.02182,-0.07519 0.02721,-0.114105 0.01342,-0.07046 0.02439,-0.141472 0.03415,-0.212506 0.01323,-0.141646 0.02295,-0.283587 0.02985,-0.425683 0.01306,-0.241747 0.01689,-0.48359 0.01752,-0.725693 0.0042,-0.329785 0.0011,-0.659671 0.01127,-0.989391 0.0069,-0.341629 0.01594,-0.683171 0.02857,-1.024643 0.01033,-0.255137 0.01834,-0.511368 0.05363,-0.76452 0,0 -1.265755,0.632478 -1.265755,0.632478 z"
       id="path1516"
       style="fill:#000000;fill-opacity:1;fill-rule:nonzero;stroke:none" />
    <path
       d="m 14.980342,14.760404 c 0.01447,0.216514 0.01476,0.43393 0.01582,0.650886 0.0036,0.294771 -0.005,0.589398 -0.012,0.884044 -0.0047,0.230894 -0.01032,0.461738 -0.01381,0.692652 -0.0034,0.202107 -0.0025,0.404245 -0.0077,0.606316 -0.0068,0.137349 -0.01404,0.274538 -0.01782,0.412015 -6.05e-4,0.09687 -0.0017,0.193801 -0.0057,0.290602 -0.0087,0.02714 0.01261,0.10164 -0.01866,0.04593 0.444199,-0.19989 0.888398,-0.39978 1.332597,-0.59967 0,0 -1.310565,0.547034 -1.310565,0.547034 v 0 c 0.427083,-0.181816 0.854165,-0.363632 1.281248,-0.545449 -0.01462,-0.03115 -0.01832,-0.05808 -0.01759,-0.09312 -0.0037,-0.09465 -0.0038,-0.189473 -0.0013,-0.28415 0.0017,-0.135075 0.0055,-0.270115 0.0036,-0.405227 0.0018,-0.202035 0.0032,-0.404074 0.0055,-0.606104 0.0018,-0.229004 -2.75e-4,-0.458014 0.0032,-0.687006 7.93e-4,-0.294953 0.0045,-0.589836 0.0099,-0.884733 0.0019,-0.223079 0.0052,-0.446253 0.01541,-0.669115 0,0 -1.262086,0.645098 -1.262086,0.645098 z"
       id="path1518"
       style="fill:#000000;fill-opacity:1;fill-rule:nonzero;stroke:none" />
    <path
       d="m 19.54802,9.3869966 c 0.05956,0.1959857 0.06594,0.4032429 0.07349,0.6064847 0.009,0.3279977 0.0014,0.6562287 -6.78e-4,0.9843087 -0.0033,0.466393 -0.01328,0.932653 -0.02593,1.398873 -0.0167,0.469493 -0.03763,0.938791 -0.04491,1.408554 -0.0098,0.452547 -0.02747,0.904898 -0.03504,1.357483 -0.0073,0.392463 0.0047,0.784798 0.0016,1.177296 -0.002,0.275075 -0.0077,0.55013 -0.0093,0.825202 -6.61e-4,0.150492 -0.0082,0.300774 -0.0099,0.45124 -0.0012,0.07399 -0.0046,0.147927 -0.0097,0.221743 -0.0075,0.05309 -0.0091,0.106686 -0.01363,0.160163 -0.0016,0.01982 -0.0041,0.03957 -0.0059,0.05937 0.09619,0.465767 1.596166,-0.404671 1.203237,-0.732786 0,0 -1.200487,0.768175 -1.200487,0.768175 v 0 c 0.455043,0.177996 1.08554,-0.857325 1.277132,-0.680992 -3.73e-4,-0.01763 -4.68e-4,-0.03526 1.52e-4,-0.05288 0.0022,-0.05376 0.01062,-0.106908 0.01,-0.160754 0.002,-0.07464 0.002,-0.149154 -0.0012,-0.223777 -0.0016,-0.147149 -0.0092,-0.294098 -0.01012,-0.441269 -0.0022,-0.271195 -0.0095,-0.542366 -0.01537,-0.813501 -0.0086,-0.390087 -0.0065,-0.780195 -0.009,-1.170345 0.005,-0.449922 0.01388,-0.899782 0.02381,-1.34962 0.01923,-0.468997 0.02974,-0.938221 0.04314,-1.407404 0.01545,-0.469327 0.02866,-0.938718 0.04156,-1.408119 0.01202,-0.33486 0.02893,-0.6697254 0.02313,-1.0049427 -0.0086,-0.218089 -0.02122,-0.4365827 -0.05978,-0.6517855 0,0 -1.246267,0.6792898 -1.246267,0.6792898 z"
       id="path1520"
       style="fill:#000000;fill-opacity:1;fill-rule:nonzero;stroke:none" />
  </g>
</svg>
