<?xml version="1.0" encoding="UTF-8" standalone="no"?>
<svg
   xmlns:dc="http://purl.org/dc/elements/1.1/"
   xmlns:cc="http://creativecommons.org/ns#"
   xmlns:rdf="http://www.w3.org/1999/02/22-rdf-syntax-ns#"
   xmlns:svg="http://www.w3.org/2000/svg"
   xmlns="http://www.w3.org/2000/svg"
   xmlns:sodipodi="http://sodipodi.sourceforge.net/DTD/sodipodi-0.dtd"
   xmlns:inkscape="http://www.inkscape.org/namespaces/inkscape"
   inkscape:version="1.0 (6e3e5246a0, 2020-05-07)"
   sodipodi:docname="invoice.svg"
   id="svg62"
   version="1.1"
   width="24"
   viewBox="0 0 24 24"
   height="24">
  <metadata
     id="metadata68">
    <rdf:RDF>
      <cc:Work
         rdf:about="">
        <dc:format>image/svg+xml</dc:format>
        <dc:type
           rdf:resource="http://purl.org/dc/dcmitype/StillImage" />
        <dc:title></dc:title>
      </cc:Work>
    </rdf:RDF>
  </metadata>
  <defs
     id="defs66" />
  <sodipodi:namedview
     inkscape:current-layer="layer5"
     inkscape:window-maximized="1"
     inkscape:window-y="27"
     inkscape:window-x="53"
     inkscape:cy="11.061074"
     inkscape:cx="9.6369184"
     inkscape:zoom="19.51905"
     showgrid="false"
     id="namedview64"
     inkscape:window-height="713"
     inkscape:window-width="1313"
     inkscape:pageshadow="2"
     inkscape:pageopacity="0"
     guidetolerance="10"
     gridtolerance="10"
     objecttolerance="10"
     borderopacity="1"
     bordercolor="#666666"
     pagecolor="#ffffff" />
  <path
     id="path58"
     fill="none"
     d="M0 0h24v24H0z" />
  <g
     inkscape:label="Layer 5"
     id="layer5"
     inkscape:groupmode="layer">
    <circle
       r="0.047768719"
       cy="23.467728"
       cx="2.5697894"
       style="fill:#000000;stroke:#000000"
       id="path1214" />
    <path
       d="m 4.469792,3.8035993 c 0.00653,0.2148155 0.00549,0.4296481 0.014343,0.6444223 0.00902,0.3492434 0.012461,0.6984998 0.022348,1.0477377 0.011369,0.4339513 0.016167,0.8680321 0.025472,1.3020311 0.013138,0.5364148 0.01458,1.0730032 0.024719,1.6094641 0.00558,0.5595419 0.01246,1.119049 0.019236,1.6785715 0.00255,0.545006 0.00718,1.089993 0.00927,1.635001 0.00643,0.52193 0.00747,1.043882 0.01015,1.56585 -0.0021,0.39872 0.00132,0.797373 0.00554,1.196055 0.00161,0.378036 0.00502,0.756058 0.00863,1.134081 0.00621,0.43651 0.00338,0.873016 0.00135,1.309541 -0.00446,0.36024 -0.00445,0.720527 -0.00854,1.080765 -0.00832,0.246485 -0.00688,0.493095 -0.00996,0.739658 -0.00512,0.184999 -0.00531,0.370062 -0.00922,0.555086 -0.00186,0.133999 -0.00277,0.268027 -0.00123,0.402034 0.00553,0.132461 -0.00181,0.264855 -0.0032,0.397287 1.73e-4,0.07954 -7.091e-4,0.159079 -0.00429,0.238541 -0.028607,0.520262 -0.3004606,0.210449 1.2664637,-0.651343 0,0 -1.2611307,0.639216 -1.2611307,0.639216 v 0 c 1.5158809,-0.706909 1.2947275,-0.127252 1.2641897,-0.634727 -0.00369,-0.078 -0.00444,-0.156091 -0.0043,-0.234169 -0.0014,-0.131337 -0.00883,-0.262631 -0.00325,-0.394 0.0015,-0.133546 6.031e-4,-0.267107 -8.567e-4,-0.400649 -0.00321,-0.182472 -0.00207,-0.36494 -0.00433,-0.547423 3.06e-4,-0.244298 0.00416,-0.488577 -0.00563,-0.732784 -0.00408,-0.357359 -0.00398,-0.71477 -0.00839,-1.072133 -0.00199,-0.436933 -0.00461,-0.873845 4.985e-4,-1.310771 0.00221,-0.379288 0.00349,-0.758609 -0.00425,-1.13785 -0.00523,-0.396006 -0.00956,-0.79203 -0.021769,-1.187909 -0.010747,-0.519612 -0.020308,-1.039189 -0.021873,-1.558927 -0.00516,-0.54483 -0.00167,-1.089693 -0.011756,-1.6344863 C 5.7517056,8.9227664 5.7429469,8.3638195 5.736041,7.8048235 5.735206,7.265374 5.7264684,6.7259691 5.7281964,6.1865073 5.7272702,5.749831 5.7210964,5.3132069 5.7169207,4.8765552 5.7155088,4.5249565 5.7097103,4.1734094 5.710889,3.8218181 5.716479,3.6028037 5.712209,3.3829255 5.735967,3.1648433 c 0,0 -1.2661747,0.638756 -1.266175,0.638756 z"
       id="path1218"
       style="fill:#000000;fill-opacity:1;fill-rule:nonzero;stroke:none" />
    <path
       d="m 5.5608614,3.7788068 c -0.017148,0.00555 -0.034295,0.011097 -0.051443,0.016646 0,0 -1.1158576,0.8702179 -1.1158576,0.8702179 v 0 c 0.01463,-0.0057 0.02926,-0.011402 0.043889,-0.017102 0,0 1.1234111,-0.8697612 1.1234116,-0.8697619 z"
       id="path1220"
       style="fill:#000000;fill-opacity:1;fill-rule:nonzero;stroke:none" />
    <path
       d="m 4.5590542,20.165867 c 0.2777846,-0.04356 0.5598157,-0.05181 0.8403842,-0.06174 0.4479762,-0.01913 0.896345,-0.02376 1.3446186,-0.03062 0.4740857,-0.0034 0.9480619,-0.01373 1.4221162,-0.01937 0.4532231,-0.0054 0.9064763,-0.0065 1.3597236,-0.0082 0.3397391,-0.0048 0.6795232,-0.0014 1.0192632,-0.0052 0.344453,-0.0042 0.688846,-0.01142 1.033316,-0.01415 0.4082,-0.0033 0.81634,-0.0104 1.224559,-0.01207 0.404886,-0.0036 0.809761,-3.36e-4 1.214646,3.12e-4 0.290508,5.86e-4 0.581004,0.0024 0.871504,-3.02e-4 0.226844,-0.0033 0.453647,-0.0078 0.680402,-0.01496 0.196668,-0.0071 0.393436,-0.0098 0.590205,-0.01204 0.157092,7.34e-4 0.314162,-0.0026 0.471245,-0.0028 0.124286,0.0014 0.248581,-7.93e-4 0.372858,0.0012 0.03031,7.79e-4 0.06064,0.0013 0.09089,0.0035 5.05e-4,-10e-4 0.002,5.37e-4 0.0023,6.2e-4 0,0 1.159205,-0.844958 1.159205,-0.844958 v 0 c -7.33e-4,1.57e-4 -0.0019,0.0012 -0.0032,6.85e-4 -0.03446,0.0027 -0.069,0.0042 -0.103527,0.0057 -0.127629,0.0048 -0.255369,0.0065 -0.383071,0.0078 -0.158847,6.12e-4 -0.317725,-0.0014 -0.476516,0.0045 -0.198418,0.0036 -0.396891,0.0054 -0.595229,0.01237 -0.228546,0.0084 -0.457029,0.01816 -0.685719,0.02193 -0.295775,0.0068 -0.591595,0.01144 -0.887438,0.01392 -0.408399,0.0042 -0.816771,0.0075 -1.225197,0.0073 -0.40552,0.0024 -0.811063,0.0013 -1.216562,0.0055 -0.340654,0.0036 -0.681317,1.46e-4 -1.021961,0.0052 -0.345102,0.0052 -0.690166,0.01278 -1.035279,0.01728 -0.457835,0.0079 -0.9156811,0.01361 -1.3735625,0.01817 -0.4725207,0.0048 -0.9450414,0.0091 -1.4175412,0.01577 -0.4432798,0.0045 -0.8865082,0.01348 -1.329804,0.01695 -0.2685015,0.0064 -0.5370218,0.0119 -0.8054726,0.02018 0,0 -1.1371875,0.84742 -1.1371875,0.84742 z"
       id="path1226"
       style="fill:#000000;fill-opacity:1;fill-rule:nonzero;stroke:none" />
    <path
       d="m 5.0817693,4.2688839 c 0.2337581,-0.0078 0.4676006,-0.012879 0.7014234,-0.018382 0.3098533,-0.00832 0.6196418,-0.017818 0.9294285,-0.028259 0.3778172,-0.010762 0.7557354,-0.014797 1.1335836,-0.024396 0.3763873,-0.00791 0.7527211,-0.017139 1.1290268,-0.028281 0.3752595,-0.013909 0.7507454,-0.019546 1.1261644,-0.027168 0.312393,-0.0027 0.62468,-0.011066 0.937037,-0.015883 0.252294,-0.00354 0.504526,-0.00892 0.756834,-0.011563 0.243989,-0.00742 0.487986,-0.012308 0.732087,-0.012839 0.174501,-2.294e-4 0.348987,-0.0024 0.523472,-0.00459 0.156681,-0.00467 0.31339,-0.00556 0.470129,-0.00552 0.12334,-3.09e-4 0.246642,-0.00341 0.369979,-0.00415 0.0885,4.465e-4 0.176913,-0.00279 0.265366,-0.00514 0.06865,-0.00134 0.137308,-0.00228 0.205961,-7.968e-4 0.07019,0.00163 0.06037,0.044268 -0.06565,-0.1418444 -0.02785,-0.041126 0.03901,0.09983 0.08227,0.124233 0,0 1.19938,-0.7758921 1.19938,-0.7758921 v 0 c -0.0039,-0.00251 -0.01334,-0.011815 -0.0116,-0.00754 0.01474,0.036357 0.07236,0.1390516 0.05147,0.1058476 -0.11197,-0.1779172 -0.02227,-0.1538455 -0.10298,-0.1473553 -0.07154,0.00514 -0.14321,0.00808 -0.214919,0.00961 -0.08881,3.002e-4 -0.177535,0.00179 -0.266293,0.00481 -0.124744,0.00435 -0.249504,0.00778 -0.374312,0.00966 -0.157707,0.0023 -0.315403,0.00506 -0.473118,0.00636 -0.178172,0.00308 -0.356266,0.00918 -0.53442,0.013053 -0.244071,0.00531 -0.488153,0.0084 -0.732257,0.011421 -0.255871,0.00803 -0.511781,0.012842 -0.767693,0.019287 -0.315781,0.00915 -0.631629,0.015162 -0.94743,0.023639 -0.376251,0.00835 -0.752429,0.019568 -1.128685,0.027646 -0.3772111,0.010958 -0.754386,0.023282 -1.1316584,0.031811 -0.3768344,0.0053 -0.7535415,0.014719 -1.1303503,0.021474 -0.3046358,0.00372 -0.6092327,0.00808 -0.913787,0.016427 -0.2232943,0.00615 -0.4469116,0.013047 -0.6701756,0.00215 0,0 -1.1482724,0.8321666 -1.1482724,0.8321666 z"
       id="path1228"
       style="fill:#000000;fill-opacity:1;fill-rule:nonzero;stroke:none" />
    <path
       d="m 15.932171,3.3873757 c 0.02938,-0.079892 0.06502,-0.1573333 0.10206,-0.2339184 0.0064,-0.012808 0.0124,-0.026117 0.02012,-0.038095 -1.205126,0.5612703 -1.641955,0.4342616 -1.08851,0.8036259 0.150032,0.1022539 0.302296,0.2011149 0.45297,0.3024094 0.156152,0.1096939 0.31374,0.2170885 0.475909,0.3177016 0.155797,0.09613 0.311148,0.1929644 0.466168,0.2903386 0.121079,0.073063 0.239325,0.1507506 0.361925,0.2212584 0.128408,0.071846 0.255812,0.1453492 0.382837,0.2195864 0.09667,0.056851 0.190948,0.1175216 0.289905,0.1703788 0.0772,0.038828 0.150224,0.084992 0.223644,0.1303542 0.04005,0.022732 0.07677,0.050497 0.11432,0.076955 0.01333,0.00822 0.02505,0.017645 0.03478,0.029858 0.0029,0.00389 0.0058,0.00779 0.0087,0.011685 0,0 1.154809,-0.8507342 1.154809,-0.8507342 v 0 c 0.0026,0.00391 0.0053,0.00783 0.0079,0.011738 0.0069,0.01278 0.0015,0.014439 -0.01167,0.011946 -0.04299,-0.011028 -0.07769,-0.041884 -0.1155,-0.063815 C 18.735769,4.754107 18.658199,4.7108444 18.581276,4.6664353 18.482852,4.6117905 18.381268,4.5629558 18.284042,4.5060803 18.157656,4.4318718 18.032709,4.3553077 17.905034,4.2832964 17.783292,4.2120465 17.659996,4.1433791 17.540468,4.0684323 17.383788,3.9731254 17.224072,3.8828262 17.070624,3.7822462 16.911478,3.6794745 16.749118,3.5815878 16.595299,3.4707073 16.448821,3.3671162 16.298552,3.2691246 16.153395,3.1636586 15.663791,2.791844 16.023641,3.0183635 14.750592,3.712884 c -0.0028,0.012232 -0.0075,0.024091 -0.01173,0.035954 -0.0291,0.079035 -0.06036,0.1573435 -0.09603,0.2336668 0,0 1.289336,-0.595129 1.289336,-0.595129 z"
       id="path1232"
       style="fill:#000000;fill-opacity:1;fill-rule:nonzero;stroke:none" />
    <path
       d="m 17.545165,5.8953604 c 0.07567,0.2601223 0.07043,0.5377396 0.07626,0.8063627 0.01213,0.5465656 -0.01355,1.0931244 -0.03239,1.6392708 -0.02269,0.5403131 -0.05325,1.0801826 -0.07306,1.6206258 -0.02251,0.6069283 -0.03564,1.2141113 -0.05475,1.8211423 -0.02557,0.669981 -0.05107,1.340016 -0.07932,2.009895 -0.03765,0.635178 -0.0582,1.271088 -0.08673,1.906692 -0.02304,0.512148 -0.04103,1.024482 -0.06362,1.536647 4.86e-4,0.312854 -0.02188,0.624565 -0.04184,0.936507 -0.0042,0.19016 -0.01513,0.380047 -0.03377,0.569324 -10e-4,0.04806 -0.02062,0.09182 -0.02759,0.138763 -0.01006,0.05017 -0.0082,0.10167 -0.01132,0.152543 -0.0017,0.02539 -0.0042,0.05071 -0.0064,0.07606 0.0037,0.04626 -0.08941,-0.127731 0.06123,0.09592 0,0 1.167681,-0.829458 1.167681,-0.829458 v 0 c 0.0138,0.02483 0.04958,0.125121 0.05004,0.08728 -5.98e-4,-0.02285 -5.8e-4,-0.04572 5.53e-4,-0.06856 0.0029,-0.04627 0.01031,-0.09172 0.02011,-0.137008 0.01176,-0.05057 0.01256,-0.100373 0.0083,-0.15219 -0.0034,-0.186288 0.0026,-0.372453 0.01284,-0.558474 0.0071,-0.308646 0.0089,-0.617392 0.01403,-0.926073 -0.0022,-0.50374 0.0039,-1.00749 0.01912,-1.51102 0.02367,-0.635428 0.0678,-1.269847 0.08452,-1.905584 0.02671,-0.669169 0.05145,-1.338315 0.07404,-2.007639 0.0275,-0.611588 0.05989,-1.2229189 0.08235,-1.8347297 0.02397,-0.5391476 0.04499,-1.0783938 0.06595,-1.6176649 0.0211,-0.552604 0.03615,-1.1053686 0.05765,-1.657956 0.0046,-0.2920849 0.01319,-0.5876693 -0.04077,-0.8761936 0,0 -1.243052,0.6855276 -1.243052,0.6855276 z"
       id="path1234"
       style="fill:#000000;fill-opacity:1;fill-rule:nonzero;stroke:none" />
    <path
       d="m 13.52399,4.8072572 c 0.166792,0.1856784 0.290064,0.4051838 0.412771,0.6210752 0.163799,0.2947334 0.302489,0.6023862 0.421864,0.9174967 0.08295,0.213902 0.134942,0.4373579 0.196103,0.6578701 0.03358,0.1150238 0.07178,0.2286213 0.111021,0.3418161 0.01911,0.056325 0.04448,0.110223 0.0698,0.1639487 0.02547,0.05723 0.0593,0.097743 0.113971,0.1291696 0.1236,0.01424 0.26361,-0.077511 0.371856,-0.1317253 0.236529,-0.1255639 0.489736,-0.2144802 0.737885,-0.3135932 0.262039,-0.114868 0.537732,-0.1907267 0.812439,-0.2678143 0.08657,-0.024111 0.172126,-0.051723 0.258716,-0.075738 0.07054,-0.01754 0.03634,0.030666 -0.08744,-0.1539145 0,0 1.314916,-0.5613006 1.314916,-0.5613006 v 0 C 18.156305,5.9323792 18.22906,5.9388283 18.156945,5.9718376 c -0.09218,0.038134 -0.18737,0.068503 -0.281614,0.1009622 -0.279528,0.091177 -0.566915,0.1593726 -0.838716,0.2729147 -0.240082,0.097516 -0.487142,0.1771776 -0.722244,0.2860264 -0.103456,0.052938 -0.221709,0.095716 -0.309436,0.171377 -0.01151,0.052261 0.0051,0.055981 -0.0296,0.0032 -0.02409,-0.049432 -0.04915,-0.098458 -0.07001,-0.1493795 C 15.861977,6.5493267 15.820831,6.4409643 15.785931,6.330248 15.714258,6.1108377 15.641272,5.8918304 15.561771,5.6751049 15.433482,5.3576747 15.278657,5.052598 15.122446,4.7481313 15.004942,4.5199512 14.885049,4.2933049 14.740502,4.0807689 c 0,0 -1.216512,0.7264883 -1.216512,0.7264883 z"
       id="path1236"
       style="fill:#000000;fill-opacity:1;fill-rule:nonzero;stroke:none" />
    <path
       d="M 16.185796,3.3718615 C 16.010557,3.21264 15.829703,3.0623914 15.635138,2.9275981 c 0,0 -1.147471,0.7362226 -1.147471,0.7362226 v 0 c 0.05075,0.031076 0.104233,0.058078 0.152251,0.093227 0.129764,0.094986 0.240104,0.2152824 0.334961,0.3442576 0,0 1.210917,-0.7294441 1.210917,-0.7294438 z"
       id="path1238"
       style="fill:#000000;fill-opacity:1;fill-rule:nonzero;stroke:none" />
    <path
       d="M 6.5622622,9.9873365 C 6.7586303,9.8956233 6.9801533,9.8813453 7.1930051,9.8627163 7.5707684,9.8362404 7.9496038,9.832226 8.3281133,9.8269003 8.7248178,9.8224132 9.121452,9.8141924 9.5181141,9.807265 9.8991632,9.804265 10.280037,9.792748 10.66103,9.786536 c 0.434317,-0.0059 0.86857,-0.015151 1.302938,-0.016309 0.315011,-0.00106 0.630003,-0.00479 0.945012,-0.00619 0.232601,-0.00181 0.465154,-0.00659 0.69776,-0.00783 0.190527,-0.00326 0.381113,-0.00317 0.571635,-0.00659 0.123788,-0.00415 0.247571,-0.00241 0.371357,3.69e-5 0.0606,0.00142 0.121175,-0.0012 0.181733,-0.00226 0.01624,-7.378e-4 0.02974,-0.00112 0.04478,0.00444 0,0 1.155042,-0.8451993 1.155042,-0.8451993 v 0 c -0.0081,0.011566 -0.03185,-1.294e-4 -0.04484,0.00255 -0.06345,-0.00157 -0.126663,0.00322 -0.190046,0.00645 -0.128578,0.00382 -0.257268,0.0032 -0.385843,0.00748 -0.192242,0.00522 -0.38443,0.010372 -0.576748,0.012079 -0.235643,0.00455 -0.471299,0.00853 -0.706917,0.014186 -0.321925,0.00768 -0.643892,0.013386 -0.965806,0.021574 -0.435125,0.00993 -0.870311,0.014855 -1.30553,0.018344 -0.38031,0.00293 -0.760624,0.00344 -1.140734,0.017981 -0.396041,0.00807 -0.792147,0.01377 -1.1882336,0.01911 -0.3749612,0.00551 -0.7499858,0.00969 -1.1248528,0.019623 -0.2090198,0.00905 -0.4188423,0.016926 -0.6240721,0.061307 0,0 -1.1154053,0.8800131 -1.1154053,0.8800131 z"
       id="path1242"
       style="fill:#000000;fill-opacity:1;fill-rule:nonzero;stroke:none" />
    <path
       d="m 6.4982105,13.474969 c 0.1641887,-0.06526 0.3412028,-0.08267 0.5154451,-0.100419 0.2929793,-0.02247 0.5870714,-0.0261 0.8807766,-0.02893 0.3577481,-0.0013 0.715497,-0.0014 1.073246,-7.56e-4 0.3672952,-0.0013 0.7345852,-1.6e-4 1.1018798,-3.09e-4 0.33659,-0.0052 0.673171,0.0023 1.009751,-0.0024 0.2918,-0.0019 0.583596,-0.0028 0.875398,-0.0049 0.299001,-9.21e-4 0.597998,-0.0028 0.897,-0.0015 0.280508,0.0026 0.561029,-9.29e-4 0.841531,0.0015 0.218873,0.0039 0.437764,8.09e-4 0.656626,0.005 0.08243,10e-4 0.164789,0.0044 0.246895,0.01176 0.01766,9.2e-5 0.03067,0.0052 0.05,0.0048 0.0572,-0.0026 0.11444,-0.0012 0.171647,2.9e-5 0.03744,0.0017 0.0749,-1.34e-4 0.112347,-7.07e-4 0.02949,2.2e-5 0.05899,5.96e-4 0.08843,0.0023 0.0012,8.2e-5 0.0024,1.65e-4 0.0037,2.48e-4 0,0 1.159286,-0.842268 1.159286,-0.842268 v 0 c -0.0015,8.2e-5 -0.0029,1.65e-4 -0.0044,2.48e-4 -0.03155,0.0016 -0.06313,0.0023 -0.09472,0.0023 -0.03686,-5.84e-4 -0.07372,-0.0024 -0.110579,-6.49e-4 -0.05684,0.0012 -0.113743,0.0029 -0.17057,-1.3e-5 -0.01845,-5.83e-4 -0.02581,0.0063 -0.04453,9.23e-4 -0.09178,-0.0032 -0.183696,-0.0019 -0.275497,-0.0014 -0.223389,0.004 -0.446802,0.0011 -0.670201,0.0049 -0.281829,0.0023 -0.563674,-0.0012 -0.845508,0.0014 -0.298737,0.0013 -0.597473,-5.4e-4 -0.896211,3.44e-4 -0.293247,1.54e-4 -0.586412,0.0038 -0.87963,0.0075 -0.338844,-4.28e-4 -0.677594,0.01192 -1.016471,0.008 -0.366997,0.0019 -0.733976,0.0014 -1.100974,1.98e-4 -0.3575656,3.36e-4 -0.7151268,-6.17e-4 -1.0726925,-3.66e-4 -0.2885867,-6.22e-4 -0.5773318,-0.0056 -0.8657888,0.0057 -0.172112,0.0085 -0.3448821,0.02239 -0.5140195,0.05644 0,0 -1.1221807,0.87125 -1.1221807,0.87125 z"
       id="path1244"
       style="fill:#000000;fill-opacity:1;fill-rule:nonzero;stroke:none" />
    <path
       d="m 6.5170572,16.361885 c 0.1751274,-0.054 0.3575163,-0.07256 0.5394275,-0.08578 0.3104545,-0.01614 0.6214475,-0.01742 0.9322459,-0.01842 0.3767409,-0.0033 0.7534904,-0.0039 1.1302416,-0.0045 0.42146,-0.0014 0.8427989,-0.0079 1.2642558,-0.0033 0.350745,0.0041 0.701476,4.52e-4 1.05224,0.0027 0.299848,-0.0033 0.599737,-1.15e-4 0.899566,-0.0045 0.283233,-0.0038 0.566479,-0.0011 0.849728,-0.0028 0.241166,2.53e-4 0.482321,-0.0025 0.723485,-0.0027 0.212374,0.0022 0.424753,-9.6e-5 0.63712,0.0026 0.138353,0.0029 0.27674,0.0019 0.415093,0.0046 0.06053,8.1e-4 0.121055,0.0014 0.181512,0.0046 0.0078,5.78e-4 0.01559,0.0012 0.02341,0.0013 2.89e-4,-2.9e-5 0.0035,6.7e-5 0.004,7.7e-5 0,0 1.159963,-0.842765 1.159963,-0.842765 v 0 c -0.0014,2.5e-5 -0.0028,8.3e-5 -0.0042,7.6e-5 -0.009,1.31e-4 -0.01797,7.9e-4 -0.02697,0.0013 -0.06469,0.003 -0.12944,0.0039 -0.194192,0.0046 -0.142524,0.0026 -0.285078,0.0016 -0.427603,0.0045 -0.21518,0.0027 -0.430374,4.82e-4 -0.645557,0.0032 -0.242203,6.62e-4 -0.484415,-6.4e-4 -0.726593,0.0039 -0.28541,0.0027 -0.5708,0.0077 -0.856226,0.0078 -0.300261,-6.2e-4 -0.600491,0.005 -0.900751,0.0059 -0.355867,0.0046 -0.711726,0.005 -1.067596,0.009 -0.419512,0.0046 -0.838913,-0.0015 -1.258432,-0.0013 -0.3750078,0.0012 -0.7500272,0.0041 -1.1250338,9.2e-4 -0.3069251,-2.19e-4 -0.6138793,-0.0031 -0.9207774,0.002 -0.1780845,0.0043 -0.3566733,0.0084 -0.5316903,0.04557 0,0 -1.1266593,0.861488 -1.1266593,0.861488 z"
       id="path1246"
       style="fill:#000000;fill-opacity:1;fill-rule:nonzero;stroke:none" />
    <circle
       r="0.047768719"
       cy="15.959391"
       cx="16.556484"
       style="fill:#000000;stroke:#000000"
       id="path1248" />
  </g>
</svg>
