<?xml version="1.0" encoding="UTF-8" standalone="no"?>
<svg
   xmlns:dc="http://purl.org/dc/elements/1.1/"
   xmlns:cc="http://creativecommons.org/ns#"
   xmlns:rdf="http://www.w3.org/1999/02/22-rdf-syntax-ns#"
   xmlns:svg="http://www.w3.org/2000/svg"
   xmlns="http://www.w3.org/2000/svg"
   xmlns:sodipodi="http://sodipodi.sourceforge.net/DTD/sodipodi-0.dtd"
   xmlns:inkscape="http://www.inkscape.org/namespaces/inkscape"
   inkscape:version="1.0 (6e3e5246a0, 2020-05-07)"
   sodipodi:docname="login.svg"
   id="svg62"
   version="1.1"
   width="24"
   viewBox="0 0 24 24"
   height="24">
  <metadata
     id="metadata68">
    <rdf:RDF>
      <cc:Work
         rdf:about="">
        <dc:format>image/svg+xml</dc:format>
        <dc:type
           rdf:resource="http://purl.org/dc/dcmitype/StillImage" />
        <dc:title></dc:title>
      </cc:Work>
    </rdf:RDF>
  </metadata>
  <defs
     id="defs66" />
  <sodipodi:namedview
     inkscape:current-layer="layer5"
     inkscape:window-maximized="1"
     inkscape:window-y="27"
     inkscape:window-x="53"
     inkscape:cy="11.240386"
     inkscape:cx="9.6369184"
     inkscape:zoom="19.51905"
     showgrid="false"
     id="namedview64"
     inkscape:window-height="713"
     inkscape:window-width="1313"
     inkscape:pageshadow="2"
     inkscape:pageopacity="0"
     guidetolerance="10"
     gridtolerance="10"
     objecttolerance="10"
     borderopacity="1"
     bordercolor="#666666"
     pagecolor="#ffffff" />
  <path
     id="path58"
     fill="none"
     d="M0 0h24v24H0z" />
  <g
     inkscape:label="Layer 5"
     id="layer5"
     inkscape:groupmode="layer">
    <path
       d="m 16.885783,6.3655732 c 0.0067,0.3228119 0.0038,0.6457587 0.0053,0.9686603 -0.0048,0.4492301 0.003,0.8983155 0.0093,1.3474781 0.0096,0.5614964 0.01553,1.1230736 0.01913,1.6846414 0.0059,0.621059 0.0098,1.242191 0.01,1.863281 -0.0051,0.503649 -0.001,1.0073 -0.0043,1.510948 -0.0024,0.449601 -0.0013,0.899255 0.0027,1.348846 0.003,0.449865 -0.0039,0.899692 -0.0069,1.34953 -0.0045,0.319351 -0.0054,0.638755 -0.01277,0.958057 -0.0036,0.175867 -0.0087,0.351756 -0.0092,0.527669 0.0033,0.108923 -0.0036,0.217694 -0.0067,0.326504 -5.83e-4,0.05708 -9.69e-4,0.114146 -0.004,0.171158 -0.0014,0.028 -0.0031,0.05601 -0.0063,0.08387 -1.41e-4,0.0011 -2.82e-4,0.0022 -4.23e-4,0.0032 0,0 1.279074,-0.646806 1.279074,-0.646806 v 0 c -7.8e-5,-9.76e-4 -1.57e-4,-0.002 -2.35e-4,-0.0029 -0.0014,-0.02668 -0.0019,-0.05341 -0.0014,-0.08013 3.42e-4,-0.058 0.0023,-0.115984 3.48e-4,-0.173984 -0.0032,-0.10652 -0.01018,-0.212998 -0.0067,-0.319641 -4.75e-4,-0.172786 -0.0055,-0.345548 -0.0092,-0.518287 -0.0075,-0.314965 -0.0082,-0.630036 -0.01274,-0.945052 -0.003,-0.447513 -0.0098,-0.895017 -0.0068,-1.342557 0.004,-0.450344 0.0053,-0.900771 9.85e-4,-1.351112 -0.0058,-0.499677 -0.0065,-0.999393 -0.02054,-1.498954 -0.0087,-0.620713 -0.0086,-1.241585 -0.01089,-1.8623458 -8.38e-4,-0.5652371 0.0028,-1.1304749 0.0013,-1.6957137 -0.0013,-0.449759 0.0018,-0.8994922 -5.93e-4,-1.3492448 0.0076,-0.3292258 0.01003,-0.6615361 0.06257,-0.9872341 0,0 -1.270843,0.6301176 -1.270843,0.6301176 z"
       id="path1618"
       style="fill:#000000;fill-opacity:1;fill-rule:nonzero;stroke:none" />
    <path
       d="m 5.6018748,18.354082 c 0.3969244,0.0025 0.7939038,0.0053 1.1908509,0.0039 0.7995871,-0.01338 1.599374,-0.0046 2.3989571,0.005 0.6209717,0.0075 1.2419862,0.01062 1.8629632,0.018 0.522066,0.01243 1.044199,0.01247 1.566359,0.0151 0.572179,0.0039 1.144308,0.0075 1.716083,0.03041 0.361203,0.01506 0.722682,0.01975 1.083908,0.03455 0.179803,0.0052 0.35948,0.01526 0.53937,0.01682 0.09042,0.0025 0.181036,0.0016 0.271272,0.0086 0.409728,-0.0086 1.636877,-0.86216 1.133778,-0.834342 0,0 -1.155844,0.836704 -1.155844,0.836704 v 0 c 0.489431,0.038 1.695671,-0.795025 1.178154,-0.836807 -0.09607,6.79e-4 -0.192145,-0.001 -0.288221,7.5e-5 -0.186381,-0.0023 -0.372726,0.0037 -0.559103,-1.62e-4 -0.372918,-0.0032 -0.745837,-0.0059 -1.11875,-0.0095 -0.575663,-0.0045 -1.151126,-0.01899 -1.726767,-0.02513 -0.522086,-0.0064 -1.044141,-0.0157 -1.566291,-0.01586 -0.630579,0.002 -1.261168,-0.0031 -1.891731,0.0027 -0.7910669,0.0043 -1.5824994,0.0064 -2.3731794,-0.02229 -0.3687344,-0.01022 -0.7385199,-0.01384 -1.1056458,-0.05301 0,0 -1.156163,0.825228 -1.156163,0.825228 z"
       id="path1622"
       style="fill:#000000;fill-opacity:1;fill-rule:nonzero;stroke:none" />
    <path
       d="m 5.177714,6.509561 c 0.2637821,-0.01888 0.5284847,-0.021523 0.7928385,-0.02191 0.570527,0.00118 1.140882,0.00475 1.7112881,0.017564 0.696402,0.014645 1.3926913,0.031118 2.0887681,0.057298 0.5084923,0.018051 1.0168953,0.037304 1.5255043,0.05174 0.482098,0.014194 0.964213,0.027466 1.446406,0.037954 0.478831,0.013241 0.957433,0.033338 1.436262,0.046768 0.386891,0.012573 0.773762,0.027141 1.160248,0.049062 0.185366,0.010565 0.37051,0.024479 0.555737,0.037131 0.105868,0.00459 0.211477,0.013817 0.317441,0.015625 0.0934,1.919e-4 0.186807,0.00273 0.279963,0.0096 0.0024,-0.00177 0.07605,0.0099 0.07655,0.00737 6.37e-4,-0.00317 -0.0078,-0.00625 -0.0052,-0.00816 0.379009,-0.2775891 0.76181,-0.5499628 1.142715,-0.8249442 -0.01778,0.00149 -0.03556,0.00298 -0.05335,0.00447 0,0 -1.145899,0.8301347 -1.145899,0.8301347 v 0 c 0.01605,0.00196 0.03211,0.00391 0.04816,0.00587 0.598,-0.4148722 1.692253,-0.8123512 1.091749,-0.8413831 -0.09615,-0.00642 -0.192234,-0.012737 -0.2887,-0.011867 -0.106799,-0.00271 -0.213608,-0.00456 -0.320344,-0.00939 C 16.844328,5.958169 16.651153,5.9460971 16.457652,5.9420205 16.060607,5.932914 15.663477,5.9272534 15.266533,5.914135 14.786875,5.8959597 14.307075,5.8822918 13.827279,5.86832 13.345713,5.8540974 12.864129,5.8406266 12.382477,5.8297279 11.868031,5.8147269 11.353614,5.7986564 10.838993,5.7904445 10.137352,5.7807385 9.4358387,5.7669926 8.7344736,5.7446255 8.181818,5.7281423 7.6295443,5.70339 7.0769639,5.6854792 6.8248819,5.6800187 6.5728405,5.6752723 6.3207111,5.6735037 c 0,0 -1.1429971,0.8360573 -1.1429971,0.8360573 z"
       id="path1624"
       style="fill:#000000;fill-opacity:1;fill-rule:nonzero;stroke:none" />
    <path
       d="m 3.4414937,12.856958 c 0.3818544,-0.02549 0.7647763,-0.03531 1.1472576,-0.04822 0.6010749,-0.01713 1.2018848,-0.04169 1.8030064,-0.05709 0.5383931,-0.01358 1.076506,-0.03685 1.6146371,-0.05822 0.4910761,-0.02567 0.9827465,-0.03523 1.4742252,-0.04958 0.306655,-0.01104 0.613431,-0.01984 0.920299,-0.01579 0.05751,0.0013 0.115078,0.0027 0.172517,0.0059 0.03988,-3.57e-4 0.07961,-0.0047 0.11941,-0.0071 0.04061,-0.003 0.08126,-0.0029 0.121961,-0.0031 0.508142,0.0022 -0.04626,0.06174 1.185077,-0.830235 0,0 -1.181343,0.798484 -1.181343,0.798484 v 0 c 1.723842,-1.18272 1.650253,-0.853233 1.14753,-0.811605 -0.04053,0.003 -0.08085,0.0046 -0.12146,0.0033 -0.03942,5.56e-4 -0.07907,8.02e-4 -0.11819,0.006 -0.06431,0.0098 -0.130749,0.0051 -0.19525,0.01315 -0.31956,0.01779 -0.639425,0.02879 -0.959191,0.04213 -0.496714,0.0205 -0.993366,0.04251 -1.4901962,0.0601 -0.5409372,0.02437 -1.0820282,0.04417 -1.623069,0.06584 -0.5973759,0.02477 -1.1950506,0.04131 -1.7928594,0.05136 -0.3587275,0.0046 -0.7181142,0.01255 -1.0766359,-0.0016 0,0 -1.1477258,0.836264 -1.1477258,0.836264 z"
       id="path1626"
       style="fill:#000000;fill-opacity:1;fill-rule:nonzero;stroke:none" />
    <path
       d="m 9.7366343,10.194603 c 0.4871147,0.125501 0.9264557,0.386817 1.3561257,0.640317 0.457647,0.301071 0.9037,0.617685 1.372819,0.901031 0.119243,0.07248 0.243053,0.13701 0.363969,0.206543 0.01586,0.0088 0.02386,0.02156 0.03493,0.03595 0.412029,-0.246849 0.824057,-0.493698 1.236086,-0.740547 0,0 -1.303065,0.578042 -1.303065,0.578042 v 0 c 0.404315,-0.233616 1.038706,-1.10666 1.225482,-0.678686 0.0036,0.0083 -0.0075,0.0067 -0.01035,0.007 -0.142673,-0.02368 -0.272087,-0.103423 -0.40516,-0.154282 -0.499983,-0.241907 -0.960789,-0.548346 -1.417487,-0.86323 -0.415506,-0.2664838 -0.842756,-0.5143402 -1.287791,-0.7286201 0,0 -1.1655587,0.7964821 -1.1655587,0.7964821 z"
       id="path1628"
       style="fill:#000000;fill-opacity:1;fill-rule:nonzero;stroke:none" />
    <path
       d="m 14.482814,11.491172 c -0.194586,0.06406 -0.385418,0.148207 -0.563123,0.250526 -1.36625,0.786658 -0.954985,0.506244 -1.608546,0.968271 -0.524204,0.400113 -1.033202,0.819305 -1.55756,1.219313 -0.218331,0.1635 -0.437575,0.325778 -0.656651,0.48828 -0.4621571,0.333737 0.907416,-0.23084 1.300877,-0.532312 0.0011,8.28e-4 0.0021,0.0017 0.0032,0.0025 0,0 -1.32585,0.546118 -1.32585,0.546118 v 0 c 3.36e-4,0.0015 6.72e-4,0.003 0.001,0.0046 -0.2480989,0.435505 0.981424,-0.243695 1.337021,-0.54698 0.187658,-0.154567 0.380224,-0.303037 0.570909,-0.453817 0.515658,-0.406952 1.020873,-0.828147 1.555761,-1.209878 0.530306,-0.349098 0.427418,-0.273572 -0.678458,0.364319 -0.05573,0.03215 0.11259,-0.06236 0.169842,-0.09172 0.09669,-0.04958 0.157185,-0.07558 0.253861,-0.116364 0.02353,-0.0099 0.04728,-0.01934 0.07092,-0.02901 0,0 1.126817,-0.863799 1.126817,-0.863799 z"
       id="path1630"
       style="fill:#000000;fill-opacity:1;fill-rule:nonzero;stroke:none" />
  </g>
</svg>
