<?xml version="1.0" encoding="UTF-8" standalone="no"?>
<svg
   xmlns:dc="http://purl.org/dc/elements/1.1/"
   xmlns:cc="http://creativecommons.org/ns#"
   xmlns:rdf="http://www.w3.org/1999/02/22-rdf-syntax-ns#"
   xmlns:svg="http://www.w3.org/2000/svg"
   xmlns="http://www.w3.org/2000/svg"
   xmlns:sodipodi="http://sodipodi.sourceforge.net/DTD/sodipodi-0.dtd"
   xmlns:inkscape="http://www.inkscape.org/namespaces/inkscape"
   inkscape:version="1.0 (6e3e5246a0, 2020-05-07)"
   sodipodi:docname="logout.svg"
   id="svg62"
   version="1.1"
   width="24"
   viewBox="0 0 24 24"
   height="24">
  <metadata
     id="metadata68">
    <rdf:RDF>
      <cc:Work
         rdf:about="">
        <dc:format>image/svg+xml</dc:format>
        <dc:type
           rdf:resource="http://purl.org/dc/dcmitype/StillImage" />
        <dc:title></dc:title>
      </cc:Work>
    </rdf:RDF>
  </metadata>
  <defs
     id="defs66" />
  <sodipodi:namedview
     inkscape:current-layer="layer5"
     inkscape:window-maximized="1"
     inkscape:window-y="27"
     inkscape:window-x="53"
     inkscape:cy="11.061074"
     inkscape:cx="9.6369184"
     inkscape:zoom="19.51905"
     showgrid="false"
     id="namedview64"
     inkscape:window-height="713"
     inkscape:window-width="1313"
     inkscape:pageshadow="2"
     inkscape:pageopacity="0"
     guidetolerance="10"
     gridtolerance="10"
     objecttolerance="10"
     borderopacity="1"
     bordercolor="#666666"
     pagecolor="#ffffff" />
  <path
     id="path58"
     fill="none"
     d="M0 0h24v24H0z" />
  <g
     inkscape:label="Layer 5"
     id="layer5"
     inkscape:groupmode="layer">
    <ellipse
       ry="6.5250211"
       rx="6.582479"
       cy="12.294777"
       cx="11.753459"
       id="path1542"
       style="fill:none;fill-opacity:1;fill-rule:nonzero;stroke:#000000;stroke-width:0.9;stroke-miterlimit:4;stroke-dasharray:none;stroke-opacity:1" />
    <path
       d="m 10.814374,3.9062705 c 0.02816,0.2704361 0.02779,0.5431904 0.03305,0.814836 0.01429,0.5131193 0.02651,1.0261499 0.0341,1.5394312 0.02597,0.716769 0.02043,1.4337844 0.02263,2.1508463 3.5e-4,0.5883559 -0.0055,1.1767426 -0.01659,1.764991 -0.0052,0.254877 -0.01931,0.509455 -0.02584,0.764282 0.005,0.05473 -0.01727,0.111221 -0.0072,0.165605 0.226703,0.559373 1.512287,-0.230194 1.558684,-0.820407 0,0 -1.556559,0.75308 -1.556559,0.75308 v 0 c -0.209414,0.596177 1.27875,-1.2777519 1.538935,-0.73953 8.1e-5,-0.04436 -0.01172,-0.09295 -0.01122,-0.138451 -0.0166,-0.2422086 -0.03537,-0.4843541 -0.04116,-0.7271492 -0.01679,-0.5791811 -0.03195,-1.1585009 -0.03602,-1.7379296 -0.0028,-0.7208228 -0.01688,-1.4415629 -8.3e-4,-2.1623646 0.0017,-0.5220831 0.0031,-1.0440917 0.01932,-1.565984 0.0043,-0.2812514 -0.0013,-0.5632126 0.01999,-0.8438105 0,0 -1.531323,0.7825544 -1.531323,0.7825544 z"
       id="path1560"
       style="fill:#000000;fill-opacity:1;fill-rule:nonzero;stroke:none" />
  </g>
</svg>
