<?xml version="1.0" encoding="UTF-8" standalone="no"?>
<svg
   xmlns:dc="http://purl.org/dc/elements/1.1/"
   xmlns:cc="http://creativecommons.org/ns#"
   xmlns:rdf="http://www.w3.org/1999/02/22-rdf-syntax-ns#"
   xmlns:svg="http://www.w3.org/2000/svg"
   xmlns="http://www.w3.org/2000/svg"
   xmlns:sodipodi="http://sodipodi.sourceforge.net/DTD/sodipodi-0.dtd"
   xmlns:inkscape="http://www.inkscape.org/namespaces/inkscape"
   inkscape:version="1.0 (6e3e5246a0, 2020-05-07)"
   sodipodi:docname="money.svg"
   id="svg62"
   version="1.1"
   width="24"
   viewBox="0 0 24 24"
   height="24">
  <metadata
     id="metadata68">
    <rdf:RDF>
      <cc:Work
         rdf:about="">
        <dc:format>image/svg+xml</dc:format>
        <dc:type
           rdf:resource="http://purl.org/dc/dcmitype/StillImage" />
        <dc:title></dc:title>
      </cc:Work>
    </rdf:RDF>
  </metadata>
  <defs
     id="defs66" />
  <sodipodi:namedview
     inkscape:current-layer="layer6"
     inkscape:window-maximized="1"
     inkscape:window-y="27"
     inkscape:window-x="53"
     inkscape:cy="11.061074"
     inkscape:cx="9.6369184"
     inkscape:zoom="19.51905"
     showgrid="false"
     id="namedview64"
     inkscape:window-height="713"
     inkscape:window-width="1313"
     inkscape:pageshadow="2"
     inkscape:pageopacity="0"
     guidetolerance="10"
     gridtolerance="10"
     objecttolerance="10"
     borderopacity="1"
     bordercolor="#666666"
     pagecolor="#ffffff" />
  <path
     id="path58"
     fill="none"
     d="M0 0h24v24H0z" />
  <g
     inkscape:label="Layer 6"
     id="layer6"
     inkscape:groupmode="layer">
    <path
       d="M 17.143476,4.4463542 C 16.897773,4.2934504 16.652245,4.1372216 16.3879,4.0177382 16.31082,3.9828985 16.231581,3.9530496 16.153421,3.9207053 15.362525,3.6498023 14.534711,3.5300866 13.707,3.4408405 12.828053,3.3701344 11.939885,3.3912287 11.065235,3.5052836 10.898315,3.5270501 10.732501,3.556587 10.566133,3.5822387 9.9120502,3.7083953 9.2731084,3.9108573 8.6707028,4.1962368 8.0657178,4.4828381 7.2700412,5.0087289 6.8134332,5.2852293 6.2569885,5.7301984 5.8356048,6.277094 5.5889187,6.948321 5.5462034,7.0645484 5.516412,7.1851255 5.4801586,7.3035278 5.3494893,7.8462432 5.361041,8.3178085 5.5610164,8.8410367 c 0.032622,0.085354 0.073901,0.1671423 0.1108518,0.2507135 0.2508396,0.4603157 0.6214652,0.8418067 1.0827696,1.0943868 0.1031323,0.05647 0.212753,0.10018 0.3191295,0.15027 0.1284635,0.03865 0.2552241,0.08349 0.3853904,0.115935 0.2690733,0.06708 0.5698071,0.110414 0.8443558,0.145156 0.4211125,0.05329 0.8441976,0.08787 1.2672793,0.120444 0.8176072,0.04486 1.6367142,0.04793 2.4551002,0.07104 0.746596,0.01256 1.490155,0.08588 2.236552,0.100491 0.514749,-0.0056 1.038813,0.0091 1.533928,0.166263 0.09346,0.02966 0.183441,0.06935 0.275162,0.104023 0.08304,0.04477 0.169268,0.08406 0.249113,0.134298 0.388812,0.244641 0.752777,0.648371 1.05731,0.990496 0.223802,0.271126 0.45323,0.54936 0.604442,0.869899 0.107785,0.228482 0.120318,0.314838 0.189035,0.560808 0.133627,0.552653 0.119404,1.119954 0.02426,1.677281 -0.01978,0.115872 -0.04632,0.230488 -0.06948,0.345732 -0.09623,0.42219 -0.225868,0.837304 -0.434088,1.218721 -0.128663,0.235686 -0.179149,0.291579 -0.336074,0.509898 -0.246933,0.315956 -0.536451,0.597491 -0.86381,0.829652 -0.2036,0.144392 -0.311142,0.199262 -0.528451,0.324281 0.279585,-0.164909 0.565247,-0.319922 0.838753,-0.494727 0.08937,-0.05712 -0.188734,0.09699 -0.285249,0.140968 -0.408261,0.186008 -0.840697,0.314362 -1.265129,0.457165 -0.107332,0.03644 -0.214211,0.07424 -0.321996,0.109318 -0.265272,0.08633 -0.386275,0.124893 -0.663136,0.179081 -0.353512,0.06919 -0.714971,0.10343 -1.072171,0.147247 -0.716411,0.09591 -1.436052,0.03475 -2.147654,-0.06557 C 10.327759,18.970903 9.6223185,18.77817 8.9358956,18.531491 8.3184326,18.305413 7.7589093,17.962244 7.2246956,17.584555 6.8115433,17.284682 6.4605431,16.913504 6.1287695,16.528316 5.9266414,16.28791 5.7593227,16.022313 5.6242565,15.739328 5.587623,15.653318 5.5477481,15.567633 5.52671,15.476131 c -0.00139,-0.01215 0.00186,-0.02117 -0.00123,-0.03297 0,0 -1.2636734,0.674313 -1.2636734,0.674313 v 0 c 0.00354,0.01587 0.00827,0.03285 0.015161,0.0482 0.040078,0.09141 0.092479,0.176845 0.1393711,0.264768 0.1617573,0.281039 0.3395077,0.553593 0.5560173,0.796141 0.3465438,0.388415 0.7209447,0.753897 1.1382427,1.066457 0.081269,0.05832 0.1608642,0.119055 0.2438069,0.174974 0.470932,0.317496 0.984923,0.56797 1.5065642,0.789421 0.69205,0.246102 1.4019454,0.448234 2.1237607,0.585975 0.7188695,0.104366 1.4471805,0.176492 2.1724485,0.0894 0.237384,-0.02757 0.480988,-0.05502 0.718016,-0.08586 0.229719,-0.02988 0.477198,-0.06037 0.70286,-0.115685 0.180083,-0.04414 0.470219,-0.147367 0.644991,-0.206934 0.319819,-0.108113 0.643875,-0.206384 0.961484,-0.320808 0.713893,-0.257192 1.350093,-0.671564 2.003932,-1.054209 0.223333,-0.135353 0.323001,-0.187894 0.530906,-0.344789 0.322288,-0.243214 0.6019,-0.538321 0.842156,-0.861925 0.05929,-0.08723 0.122549,-0.1719 0.177882,-0.261697 0.284508,-0.461717 0.447334,-0.981389 0.554405,-1.509791 0.131089,-0.708488 0.206311,-1.372059 0.03192,-2.083236 -0.05961,-0.223983 -0.09268,-0.38601 -0.187726,-0.597647 -0.149643,-0.333216 -0.399901,-0.611601 -0.626422,-0.89265 -0.202206,-0.219677 -0.407275,-0.435379 -0.623506,-0.641469 -0.160208,-0.152694 -0.274126,-0.263707 -0.459744,-0.384602 -0.08379,-0.05457 -0.174378,-0.09791 -0.261568,-0.146868 -0.0949,-0.03811 -0.187939,-0.0812 -0.284688,-0.114325 -0.503331,-0.172312 -1.033595,-0.200712 -1.561282,-0.187542 -0.754583,-0.0061 -1.507848,-0.05582 -2.261987,-0.07957 -0.81695,-0.02558 -1.63425,-0.03507 -2.4509,-0.067488 C 10.184742,9.9475751 9.7627245,9.9160801 9.3415697,9.8649288 9.0613612,9.8308962 8.7945916,9.7968943 8.5203121,9.72819 8.3983102,9.6976298 8.2798385,9.6543934 8.1596017,9.6174951 8.0578913,9.5708997 7.9530914,9.5305298 7.8544705,9.4777088 7.4138348,9.241706 7.0624051,8.8798786 6.8320669,8.4378392 6.7416463,8.2374689 6.6975808,8.1610037 6.6398262,7.9465215 6.5330418,7.5499583 6.5512277,7.1468328 6.6511778,6.7505555 6.7469538,6.445651 6.7612785,6.3548482 6.9121741,6.0650515 7.1690463,5.5717254 7.5459406,5.1597498 7.9870053,4.8248017 7.7528452,4.9480297 7.521456,5.0766731 7.284525,5.1944856 7.1455243,5.2636028 7.5541822,5.040273 7.6930821,4.9709533 8.2884961,4.6738045 8.9243237,4.4630038 9.5750089,4.3270682 9.7420746,4.2984264 9.908465,4.2655202 10.076206,4.2411426 10.94227,4.1152788 11.822551,4.0924159 12.694644,4.159685 c 0.164691,0.018177 0.329882,0.032285 0.494073,0.054531 0.629711,0.085319 1.252798,0.2343059 1.850487,0.4501209 0.322024,0.1377015 0.639591,0.2972693 0.903502,0.5317644 0,0 1.20077,-0.7497475 1.20077,-0.7497471 z"
       id="path1721"
       style="fill:#000000;fill-opacity:1;fill-rule:nonzero;stroke:none" />
    <path
       d="M 8.3818775,2.4935844 C 8.5185508,2.7587513 8.6145945,3.0411006 8.7027437,3.3252379 8.776,3.5642143 8.8350641,3.8070423 8.887559,4.0512965 c 0.026569,0.1233022 0.054828,0.2461932 0.078677,0.3700667 0.00663,0.055475 0.047137,0.082269 0.085664,0.1199623 0,0 1.149315,-0.8454649 1.149315,-0.8454649 v 0 c 0.007,0.020662 0.01431,0.041202 0.0209,0.061987 8.82e-4,0.00278 0.0027,0.011278 0.0015,0.00863 -0.0033,-0.00709 -0.0051,-0.014741 -0.0077,-0.022112 -0.03884,-0.1178925 -0.0678,-0.2383361 -0.09403,-0.3596101 C 10.056239,3.1438027 9.9708252,2.9087479 9.8986762,2.6697384 9.8088093,2.3814447 9.7128316,2.0952666 9.6198583,1.8081277 c 0,0 -1.2379808,0.6854567 -1.2379808,0.6854567 z"
       id="path1729"
       style="fill:#000000;fill-opacity:1;fill-rule:nonzero;stroke:none" />
    <path
       d="m 9.0207815,2.0140346 c 0.3651699,-0.00717 0.7293352,-0.058826 1.0919605,-0.1010924 0.422613,-0.046994 0.843999,-0.1059483 1.267752,-0.1420448 0.138451,-0.00953 0.277824,-0.015143 0.415673,0.00356 0.129039,0.028888 0.26064,0.033238 0.39228,0.032014 0.111382,-0.00264 0.22281,-0.00391 0.334195,-9.114e-4 0.02853,-0.012382 0.04054,-0.00855 0.07077,0.0016 0.003,0.00153 0.0058,0.0057 0.009,0.0046 0.0093,-0.00321 -0.01289,-0.024976 -0.01746,-0.010789 -0.0091,0.028169 -0.01483,0.057295 -0.02236,0.085913 -0.05669,0.2809768 -0.176298,0.540897 -0.299091,0.7978719 -0.141935,0.274263 -0.287522,0.5465505 -0.419325,0.825927 -0.05858,0.1341324 -0.10811,0.2721078 -0.155109,0.4106763 -0.02409,0.062051 0.03937,0.1118367 0.07347,0.1557221 0,0 1.151368,-0.8479313 1.151368,-0.8479313 v 0 c 0.01425,0.029084 0.02837,0.058237 0.04276,0.087252 0.0035,0.00699 0.0031,0.021737 0.01083,0.020762 0.0078,-9.803e-4 0.0038,-0.015226 0.0057,-0.022839 0.03495,-0.1307185 0.08208,-0.2576169 0.136299,-0.3815591 0.120976,-0.275383 0.263913,-0.5398246 0.392274,-0.8117343 0.127342,-0.2743703 0.257236,-0.5492294 0.330015,-0.8442634 0.01749,-0.081319 0.04031,-0.1902137 -0.04049,-0.2480197 -0.03514,-0.025458 -0.07605,-0.0544725 -0.117987,-0.0630825 -0.117329,0.007677 -0.234814,0.0123625 -0.352347,0.0155603 -0.121181,0.002369 -0.244123,0.008414 -0.363088,-0.0198251 -0.156273,-0.0336951 -0.313723,-0.0277031 -0.472212,-0.009788 -0.434714,0.0466566 -0.866269,0.1185569 -1.30106,0.1648879 -0.335567,0.033179 -0.671979,0.066214 -1.009188,0.075022 0,0 -1.1545765,0.8225206 -1.1545765,0.8225206 z"
       id="path1731"
       style="fill:#000000;fill-opacity:1;fill-rule:nonzero;stroke:none" />
    <path
       d="m 10.860279,20.305929 c -0.09855,0.302614 -0.240442,0.58915 -0.381426,0.873766 -0.134093,0.274446 -0.271869,0.547134 -0.425106,0.811455 -0.0093,0.04848 -0.063908,0.08099 -0.074337,0.129732 -0.00401,0.01872 0.00431,0.03805 0.00647,0.05707 0,0 1.271757,-0.641407 1.271757,-0.641407 v 0 c 0.02627,0.01306 0.04979,-0.111544 0.06821,-0.116272 0.132912,-0.267585 0.262974,-0.536549 0.395357,-0.804394 0.143617,-0.301821 0.286198,-0.604187 0.422,-0.909609 0,0 -1.282924,0.599657 -1.282924,0.599657 z"
       id="path1733"
       style="fill:#000000;fill-opacity:1;fill-rule:nonzero;stroke:none" />
    <path
       d="m 12.839678,20.206101 c 0.147401,0.258941 0.272568,0.529405 0.378155,0.807801 0.08009,0.237566 0.128039,0.484124 0.167157,0.731251 0.0023,0.01313 0.0047,0.02625 0.007,0.03938 0,0 1.247153,-0.681174 1.247153,-0.681174 v 0 c -0.0043,-0.0092 -0.0085,-0.0185 -0.01277,-0.02775 -0.07827,-0.239852 -0.130401,-0.487502 -0.213966,-0.725771 -0.106137,-0.281986 -0.242239,-0.551673 -0.338044,-0.837591 0,0 -1.234695,0.693858 -1.234695,0.693858 z"
       id="path1735"
       style="fill:#000000;fill-opacity:1;fill-rule:nonzero;stroke:none" />
    <path
       d="m 13.001848,21.471196 c -0.195502,0.04941 -0.397594,0.06371 -0.59827,0.07493 -0.01889,0.01721 -0.120468,-0.0083 -0.141379,0.0061 -0.0049,0.0034 0.01413,0.01153 0.0094,0.01514 -1.076602,0.82321 -1.548993,1.008951 -1.027403,0.794467 0.288043,-0.08687 0.588956,-0.116562 0.887978,-0.13574 0.09052,-0.0066 0.181114,-0.0061 0.271719,-0.0049 0,0 1.13155,-0.863668 1.13155,-0.863668 v 0 c -0.08175,0.05071 -0.195225,0.01686 -0.285003,0.04191 -0.299448,0.02993 -0.599032,0.06074 -0.89631,0.108198 -0.559061,0.08099 -0.127938,0.0056 -1.262537,0.86895 -0.0091,0.007 0.0167,0.01758 0.02787,0.02029 0.04712,0.01141 0.10738,-0.02984 0.154737,-0.01736 0.199407,-0.01824 0.398992,-0.03451 0.598385,-0.05291 0,0 1.129249,-0.855413 1.129249,-0.855413 z"
       id="path1737"
       style="fill:#000000;fill-opacity:1;fill-rule:nonzero;stroke:none" />
    <path
       d="m 8.8503289,6.2157297 c 0.016497,-0.02157 0.031976,-0.043958 0.04949,-0.06471 C 8.9881637,6.0463406 9.0937441,5.9564212 9.2057792,5.8779397 9.2523059,5.8453474 9.3986357,5.7578609 9.3494328,5.7862523 9.0093956,5.9824632 8.6719109,6.1830647 8.33315,6.3814709 8.7168004,6.1974648 9.1231651,6.0626018 9.5295335,5.9382199 9.9356683,5.8260234 10.343015,5.7175616 10.756897,5.6379759 c 0.484347,-0.086576 0.975763,-0.090217 1.465313,-0.063836 0.422141,0.017414 0.836036,0.090117 1.238472,0.2164168 0.256296,0.083139 0.479276,0.2269832 0.682631,0.4001853 0.158022,0.1406705 0.285254,0.310763 0.419216,0.4734142 0.13421,0.1597216 0.237487,0.3412883 0.337824,0.5232512 0.02044,0.035842 0.03785,0.073302 0.05814,0.1092083 0,0 1.228115,-0.7322346 1.228115,-0.7322346 v 0 C 16.155171,6.5492056 16.144393,6.498599 16.117684,6.4782328 15.993281,6.3044838 15.884146,6.1204909 15.756396,5.9492287 15.619065,5.7785225 15.486869,5.6011929 15.324575,5.4530613 15.104063,5.2685972 14.862536,5.1156151 14.587698,5.0241853 14.17536,4.8882715 13.746884,4.8145682 13.313221,4.7907458 12.819487,4.7621694 12.322993,4.7561858 11.832128,4.827383 11.414919,4.8960893 11.005777,4.999561 10.598558,5.1130068 10.192593,5.231732 9.7922263,5.3706902 9.3977684,5.5231315 8.8116723,5.8614441 7.9869874,6.1829543 7.5566749,6.7869522 c 0,0 1.293654,-0.5712225 1.293654,-0.5712225 z"
       id="path1739"
       style="fill:#000000;fill-opacity:1;fill-rule:nonzero;stroke:none" />
    <path
       d="m 19.76268,4.1953033 c -0.428906,0.2503605 -0.860158,0.4967442 -1.286718,0.7510816 -0.102199,0.060936 -0.191159,0.1417405 -0.287159,0.2120385 -0.257918,0.1888658 -0.516158,0.3766337 -0.771569,0.5689314 -0.553038,0.4288733 -1.09039,0.877045 -1.612321,1.343138 -0.120817,0.1097086 -0.242558,0.2183949 -0.364684,0.3266423 -0.02017,0.017876 -0.04033,0.035763 -0.06058,0.053542 -0.01162,0.010197 -0.02669,0.01737 -0.03503,0.030383 -0.0049,0.00758 -0.0012,0.01798 -0.0017,0.02697 0,0 1.308595,-0.5807491 1.308595,-0.5807491 v 0 c 0.0019,0.00478 9.04e-4,0.016058 0.0058,0.014335 0.01665,-0.00591 0.136838,-0.1374576 0.143628,-0.1441034 0.113992,-0.1115697 0.114245,-0.1110195 0.241267,-0.2324819 0.502661,-0.4641408 1.026868,-0.9048919 1.575374,-1.3141419 0.273043,-0.1989133 0.547366,-0.3955194 0.825438,-0.5873637 0.0651,-0.044913 0.130156,-0.089904 0.196061,-0.1336256 0.04559,-0.030242 0.185929,-0.1152956 0.13838,-0.088241 -0.373406,0.2124668 -0.744075,0.4297107 -1.116113,0.644566 0,0 1.101421,-0.8909206 1.101421,-0.8909206 z"
       id="path1741"
       style="fill:#000000;fill-opacity:1;fill-rule:nonzero;stroke:none" />
    <path
       d="m 3.8535827,15.519131 c 0.4805655,-0.517612 1.0111137,-0.987421 1.5285453,-1.467677 0.5490484,-0.517813 1.1405349,-0.987033 1.7423773,-1.441307 0.1553172,-0.112436 0.3083242,-0.231166 0.476768,-0.32404 0.0174,-0.0096 0.070671,-0.03629 0.053484,-0.02632 -0.3936053,0.228371 -0.7885709,0.454388 -1.1828563,0.681582 0.017744,-0.01985 0.024469,-0.03724 0.052362,-0.04166 0,0 1.1766271,-0.803919 1.1766271,-0.803919 v 0 c -0.037762,-0.02115 -0.074574,-0.04894 -0.1200016,-0.04285 -0.6063909,0.347369 -1.1765108,0.615453 -1.6964979,1.0528 -0.5675088,0.454488 -1.1324422,0.912837 -1.6560931,1.418298 -0.5557793,0.510932 -1.1263171,1.006441 -1.6637283,1.536919 0,0 1.2890127,-0.541824 1.2890127,-0.541824 z"
       id="path1743"
       style="fill:#000000;fill-opacity:1;fill-rule:nonzero;stroke:none" />
    <path
       d="m 6.0630131,13.303272 c 0.1649733,0.303986 0.3484652,0.597204 0.5300944,0.891379 0.2909621,0.46169 0.6168625,0.908774 1.0000066,1.299292 0.084334,0.08596 0.1747677,0.165708 0.2621516,0.248562 0.4976353,0.446396 1.0536465,0.818147 1.6217567,1.167282 0.3406177,0.198836 0.6786686,0.406047 1.0445436,0.556262 0.240085,0.09857 0.318495,0.116505 0.566106,0.192651 0.361493,0.09376 0.726263,0.194 1.100452,0.221277 0.204666,0.01492 0.258051,0.0047 0.458324,-0.0084 0.395507,-0.04623 0.770182,-0.184943 1.143981,-0.31461 0.230956,-0.08157 0.45358,-0.185274 0.665274,-0.308418 1.328825,-0.772993 0.907476,-0.470223 1.447934,-0.867951 0.271942,-0.218996 0.534141,-0.450076 0.78415,-0.693791 0.251124,-0.254177 0.454137,-0.548614 0.659296,-0.839515 0.199546,-0.267958 0.334571,-0.573238 0.459887,-0.880744 0.121384,-0.298024 0.211149,-0.606913 0.269028,-0.923175 0.056,-0.308527 0.105297,-0.616837 0.11164,-0.930647 0.0034,-0.212299 -0.03918,-0.416245 -0.141185,-0.602216 -0.04551,-0.07444 -0.100821,-0.142612 -0.166305,-0.200128 0,0 -1.182713,0.797141 -1.182713,0.797141 v 0 c 0.0017,-0.0054 -4.89e-4,-0.01501 0.005,-0.0161 0.01474,-0.0029 0.115548,0.109688 0.124603,0.123876 0.09903,0.157298 0.131313,0.336534 0.128587,0.521384 -0.0087,0.304842 -0.05576,0.605783 -0.113211,0.905028 -0.06638,0.308547 -0.163156,0.607669 -0.282499,0.899955 -0.124637,0.298556 -0.27317,0.585813 -0.46363,0.848433 -0.206068,0.287732 -0.417517,0.57449 -0.675778,0.818338 -0.252787,0.23736 -0.509984,0.471641 -0.791563,0.674857 -0.469811,0.318042 -0.141195,0.09055 0.887756,-0.493559 0.0528,-0.02997 -0.103625,0.06331 -0.15636,0.09339 -0.123173,0.07025 -0.200234,0.110546 -0.32974,0.16678 -0.05252,0.02281 -0.106287,0.04262 -0.15943,0.06393 -0.373919,0.136259 -0.746519,0.285261 -1.140424,0.353718 -0.190287,0.02465 -0.259236,0.04032 -0.454877,0.03719 -0.373725,-0.006 -0.737321,-0.10119 -1.097554,-0.191076 C 11.942206,16.845309 11.851287,16.825179 11.62261,16.73436 11.258811,16.589877 10.921134,16.388611 10.581792,16.195826 10.015998,15.85625 9.4546517,15.501785 8.9600588,15.061987 8.8756195,14.980746 8.7887285,14.901978 8.7067409,14.818264 8.329896,14.433482 8.0095651,13.997232 7.751236,13.524883 7.5856282,13.227744 7.4133195,12.930177 7.2961808,12.609806 c 0,0 -1.2331677,0.693466 -1.2331677,0.693466 z"
       id="path1747"
       style="fill:#000000;fill-opacity:1;fill-rule:nonzero;stroke:none" />
    <path
       d="M 7.8127882,6.502331 C 7.6594051,6.6640917 7.543048,6.8539355 7.4360761,7.0481501 7.3607403,7.200881 7.2777768,7.3697435 7.2835203,7.5455328 c 0.00372,0.1138284 0.035437,0.1866767 0.069684,0.293818 0.082732,0.1969327 0.1912143,0.3895798 0.3540123,0.5323872 0.125202,0.109828 0.2202594,0.1576902 0.3640599,0.2443084 0.5737533,0.3183722 1.2305509,0.34288 1.8703616,0.3716179 0.8430229,0.024672 1.6817019,-0.089865 2.5238859,-0.095989 0.166972,-0.00121 0.333904,0.0058 0.500856,0.0087 0.778667,0.02841 1.550202,0.1342905 2.317872,0.261185 0.569829,0.085396 1.132065,0.2091764 1.693372,0.3375066 0.419003,0.081257 0.809936,0.2413439 1.175699,0.457821 0.28504,0.1830531 0.493574,0.4475911 0.674462,0.7288591 0.213198,0.35479 0.32912,0.751411 0.426428,1.150337 0.110004,0.480036 0.166505,0.969273 0.211371,1.458941 0.04764,0.441956 0.03972,0.885178 -3.15e-4,1.326999 -0.04839,0.430774 -0.137005,0.855714 -0.23639,1.277218 -0.07227,0.364393 -0.247543,0.680192 -0.463578,0.976885 -0.198487,0.244152 -0.438162,0.450139 -0.689754,0.637338 -0.44728,0.349765 -1.638492,1.013793 0.470686,-0.212513 -0.179994,0.104342 -0.375618,0.175881 -0.57008,0.247644 -0.118118,0.04214 -0.23322,0.09289 -0.35314,0.12981 0,0 -1.126337,0.854864 -1.126337,0.854864 v 0 c 0.131753,-0.01743 0.252731,-0.06949 0.375287,-0.119096 0.199529,-0.07885 0.403395,-0.147235 0.596622,-0.241229 0.644924,-0.373983 1.299497,-0.712084 1.88599,-1.17033 0.245916,-0.197487 0.480602,-0.412847 0.663305,-0.671879 0.215133,-0.326464 0.361203,-0.627106 0.427732,-1.017071 0.09643,-0.426809 0.188198,-0.854722 0.22447,-1.291845 0.04084,-0.448903 0.04338,-0.900346 -0.01499,-1.348253 -0.05595,-0.493859 -0.104826,-0.990206 -0.219758,-1.474761 -0.09804,-0.415314 -0.205577,-0.830387 -0.4268,-1.2004431 C 19.82268,9.6941229 19.596323,9.4159569 19.298349,9.2141339 18.916188,8.9936113 18.511202,8.8176159 18.074364,8.7388168 17.502674,8.6117042 16.930099,8.4925319 16.34907,8.4147259 15.562426,8.2800073 14.769116,8.1957364 13.97074,8.1731213 c -0.465886,-0.00685 -0.571389,-0.014644 -1.041577,0.0041 -0.64749,0.025813 -1.294723,0.095373 -1.943598,0.059681 C 10.378138,8.2052463 9.7504035,8.1836231 9.2042398,7.884493 9.1436026,7.8466492 9.0808723,7.8119688 9.0223281,7.7709614 8.8108077,7.6228014 8.6520312,7.4220203 8.5644047,7.1787769 8.5537436,7.1364152 8.5387343,7.094916 8.5324216,7.051692 8.5026978,6.8481689 8.6068503,6.6580989 8.6998424,6.4857801 8.8177954,6.292695 8.9513632,6.1100911 9.1224711,5.9600227 c 0,0 -1.3096829,0.5423083 -1.3096829,0.5423083 z"
       id="path1753"
       style="fill:#000000;fill-opacity:1;fill-rule:nonzero;stroke:none" />
    <circle
       r="0.047768719"
       cy="17.384174"
       cx="20.897223"
       style="fill:#000000;stroke:#000000"
       id="path1755" />
    <path
       d="m 18.919471,4.2185154 c -0.219245,0.2194975 -0.4456,0.4316211 -0.666188,0.6497593 -0.35051,0.3651406 -0.725536,0.7049374 -1.1036,1.0409792 -0.149802,0.1333155 -0.297204,0.2693046 -0.44384,0.4060849 -0.07321,0.068293 -0.143162,0.1307398 -0.198835,0.2138811 -0.01042,0.1321268 0.05263,0.1553921 0.159813,0.162084 0,0 1.125632,-0.8555089 1.125632,-0.8555089 v 0 c -0.0453,0.03597 -0.09542,0.0929 0.01326,0.1339104 0.179298,-0.20263 0.385971,-0.3795698 0.581923,-0.5653931 0.379896,-0.3441011 0.755612,-0.6924593 1.119631,-1.0534513 0.235902,-0.2259629 0.468753,-0.4584888 0.728899,-0.6566312 0,0 -1.316692,0.5242856 -1.316692,0.5242856 z"
       id="path1757"
       style="fill:#000000;fill-opacity:1;fill-rule:nonzero;stroke:none" />
    <path
       d="m 15.183198,4.962885 c 0.162355,0.026654 0.316127,0.094732 0.46211,0.168694 0.130158,0.070257 0.245306,0.1627076 0.349037,0.2674081 0.05517,0.060567 0.108364,0.1231282 0.15736,0.1888172 0.02783,0.038731 0.05442,0.078287 0.08308,0.1164139 0.02251,0.032064 0.04873,0.061463 0.08977,0.064332 0.02451,0.00406 0.044,0.020263 0.0623,0.036012 0.0088,0.00834 0.0049,0.0031 4.03e-4,-0.00434 -0.01417,-0.026785 -0.02835,-0.053571 -0.04252,-0.080356 0,0 1.31693,-0.5668176 1.31693,-0.5668176 v 0 c -0.01337,-0.027843 -0.02675,-0.055686 -0.04012,-0.083528 -0.0059,-0.00947 -0.01217,-0.017783 -0.02144,-0.02428 -0.0289,-0.023244 -0.05855,-0.045561 -0.08772,-0.068456 -0.06213,-0.040479 -0.02716,0.00495 -0.05309,-0.00831 -0.03223,-0.033787 -0.05866,-0.072092 -0.08765,-0.1085776 -0.05662,-0.068216 -0.108599,-0.1407259 -0.176329,-0.1988428 -0.116633,-0.1104846 -0.2374,-0.2162545 -0.377357,-0.2968871 -0.151047,-0.08377 -0.31151,-0.1453002 -0.470595,-0.2120416 0,0 -1.164173,0.8107524 -1.164173,0.8107524 z"
       id="path1761"
       style="fill:#000000;fill-opacity:1;fill-rule:nonzero;stroke:none" />
    <circle
       r="0.047768719"
       cy="11.109841"
       cx="19.446756"
       style="fill:#000000;stroke:#000000"
       id="path1763" />
  </g>
</svg>
