<?xml version="1.0" encoding="UTF-8" standalone="no"?>
<svg
   xmlns:dc="http://purl.org/dc/elements/1.1/"
   xmlns:cc="http://creativecommons.org/ns#"
   xmlns:rdf="http://www.w3.org/1999/02/22-rdf-syntax-ns#"
   xmlns:svg="http://www.w3.org/2000/svg"
   xmlns="http://www.w3.org/2000/svg"
   xmlns:sodipodi="http://sodipodi.sourceforge.net/DTD/sodipodi-0.dtd"
   xmlns:inkscape="http://www.inkscape.org/namespaces/inkscape"
   inkscape:version="1.0 (6e3e5246a0, 2020-05-07)"
   sodipodi:docname="piggy.svg"
   id="svg62"
   version="1.1"
   width="24"
   viewBox="0 0 24 24"
   height="24">
  <metadata
     id="metadata68">
    <rdf:RDF>
      <cc:Work
         rdf:about="">
        <dc:format>image/svg+xml</dc:format>
        <dc:type
           rdf:resource="http://purl.org/dc/dcmitype/StillImage" />
        <dc:title></dc:title>
      </cc:Work>
    </rdf:RDF>
  </metadata>
  <defs
     id="defs66" />
  <sodipodi:namedview
     inkscape:current-layer="layer6"
     inkscape:window-maximized="1"
     inkscape:window-y="27"
     inkscape:window-x="53"
     inkscape:cy="11.240386"
     inkscape:cx="3.6940063"
     inkscape:zoom="19.51905"
     showgrid="false"
     id="namedview64"
     inkscape:window-height="713"
     inkscape:window-width="1313"
     inkscape:pageshadow="2"
     inkscape:pageopacity="0"
     guidetolerance="10"
     gridtolerance="10"
     objecttolerance="10"
     borderopacity="1"
     bordercolor="#666666"
     pagecolor="#ffffff" />
  <path
     id="path58"
     fill="none"
     d="M0 0h24v24H0z" />
  <g
     inkscape:label="Layer 6"
     id="layer6"
     inkscape:groupmode="layer">
    <path
       d="m 1.7194471,13.134648 c 0.2673779,-0.0686 0.5370777,-0.126933 0.8086833,-0.176003 0.1436579,-0.02434 0.2874686,-0.04818 0.4319752,-0.06699 0.011479,-0.0015 0.022963,-0.0029 0.034516,-0.0035 0,0 1.1411108,-0.863805 1.1411108,-0.863805 v 0 c -0.014244,0.0044 -0.02868,0.008 -0.043161,0.01156 -0.157772,0.038 -0.3169018,0.07004 -0.4762289,0.100769 -0.2566391,0.05021 -0.5131322,0.101902 -0.7711768,0.144389 0,0 -1.1257183,0.853621 -1.1257183,0.853621 z"
       id="path1659"
       style="fill:#000000;fill-opacity:1;fill-rule:nonzero;stroke:none" />
    <path
       d="m 1.5217715,13.12606 c 0.0087,0.280649 -0.00105,0.561532 -0.0063,0.842173 -0.011092,0.309093 0.00456,0.618164 -0.00336,0.927223 -0.00307,0.161466 -0.017764,0.322123 -0.035224,0.482528 -0.00651,0.07943 -0.00177,0.159244 -0.00135,0.238849 0.00384,0.07905 2.918e-4,0.158234 0.011372,0.236695 0.028232,0.154288 0.2112807,0.104803 0.3184266,0.09445 0.2149939,-0.01988 0.4288926,-0.0496 0.6432203,-0.07541 0.1809478,-0.02275 0.3603268,-0.057 0.5424548,-0.06912 0.095709,-0.0035 0.1914559,-0.0064 0.2872303,-0.005 0.038533,-0.0021 0.078667,0.01097 0.1153704,-0.0027 -0.017862,-0.02836 -0.00776,-0.01235 -0.030335,-0.04802 0,0 1.2540021,-0.684145 1.2540021,-0.684145 v 0 c -0.029951,-0.06257 -0.013407,-0.03802 -0.044128,-0.07707 -0.048104,-0.02641 -0.099084,-0.01814 -0.1523505,-0.01693 -0.1005517,4.2e-5 -0.2011908,-0.006 -0.3015985,0.0024 -0.1884629,0.01306 -0.3740854,0.04192 -0.5603287,0.07314 -0.211485,0.02599 -0.4224243,0.05744 -0.6345891,0.0769 -0.013426,7.05e-4 -0.1796574,0.0036 -0.1902929,0.01683 -0.00787,0.0098 0.010346,0.05287 0.014412,0.06074 0.00192,0.0037 -0.00196,-0.0081 -0.00294,-0.01217 -0.012418,-0.06955 -0.011472,-0.14103 -0.011375,-0.211401 8.91e-4,-0.07829 0.00532,-0.156376 0.0064,-0.234642 -0.00334,-0.156244 -0.00495,-0.312473 -0.00677,-0.468741 -0.00931,-0.305344 -0.018121,-0.610761 -0.011525,-0.916291 0.006,-0.288763 0.012915,-0.578877 0.064631,-0.863874 0,0 -1.2650399,0.633554 -1.2650399,0.633554 z"
       id="path1661"
       style="fill:#000000;fill-opacity:1;fill-rule:nonzero;stroke:none" />
    <path
       d="m 4.71977,15.594892 c -0.059611,-0.01272 -0.1227049,-0.02464 -0.1783395,-0.0507 -0.016369,-0.0086 -0.031242,-0.01952 -0.046088,-0.03042 -0.3300783,-0.44285 -0.05346,-0.116554 -1.2340183,0.735587 -0.00485,0.0035 0.090639,0.143007 0.096653,0.151808 0.1243626,0.196525 0.2554736,0.385921 0.4040857,0.564917 0.1968081,0.23926 0.4284375,0.445205 0.6536476,0.656668 0.2622476,0.245556 0.5279431,0.487333 0.7883153,0.734911 0.2778347,0.268749 0.5940807,0.489128 0.9164885,0.699873 0.3336894,0.221322 0.6936285,0.3954 1.061147,0.551957 0.3975936,0.161413 0.8225854,0.233366 1.2453756,0.291856 0.4183086,0.04875 0.836477,0.09449 1.2570382,0.117536 0.3829419,0.03263 0.7644669,0.0077 1.1459759,-0.02663 0.356825,-0.03087 0.713431,-0.06336 1.069345,-0.103512 0.356034,-0.04942 0.711664,-0.100799 1.069125,-0.138948 0.306738,-0.02101 0.608759,-0.07632 0.910067,-0.134815 0.238577,-0.04607 0.472604,-0.111484 0.706935,-0.174967 0.206977,-0.05914 0.40837,-0.135762 0.612174,-0.204747 0.191436,-0.0642 0.383156,-0.127718 0.571986,-0.199291 0.176336,-0.07102 0.349121,-0.149846 0.517082,-0.238815 0.06103,-0.03364 0.124159,-0.06806 0.184531,-0.102883 0.425092,-0.245203 0.850438,-0.489971 1.27476,-0.736504 0.358965,-0.208561 -1.436278,0.833493 -1.078687,0.622585 0.426627,-0.251627 0.857707,-0.49563 1.285806,-0.744745 0.03668,-0.02135 0.07234,-0.04441 0.108505,-0.06662 0.213327,-0.129577 0.409033,-0.284885 0.605142,-0.438564 0.21821,-0.166981 0.408318,-0.362765 0.575183,-0.580222 0.157325,-0.200874 0.284038,-0.421572 0.408666,-0.643368 0.103244,-0.181207 0.198569,-0.366751 0.290707,-0.553808 0.03907,-0.08596 0.07019,-0.175247 0.101982,-0.264083 0.02539,-0.0632 -0.04364,-0.116135 -0.07762,-0.163334 0,0 -1.130844,0.877486 -1.130844,0.877486 v 0 c -0.02085,-0.03608 -0.042,-0.07199 -0.06256,-0.108234 -0.01836,-0.03237 -0.0089,-0.02026 -0.0166,10e-4 -0.02204,0.08134 -0.05211,0.16004 -0.08683,0.236818 -0.08102,0.183483 -0.177143,0.359281 -0.274022,0.534786 -0.122468,0.216454 -0.258319,0.425075 -0.412627,0.620403 -0.175093,0.206686 -0.372799,0.390466 -0.590497,0.552139 -0.196575,0.151451 -0.397628,0.297148 -0.611295,0.423877 -0.03637,0.02174 -0.145834,0.08631 -0.109098,0.06521 0.356,-0.204514 1.422788,-0.820168 1.066906,-0.615446 -4.174809,2.401567 0.853743,-0.48707 -0.371205,0.213188 -0.164904,0.09221 -0.332762,0.177711 -0.50707,0.251047 -0.186164,0.08021 -0.379156,0.142719 -0.570596,0.209028 -0.202409,0.06692 -0.403025,0.138635 -0.604483,0.208212 -0.239694,0.06722 -0.476859,0.144324 -0.72051,0.196504 -0.300288,0.06617 -0.602467,0.123062 -0.90923,0.14944 -0.357223,0.04406 -0.714375,0.08874 -1.070779,0.139077 -0.357174,0.04671 -0.715625,0.08131 -1.074543,0.111636 -0.380086,0.03884 -0.760542,0.07118 -1.143091,0.04848 C 10.348456,19.222514 9.9322304,19.178152 9.5162788,19.13124 9.1017935,19.081046 8.6851158,19.019558 8.2936852,18.867388 7.9317285,18.716851 7.5791498,18.542437 7.245328,18.336355 6.9321392,18.128982 6.6245111,17.909304 6.3509735,17.650838 6.0909785,17.403578 5.8261833,17.161517 5.5678116,16.91255 5.3498709,16.70371 5.1307871,16.494669 4.9368929,16.262799 4.7971996,16.086443 4.6711986,15.900158 4.5696575,15.698897 c -0.017281,-0.03364 -0.036505,-0.06661 -0.04812,-0.102868 -0.00202,-0.0063 0.00291,-0.02313 -0.0027,-0.01963 -1.2195433,0.760461 -0.9620408,1.119577 -1.2342264,0.703371 0.020148,0.01552 0.04295,0.02725 0.064171,0.04116 0.063473,0.03953 0.1314188,0.05906 0.2023254,0.08191 0,0 1.1686613,-0.807946 1.1686613,-0.807946 z"
       id="path1665"
       style="fill:#000000;fill-opacity:1;fill-rule:nonzero;stroke:none" />
    <path
       d="M 4.7186018,11.370982 C 4.8541629,11.126051 5.0431272,10.912996 5.2188578,10.69631 5.4947105,10.354632 5.7890394,10.028899 6.1095526,9.7287394 6.3264425,9.5333783 6.5617111,9.3596332 6.8115288,9.2087218 6.8781431,9.1684811 7.0811728,9.0531667 7.0141489,9.0927214 6.7050601,9.2751328 6.3949298,9.4557738 6.0853202,9.6373 6.5382057,9.4012403 7.0345596,9.2753853 7.5278556,9.1561981 7.9951192,9.0478454 8.4690909,8.9732892 8.944545,8.912201 9.3487667,8.858437 9.7553453,8.830587 10.162673,8.8169 c 0.473003,-0.016584 0.945632,0.016935 1.417728,0.04162 0.490869,0.027174 0.976798,0.1028446 1.461992,0.1782143 0.440804,0.084279 0.889253,0.1087429 1.334497,0.1583865 0.346855,0.039594 0.68433,0.1232693 1.014968,0.2329067 0.319716,0.1185182 0.639689,0.2363572 0.960388,0.3521959 0.334018,0.1160352 0.663792,0.2403416 0.980685,0.3975996 0.233606,0.121026 0.468349,0.239515 0.697316,0.369189 0.151056,0.08149 0.277751,0.193553 0.395462,0.316622 0.108376,0.115476 0.206456,0.240043 0.30162,0.366462 0.05061,0.07128 0.100584,0.142997 0.150892,0.214488 0.0088,0.01247 0.01753,0.02504 0.02591,0.03782 0,0 1.220034,-0.752652 1.220034,-0.752652 v 0 c -0.0065,-0.0026 -0.01982,-0.01116 -0.02585,-0.01907 -0.06226,-0.06063 -0.114512,-0.13009 -0.169909,-0.196832 C 19.8256,10.387766 19.727333,10.257956 19.620157,10.135536 19.492293,10.001187 19.350089,9.8837564 19.186727,9.7940999 18.951293,9.6626809 18.705645,9.5508087 18.464267,9.4308948 18.140469,9.2801344 17.810963,9.1434614 17.474441,9.0234528 17.153469,8.9050218 16.829531,8.7946915 16.510745,8.6703308 16.172017,8.5501605 15.82355,8.4537602 15.464325,8.4211561 15.017699,8.3832116 14.569886,8.3543216 14.128239,8.2730972 13.63427,8.1964203 13.138035,8.1348959 12.639186,8.100122 12.174199,8.0613782 11.707721,8.0196866 11.2407,8.0293328 10.829033,8.0371212 10.418283,8.0587869 10.010203,8.1171114 9.5263447,8.1783494 9.0455767,8.2599335 8.568772,8.3630804 8.0749124,8.4727282 7.5784291,8.595763 7.1173632,8.808249 6.3513979,9.2432741 5.5290813,9.6271319 4.8785868,10.235614 4.5645852,10.543968 4.2737254,10.873843 3.997132,11.216137 3.7970856,11.454901 3.5839722,11.688218 3.424989,11.95729 c 0,0 1.2936128,-0.586308 1.2936128,-0.586308 z"
       id="path1667"
       style="fill:#000000;fill-opacity:1;fill-rule:nonzero;stroke:none" />
    <path
       d="m 18.937778,12.016406 c 0.190045,0.175596 0.251906,0.423739 0.301132,0.66793 0.06238,0.372612 0.06126,0.750427 0.04488,1.126547 -0.01491,0.32617 -0.07658,0.647283 -0.118267,0.97044 -0.02431,0.202848 -0.05294,0.405053 -0.08461,0.606863 -0.0057,0.04774 -0.01627,0.09485 -0.02182,0.142595 5.17e-4,0.01255 0.0046,0.01557 0.01192,0.02969 0,0 1.255473,-0.693734 1.255473,-0.693734 v 0 c 6.12e-4,0.0012 0.0092,0.02273 0.01195,0.02112 -0.0016,-0.04154 -6.62e-4,-0.08311 0.0015,-0.124618 0.0098,-0.19644 0.02819,-0.392287 0.05213,-0.587507 0.04019,-0.322307 0.0755,-0.645688 0.08899,-0.970351 0.0065,-0.386717 0.01612,-0.77677 -0.04771,-1.159674 -0.05358,-0.269616 -0.123264,-0.53234 -0.285522,-0.759538 0,0 -1.210068,0.730238 -1.210068,0.730238 z"
       id="path1669"
       style="fill:#000000;fill-opacity:1;fill-rule:nonzero;stroke:none" />
    <path
       d="m 21.756476,8.8497531 c -1.554444,-0.4949394 1.365797,-0.3365709 1.339803,-0.8719334 -0.0036,-0.073743 -0.03203,-0.098691 -0.07105,-0.1574931 -0.02571,-0.019431 -0.04867,-0.043165 -0.07712,-0.058293 -0.194951,-0.1036573 -0.487218,-0.029389 -0.689472,0.01262 -0.218208,0.058419 -0.438909,0.1310213 -0.635709,0.2446409 -1.300485,0.7508148 -0.952903,0.3867896 -1.375389,0.8542136 -0.17588,0.2603752 -0.140096,0.5687929 -0.106617,0.8646011 0.04302,0.3893998 0.271407,0.7066198 0.472915,1.0296088 0.131495,0.214652 0.242793,0.444619 0.286103,0.694674 0.02502,0.144432 0.01886,0.202847 0.01909,0.348979 -0.01231,0.211314 -0.0417,0.424693 -0.121858,0.622199 -0.04843,0.119339 -0.07649,0.156517 -0.142299,0.266197 -0.139874,0.216617 -0.348247,0.364274 -0.562582,0.499506 -0.428112,0.245369 -0.986872,0.569143 1.052853,-0.610956 0.0094,-0.0054 -0.01911,0.01185 -0.02461,0.02116 0,0 -1.12254,0.882493 -1.12254,0.882493 v 0 c 0.02554,-8.51e-4 0.01986,0.002 0.04615,-0.01316 0.45193,-0.260533 0.917366,-0.486298 1.340142,-0.786685 0.204028,-0.151357 0.394678,-0.318756 0.512848,-0.548673 0.0581,-0.115817 0.0889,-0.167243 0.130554,-0.291762 0.07038,-0.210369 0.08623,-0.433787 0.09014,-0.653921 -0.0022,-0.06333 -5.54e-4,-0.126892 -0.0065,-0.189981 -0.03075,-0.328961 -0.169187,-0.635059 -0.341587,-0.912652 -0.19102,-0.3070113 -0.393583,-0.6130791 -0.427342,-0.9833859 -0.01968,-0.2712434 -0.02965,-0.5521326 0.174118,-0.7603468 0.408863,-0.3297175 0.129417,-0.095899 -0.951703,0.5189164 -0.04704,0.026752 0.09304,-0.055405 0.140915,-0.080629 0.09007,-0.047454 0.220721,-0.1072694 0.31628,-0.1425663 0.05125,-0.018931 0.104042,-0.033398 0.156063,-0.050096 0.201998,-0.049665 0.426165,-0.115202 0.633368,-0.061564 0.02037,0.021823 -0.0078,0.031849 -0.02974,0.047602 -0.37421,0.2687982 -1.415303,0.3860183 1.084824,-0.6196604 0,0 -1.110092,0.8863422 -1.110092,0.8863422 z"
       id="path1671"
       style="fill:#000000;fill-opacity:1;fill-rule:nonzero;stroke:none" />
    <path
       d="M 5.3574209,7.2342466 C 5.2737584,7.7123162 5.1795235,8.1882009 5.079562,8.6631137 5.0325747,8.88471 4.9847724,9.1062131 4.9306683,9.3262056 c -0.010773,0.043803 -0.02218,0.087448 -0.033704,0.131059 -0.00742,0.028084 -0.021269,0.055029 -0.02313,0.084017 -0.00131,0.02044 0.00926,0.039903 0.013893,0.059855 C 5.3153745,9.3658114 5.7574799,9.1550356 6.170669,8.8951609 6.20437,8.8739639 6.187166,8.8172609 6.195836,8.7784035 6.258986,8.4953538 6.3000796,8.2114311 6.3357127,7.9236609 6.3795767,7.561227 6.3869337,7.1920897 6.5101164,6.845435 6.5273024,6.815948 6.5383364,6.781877 6.5616744,6.756973 6.5782864,6.739246 6.6465664,6.709707 6.6256804,6.722116 6.2403805,6.9510222 5.8482348,7.1686399 5.4683918,7.4064914 c -0.014852,0.0093 0.036685,-7.808e-4 0.051997,0.00774 0.062467,0.034761 0.153818,0.1404153 0.1955741,0.184127 0.2774934,0.3618386 0.5565794,0.7219023 0.8432695,1.076719 0.1545294,0.1800631 0.2946647,0.3724037 0.4496017,0.5520691 0.00999,0.00972 0.019979,0.019445 0.029968,0.029167 0,0 1.1974335,-0.7592102 1.1974335,-0.7592102 v 0 C 8.2275441,8.493134 8.2188531,8.4891643 8.210162,8.4851945 8.0184302,8.3440897 7.8552993,8.1670828 7.6936873,7.9937298 7.3956372,7.6489532 7.1266618,7.2832337 6.8785013,6.9008729 6.8628241,6.8791309 6.6343174,6.5638814 6.6050426,6.5768388 5.6782545,6.9870457 5.4522514,6.861129 5.2694544,7.4338433 5.1878097,7.7859299 5.201397,8.1476692 5.1554323,8.5049985 5.1204015,8.7392921 5.0828558,8.9683992 5.0109632,9.1948367 4.9931334,9.2509946 4.9732245,9.3065547 4.9508612,9.3610661 4.9341456,9.4018109 4.8530019,9.4966809 4.8938672,9.480262 5.3166869,9.3103807 5.7154897,9.0859513 6.126301,8.8887959 c 7.935e-4,0.013041 2.703e-4,0.052018 0.00238,0.039124 0.010401,-0.063545 0.0084,-0.1285764 0.016256,-0.192486 C 6.160706,8.6071161 6.17869,8.4818732 6.199948,8.3541013 6.214155,8.2687133 6.230101,8.183624 6.245177,8.0983853 6.330203,7.6655921 6.4103602,7.1814331 6.5783097,6.7728934 c 0.017204,-0.041848 0.040462,-0.080943 0.060693,-0.121415 0,0 -1.2815833,0.5827684 -1.2815833,0.5827684 z"
       id="path1673"
       style="fill:#000000;fill-opacity:1;fill-rule:nonzero;stroke:none" />
    <path
       d="m 7.028808,19.799432 c -0.00976,0.250353 0.044238,0.499125 0.073529,0.747123 0.055362,0.406695 0.080443,0.816447 0.083378,1.22666 0.014583,0.100588 -0.043905,0.242085 0.031198,0.328534 0.015849,0.01824 0.036797,0.03134 0.055195,0.04701 0.030938,0.01053 0.061081,0.02378 0.092814,0.03159 0.061199,0.01507 0.2212722,0.03509 0.2765515,0.04289 0.1872904,0.0264 0.3742762,0.05451 0.5616869,0.08008 0.3223282,0.03019 0.6468675,0.04628 0.9706527,0.03786 0.5742023,-0.03773 0.7740222,-0.328091 1.4401419,-0.739908 0.004,-0.0025 0.03889,-0.12996 0.04548,-0.153522 0.06281,-0.198827 0.05483,-0.403319 0.03694,-0.607964 -0.01173,-0.129205 -0.01874,-0.258871 -0.01841,-0.388634 1.97e-4,-0.07663 -0.0057,-0.154504 0.02899,-0.224003 0,0 -1.2690585,0.620628 -1.2690585,0.620628 v 0 c 0.017339,0.206942 0.028514,0.414361 0.035247,0.621928 -2.349e-4,0.190295 0.00221,0.383878 -0.083993,0.559006 -0.013837,0.02041 -0.024112,0.04375 -0.04151,0.06122 -0.012977,0.01303 -0.063487,0.03714 -0.047464,0.02811 2.1514795,-1.211551 1.4718995,-0.719743 0.9883245,-0.601819 -0.3275997,0.04811 -0.661608,0.0454 -0.990768,0.01473 -0.28142,-0.03993 -0.5606499,-0.09174 -0.83856,-0.151399 -0.00666,0.0019 -0.017564,0.01182 -0.020034,0.0054 C 8.410353,21.309702 8.424612,21.220003 8.400733,21.14381 8.347522,20.739637 8.310909,20.333428 8.2937392,19.926058 c -0.015122,-0.243211 -0.057421,-0.501129 0.012196,-0.738821 0,0 -1.2771333,0.612237 -1.2771333,0.612237 z"
       id="path1675"
       style="fill:#000000;fill-opacity:1;fill-rule:nonzero;stroke:none" />
    <path
       d="m 14.403427,19.472633 c 0.04109,0.361548 0.06172,0.725707 0.06064,1.089524 -0.0092,0.363576 -0.09214,0.719205 -0.09679,1.082789 0.0064,0.123553 0.02543,0.267414 0.156764,0.321901 0.08157,0.03384 0.150305,0.01285 0.235927,0.004 0.451928,-0.0992 0.905362,-0.178093 1.366832,-0.213447 0.25297,-0.007 0.501277,-0.03343 0.745522,-0.09902 0,0 1.073805,-0.834646 1.073805,-0.834646 v 0 c -0.04894,0.01976 -0.0966,0.04304 -0.14681,0.05928 -0.19816,0.06409 -0.4065,0.07722 -0.612634,0.09261 -0.155411,0.01052 -0.341921,0.02126 -0.496581,0.03937 -0.278223,0.03256 -0.552387,0.09238 -0.829194,0.13415 -0.03658,0.006 -0.07332,0.01097 -0.109726,0.01791 -0.02038,0.0039 -0.04044,0.0093 -0.06053,0.01452 -0.01197,0.0031 -0.02343,0.01212 -0.03565,0.01024 -0.06197,-0.0095 -0.0536,-0.138932 -0.06368,-0.171778 -0.01077,-0.354345 0.04907,-0.705375 0.05561,-1.059457 0.0047,-0.375579 -0.02315,-0.751362 0.0041,-1.126249 0,0 -1.24758,0.638264 -1.24758,0.638264 z"
       id="path1677"
       style="fill:#000000;fill-opacity:1;fill-rule:nonzero;stroke:none" />
    <path
       d="m 18.548155,18.555347 c -0.01844,-0.165763 -0.04114,-0.331013 -0.06137,-0.496565 -0.06042,-0.543948 0.320815,-0.403841 -1.268887,0.583389 -0.02742,0.01703 0.01633,0.06255 0.02167,0.09439 0.01339,0.07984 0.03867,0.314312 0.04608,0.37961 0.04831,0.429203 0.09569,0.858518 0.123466,1.289615 0.02252,0.113405 -0.02095,0.245636 0.03562,0.349828 0,0 1.224777,-0.738704 1.224777,-0.738704 v 0 c 0.0034,0.0088 0.0067,0.01768 0.01011,0.02653 0.0055,0.01447 -0.0099,-0.02937 -0.01349,-0.04444 -0.01782,-0.07577 -0.03054,-0.15267 -0.04654,-0.228807 -0.07765,-0.417588 -0.142523,-0.838655 -0.153937,-1.264038 -0.001,-0.156012 -0.0059,-0.25135 0.0073,-0.402431 0.0031,-0.03579 0.04903,-0.120696 0.01599,-0.106597 -1.815195,0.774394 -1.362588,0.185856 -1.238051,0.715245 0.03029,0.162851 0.05128,0.327983 0.03888,0.493973 0,0 1.258384,-0.650987 1.258384,-0.650987 z"
       id="path1679"
       style="fill:#000000;fill-opacity:1;fill-rule:nonzero;stroke:none" />
    <path
       d="m 9.5686866,9.6933721 c 0.3721298,-0.00571 0.7436864,-0.015549 1.1145174,-0.047995 0.477064,-0.057742 0.952215,-0.1281984 1.431252,-0.1681679 0.335617,-0.028043 0.672075,-0.034233 1.008502,-0.022863 0.305573,0.014109 0.60729,0.066552 0.909097,0.1130024 0.0899,0.016031 0.180852,0.026837 0.270234,0.045817 0.0098,0.00263 0.0072,0.00478 0.0098,-0.00306 0,0 1.172242,-0.8210451 1.172242,-0.8210451 v 0 c -0.01454,-0.0093 -0.0072,-0.00816 -0.02126,-0.00648 -0.101923,0.00452 -0.203984,-0.00657 -0.30559,-0.012371 -0.314308,-0.028241 -0.626195,-0.077061 -0.940709,-0.1027384 -0.342777,-0.020594 -0.685606,-0.0308 -1.027354,0.013582 -0.484229,0.048511 -0.964752,0.1229059 -1.447737,0.1817335 -0.340933,0.027139 -0.684725,0.042444 -1.025749,0.00677 0,0 -1.1472174,0.8238184 -1.1472174,0.8238184 z"
       id="path1681"
       style="fill:#000000;fill-opacity:1;fill-rule:nonzero;stroke:none" />
    <path
       d="M 12.524386,7.3364981 C 12.317772,7.3142249 12.125591,7.2365311 11.937721,7.1522958 11.652665,7.0228558 11.449277,6.8680037 11.255416,6.6235673 11.109036,6.3954452 11.038501,6.1279859 11.042686,5.8570614 c 9.75e-4,-0.063091 0.0093,-0.1258495 0.01402,-0.1887743 0.04962,-0.3344229 0.150762,-0.6642743 0.338622,-0.9483225 0.0399,-0.06033 0.08615,-0.1162079 0.12923,-0.1743119 0.133298,-0.1481896 0.155034,-0.1872042 0.316755,-0.3070311 0.06124,-0.045373 0.257952,-0.1623245 0.191888,-0.1243231 -1.748305,1.0056613 -1.030282,0.5723543 -0.657779,0.4222712 0.09338,-0.037623 0.189678,-0.067547 0.284517,-0.10132 0.540312,-0.1715606 1.105929,-0.2072033 1.668803,-0.1929668 0.407802,0.028547 0.816632,0.1061157 1.188998,0.2805959 0.06389,0.029937 0.12468,0.066085 0.18702,0.099128 0.289084,0.1788863 0.531868,0.4233085 0.659339,0.7429809 0.02605,0.065326 0.04348,0.1337671 0.06522,0.2006506 0.109243,0.4432739 0.132199,0.9018164 0.13344,1.3565799 0.0027,0.3233985 -0.02614,0.5658302 -0.165286,0.857091 -0.08001,0.14755 -0.189593,0.2759916 -0.298267,0.4029318 -0.04856,0.043466 -0.08056,0.1034647 -0.128893,0.146689 -0.02804,0.017563 -0.04874,0.035988 -0.07331,0.058138 -0.02642,0.020311 -0.0436,0.045769 -0.07172,0.062678 -0.01568,0.00957 -0.02541,0.024301 -0.04383,0.018405 0,0 1.334236,-0.5150415 1.334236,-0.5150415 v 0 c 0.0057,-0.017583 0.01833,-0.026532 0.03153,-0.039376 0.02127,-0.024537 0.04455,-0.04371 0.06872,-0.065865 0.02565,-0.023623 0.05084,-0.042759 0.06707,-0.075164 0.03255,-0.050635 0.0764,-0.093106 0.109492,-0.1434707 0.09863,-0.1346581 0.198534,-0.2697841 0.25761,-0.4277103 0.107309,-0.3060366 0.118459,-0.562277 0.0974,-0.885808 C 16.731043,5.8491976 16.701867,5.3814259 16.593956,4.9254812 16.570478,4.8528573 16.551632,4.7785693 16.523523,4.7076094 16.386042,4.3605517 16.126109,4.0949676 15.817116,3.8937104 15.750524,3.8586034 15.685475,3.820397 15.617338,3.7883896 15.229437,3.6061722 14.807182,3.5098608 14.380658,3.483138 c -0.572743,-0.022 -1.146765,-0.00694 -1.700503,0.1600459 -0.810715,0.245627 -0.882638,0.3633466 -1.878272,0.9559364 -0.198496,0.1181422 -0.355575,0.295632 -0.49528,0.4756751 -0.04224,0.062963 -0.08784,0.1237995 -0.12673,0.1888887 -0.1826711,0.3057503 -0.2772458,0.6540442 -0.3209778,1.0050825 -0.00392,0.068275 -0.011426,0.136439 -0.011761,0.2048259 -0.00147,0.2994651 0.080632,0.5911963 0.2394918,0.8448493 0.03245,0.044101 0.06207,0.090425 0.09734,0.1323033 0.165709,0.1967531 0.389595,0.3318435 0.610891,0.4563215 0.182132,0.092758 0.366979,0.1812875 0.564015,0.2380981 0,0 1.165509,-0.8086666 1.165509,-0.8086666 z"
       id="path1683"
       style="fill:#000000;fill-opacity:1;fill-rule:nonzero;stroke:none" />
    <path
       d="m 6.958874,10.545856 c 0.034407,-0.07305 0.070709,-0.146495 0.1180411,-0.21223 -0.4269396,0.212598 -0.858035,0.417046 -1.2808187,0.637792 -0.00638,0.0033 -0.00898,0.10825 -0.010192,0.124281 -0.01255,0.166675 -0.034504,0.332223 -0.056728,0.497807 -0.044044,0.346587 -0.1082976,0.690225 -0.1549734,1.036385 -0.014567,0.162499 -0.044459,0.323132 -0.062972,0.485096 -0.00168,0.03392 -0.00889,0.06772 -0.0087,0.101754 0.012484,0.0216 0.024969,0.04319 0.037453,0.06479 0,0 1.203259,-0.779738 1.203259,-0.779738 v 0 c 0.011668,0.02111 0.023337,0.04223 0.035005,0.06334 -0.00131,-0.02788 -0.00252,-0.05579 -0.00136,-0.08371 0.0037,-0.153585 0.0081,-0.30718 0.026577,-0.459911 0.0337,-0.340308 0.070222,-0.680516 0.1282365,-1.01772 0.030326,-0.174358 0.063186,-0.347851 0.099177,-0.521128 0.00712,-0.03428 0.016314,-0.06816 0.021917,-0.102725 0.00393,-0.02425 0.029295,-0.08291 0.00664,-0.07341 -0.4370537,0.183307 -0.8563958,0.40627 -1.2845938,0.609404 -0.027835,0.07512 -0.07117,0.144056 -0.1073607,0.215179 0,0 1.2913859,-0.585256 1.2913859,-0.585256 z"
       id="path1685"
       style="fill:#000000;fill-opacity:1;fill-rule:nonzero;stroke:none" />
    <path
       d="m 14.045124,4.5731244 c -0.202599,0.00729 -0.40377,0.015099 -0.603845,0.049714 -0.544334,0.1452527 -1.013921,0.5243235 -1.482603,0.8016709 -0.08526,0.050454 -0.110118,0.1170373 -0.127358,0.2069781 0.0076,0.029739 0.0087,0.061906 0.02272,0.089218 0.08586,0.1675533 0.345615,0.2567899 0.50697,0.3242504 0.248203,0.1064914 0.51651,0.2026057 0.715531,0.3934688 0.03168,0.030381 0.05785,0.066028 0.08678,0.099042 0.03578,0.065331 0.08684,0.1324271 0.07864,0.2137655 -0.01682,0.1668334 -0.251363,0.2785725 -0.377216,0.3429273 0.342116,-0.2019964 0.689861,-0.3947488 1.026347,-0.6059891 0.04023,-0.025256 -0.08886,0.034139 -0.134778,0.046278 -0.12422,0.032836 -0.25357,0.036692 -0.377457,0.00406 -0.0094,-0.00572 -0.01887,-0.011442 -0.0283,-0.017162 0,0 -1.18963,0.7541693 -1.18963,0.7541693 v 0 c 0.01965,0.015621 0.0393,0.031241 0.05894,0.046862 0.02754,0.011259 0.05384,0.026258 0.08263,0.033778 0.632176,0.1651244 1.493452,-0.5593155 1.830836,-0.7530147 0.04274,-0.030958 0.08889,-0.057682 0.12821,-0.092875 0.237239,-0.2123196 0.238297,-0.4239845 0.0709,-0.6784348 -0.0341,-0.039148 -0.06475,-0.081586 -0.1023,-0.117444 C 14.02437,5.517872 13.747409,5.4154427 13.49772,5.2903729 13.392339,5.2392379 13.284206,5.1905848 13.183607,5.1301774 c -0.0304,-0.018253 -0.07325,-0.031079 -0.0844,-0.064738 -0.0027,-0.00803 0.0051,-0.016124 0.0077,-0.024185 0.03378,-0.038085 0.03203,-0.039734 0.07889,-0.073373 0.0217,-0.01558 0.09049,-0.056772 0.06724,-0.043616 -1.992239,1.1271877 -1.347642,0.7314476 -0.910584,0.5343369 0.181352,-0.050099 0.369698,-0.072381 0.557668,-0.051137 0,0 1.145033,-0.8343394 1.145033,-0.8343394 z"
       id="path1691"
       style="fill:#000000;fill-opacity:1;fill-rule:nonzero;stroke:none" />
    <path
       d="m 13.690423,4.4305251 c 0.0067,-0.042658 0.0086,-0.087434 0.02189,-0.1288753 0.0026,-0.00804 0.01873,-0.026665 0.01128,-0.022686 -1.285344,0.6866717 -1.317317,0.2153261 -1.247952,0.7735012 0.04405,0.4393055 0.06241,0.8811756 0.07535,1.3223961 0.0047,0.265076 0.0047,0.5306067 -0.01308,0.7952456 -0.0066,0.037463 -0.01063,0.069935 -0.0039,0.1068657 0.02793,0.051115 0.0098,0.023915 0.05875,0.078586 0,0 1.183848,-0.7978844 1.183848,-0.7978844 v 0 c 0.01636,0.042378 0.0079,0.024102 0.02397,0.055483 2.59e-4,-0.029515 1.68e-4,-0.059182 -0.0074,-0.088781 -0.03893,-0.2483376 -0.05891,-0.4992545 -0.07635,-0.7498633 -0.02567,-0.4530255 -0.0262,-0.9059152 -0.006,-1.359286 3.88e-4,-0.033675 0.03269,-0.1128823 0.0012,-0.1010253 -1.735033,0.6526518 -1.129718,0.1401403 -1.301473,0.731792 0,0 1.279835,-0.6154677 1.279835,-0.6154677 z"
       id="path1693"
       style="fill:#000000;fill-opacity:1;fill-rule:nonzero;stroke:none" />
  </g>
</svg>
