<?xml version="1.0" encoding="UTF-8" standalone="no"?>
<svg
   xmlns:dc="http://purl.org/dc/elements/1.1/"
   xmlns:cc="http://creativecommons.org/ns#"
   xmlns:rdf="http://www.w3.org/1999/02/22-rdf-syntax-ns#"
   xmlns:svg="http://www.w3.org/2000/svg"
   xmlns="http://www.w3.org/2000/svg"
   xmlns:sodipodi="http://sodipodi.sourceforge.net/DTD/sodipodi-0.dtd"
   xmlns:inkscape="http://www.inkscape.org/namespaces/inkscape"
   inkscape:version="1.0 (6e3e5246a0, 2020-05-07)"
   sodipodi:docname="receipt.svg"
   id="svg62"
   version="1.1"
   width="24"
   viewBox="0 0 24 24"
   height="24">
  <metadata
     id="metadata68">
    <rdf:RDF>
      <cc:Work
         rdf:about="">
        <dc:format>image/svg+xml</dc:format>
        <dc:type
           rdf:resource="http://purl.org/dc/dcmitype/StillImage" />
        <dc:title></dc:title>
      </cc:Work>
    </rdf:RDF>
  </metadata>
  <defs
     id="defs66" />
  <sodipodi:namedview
     inkscape:current-layer="layer5"
     inkscape:window-maximized="1"
     inkscape:window-y="27"
     inkscape:window-x="53"
     inkscape:cy="11.061074"
     inkscape:cx="9.6369184"
     inkscape:zoom="19.51905"
     showgrid="false"
     id="namedview64"
     inkscape:window-height="713"
     inkscape:window-width="1313"
     inkscape:pageshadow="2"
     inkscape:pageopacity="0"
     guidetolerance="10"
     gridtolerance="10"
     objecttolerance="10"
     borderopacity="1"
     bordercolor="#666666"
     pagecolor="#ffffff" />
  <path
     id="path58"
     fill="none"
     d="M0 0h24v24H0z" />
  <g
     inkscape:label="Layer 5"
     id="layer5"
     inkscape:groupmode="layer">
    <path
       d="m 3.6557712,5.0885994 c -0.0013,0.2445881 0.00568,0.4891055 0.010085,0.7336317 6.037e-4,0.4269106 0.022952,0.85322 0.034731,1.2798687 0.018255,0.5266144 0.022551,1.0535637 0.032202,1.5803737 0.019452,0.6477228 0.038378,1.2954779 0.054737,1.9432935 0.017385,0.739975 0.031984,1.479973 0.041225,2.220097 0.010671,0.622725 0.018062,1.245542 0.020459,1.868358 -0.00212,0.493615 0.00307,0.987221 -6.912e-4,1.480823 -0.0066,0.379404 -0.00719,0.758862 -0.013463,1.138264 -0.00403,0.283139 -0.00868,0.566265 -0.00876,0.849438 -3.257e-4,0.248688 2.93e-5,0.497374 -0.00456,0.746027 -0.00109,0.196218 -0.00242,0.392438 -0.00328,0.588657 0.00579,0.18238 -0.00616,0.364467 -0.015765,0.546465 -0.00444,0.0657 -0.00733,0.13147 -0.0107,0.197222 -0.029182,0.504174 -0.4082682,0.23489 1.2892366,-0.626859 0,0 -1.2879227,0.605732 -1.2879227,0.605732 v 0 C 5.5485102,19.41288 5.0882833,20.109403 5.0647,19.61427 5.06259,19.55167 5.0626,19.489001 5.06133,19.426386 c -0.00102,-0.180747 -0.0066,-0.361592 0.0025,-0.542241 0.00229,-0.195956 9.085e-4,-0.391967 -6.274e-4,-0.587924 -0.00464,-0.247131 -0.00419,-0.494298 -0.00387,-0.741464 9.161e-4,-0.281098 -0.0017,-0.562184 -0.00235,-0.843279 -0.00249,-0.375658 -0.00342,-0.751316 -0.010523,-1.12693 -0.00454,-0.491766 -3.606e-4,-0.983576 -0.013732,-1.475252 -0.013365,-0.61824 -0.033995,-1.236232 -0.049527,-1.85441 -0.018824,-0.739844 -0.029598,-1.479817 -0.04193,-2.219788 C 4.9325256,9.3819809 4.9211517,8.7288569 4.919299,8.0756866 4.9132249,7.5479508 4.8993859,7.0204111 4.8902492,6.492734 c -0.00652,-0.4305948 -0.00538,-0.8612121 -0.00571,-1.2918466 0.00315,-0.2481008 0.00415,-0.4982119 0.041997,-0.7439368 0,0 -1.2707623,0.6316488 -1.2707619,0.6316488 z"
       id="path1272"
       style="fill:#000000;fill-opacity:1;fill-rule:nonzero;stroke:none" />
    <path
       d="m 18.374435,5.7116802 c 0.01937,0.1867821 0.02154,0.3749931 0.02599,0.5626047 0.009,0.2906392 0.01762,0.581297 0.03039,0.8717959 0.0165,0.4382411 0.03145,0.8765202 0.04016,1.3149884 0.0088,0.4866154 0.02537,0.9730266 0.03514,1.4596272 0.01183,0.5332086 0.01493,1.0665646 0.02142,1.5998606 0.0064,0.521278 0.0077,1.042576 0.01118,1.563865 -0.001,0.440603 0.0051,0.881169 0.0104,1.321731 0.009,0.472205 0.01324,0.944474 0.0181,1.416745 0.0053,0.403068 -0.0048,0.806082 -0.0072,1.209105 -0.0026,0.271656 -0.0073,0.543264 -0.0084,0.814933 8.1e-4,0.210208 -0.0044,0.420367 -0.0042,0.630573 -0.0013,0.144407 -0.0026,0.288854 -0.0078,0.433186 -0.0015,0.08511 -8.26e-4,0.170187 -0.0021,0.255304 0.0054,0.110898 0.0032,0.221866 0.0037,0.332823 -0.0022,0.138885 0.0046,0.277208 0.01543,0.415611 0.0076,0.130878 0.02051,0.261055 0.03614,0.391172 0.0097,0.07322 0.02013,0.146387 0.02893,0.21973 0.0045,0.06374 0.01203,0.127232 0.01856,0.190805 0.01,0.07142 0.02368,0.142253 0.03581,0.213331 0.0022,0.01607 0.007,0.03116 0.0083,0.04726 5.39e-4,0.0018 -0.0013,0.0035 -0.002,0.0052 -4.84e-4,-8.4e-4 -9.68e-4,-0.0017 -0.0015,-0.0025 0,0 1.273622,-0.659877 1.273622,-0.659877 v 0 c -4.94e-4,-9.78e-4 -9.87e-4,-0.002 -0.0015,-0.0029 -0.0022,-0.0052 -0.0043,-0.01041 -0.0056,-0.0159 -0.0047,-0.01569 -0.0095,-0.03133 -0.01437,-0.04698 -0.01795,-0.0629 -0.03077,-0.127168 -0.03583,-0.192474 -0.0054,-0.06742 -0.0029,-0.135656 -0.01607,-0.202176 -0.01337,-0.07001 -0.02572,-0.140256 -0.03816,-0.210434 -0.01688,-0.12643 -0.02836,-0.253502 -0.03848,-0.380636 -0.0077,-0.136648 -0.0075,-0.273372 -0.0052,-0.410201 4.94e-4,-0.112203 -0.0017,-0.224415 0.0037,-0.336563 -0.0013,-0.08439 -6.08e-4,-0.168736 -0.0021,-0.253113 -0.0052,-0.141694 -0.0064,-0.283513 -0.0077,-0.425285 2.06e-4,-0.208785 -0.005,-0.417524 -0.0041,-0.626311 -9.89e-4,-0.268867 -0.0055,-0.537672 -0.0085,-0.806522 -0.0032,-0.399468 -0.01513,-0.798857 -0.01624,-1.198366 -0.0037,-0.472861 -0.01453,-0.945676 -0.01435,-1.418549 -0.002,-0.439622 -0.0044,-0.879233 -0.01678,-1.318711 -0.0068,-0.519535 -0.01875,-1.039012 -0.0212,-1.558619 -0.0031,-0.534722 -0.01144,-1.0693189 -0.01614,-1.604028 -0.0085,-0.4877765 -0.01687,-0.975502 -0.02894,-1.4631962 -0.01013,-0.4416695 -0.01403,-0.8834234 -0.02126,-1.3251471 -0.0016,-0.2947151 -0.0049,-0.5894195 -0.006,-0.8841392 -0.0045,-0.1925791 -0.0088,-0.3852781 -0.0029,-0.5778782 0,0 -1.262258,0.6503299 -1.262258,0.6503299 z"
       id="path1274"
       style="fill:#000000;fill-opacity:1;fill-rule:nonzero;stroke:none" />
    <path
       d="M 5.8306514,9.835282 C 6.0737119,9.850287 6.3171276,9.850332 6.5605258,9.848684 7.0037311,9.843104 7.4468976,9.834165 7.8900908,9.827337 8.4076836,9.816282 8.9253337,9.808247 9.4429655,9.799286 10.025142,9.788235 10.607301,9.777254 11.189569,9.772773 c 0.489081,-0.00625 0.978167,-0.00332 1.467262,-0.00241 0.335132,-0.00186 0.670252,-0.00582 1.005383,-0.00828 0.275254,4.561e-4 0.550471,-3.011e-4 0.825702,-0.00398 0.219295,-0.00321 0.438605,-0.00201 0.657901,-0.005 0.168888,-0.00223 0.33774,-0.00682 0.506632,-0.00867 0.110101,-8.259e-4 0.220204,9.277e-4 0.330275,0.0034 0.03662,0.00136 0.073,0.00337 0.109632,0.00274 0.0281,-3.6e-6 0.02246,0.00486 0.01697,-0.020991 -0.01447,-0.02476 -0.03609,-0.062633 -0.0505,-0.088746 0,0 1.295195,-0.6150223 1.295195,-0.6150223 v 0 c -0.01583,-0.032404 -0.03136,-0.07283 -0.05739,-0.09854 -0.01999,-0.019616 -0.02387,-0.029227 -0.05186,-0.022628 -0.03755,0.00299 -0.07476,0.00833 -0.112536,0.00782 -0.115386,0.00268 -0.230777,0.00531 -0.346189,0.00657 -0.169988,0.00166 -0.339932,0.00389 -0.509857,0.0091 -0.223524,0.0065 -0.447044,0.013311 -0.670664,0.01569 -0.277622,0.00373 -0.555253,0.00632 -0.832871,0.010181 -0.338757,0.00266 -0.677455,0.0087 -1.016152,0.015636 -0.499534,0.011192 -0.999042,0.022324 -1.498712,0.025379 -0.579057,0.00718 -1.158129,0.012658 -1.737199,0.018827 -0.515964,0.00669 -1.0318356,0.017474 -1.5477916,0.024512 -0.4338285,0.00558 -0.8676787,0.00872 -1.3015313,0.00354 -0.2281041,-0.0022 -0.4572857,-7.273e-4 -0.6840357,-0.028956 0,0 -1.156578,0.8223335 -1.156578,0.8223335 z"
       id="path1280"
       style="fill:#000000;fill-opacity:1;fill-rule:nonzero;stroke:none" />
    <path
       d="m 5.8860301,13.449816 c 0.2849993,-0.0081 0.5702187,-0.0053 0.8552801,-0.0023 0.4594922,0.0024 0.9189024,0.0031 1.3783673,0.0098 0.4227172,0.0013 0.8452391,0.01461 1.2678719,0.02067 0.3946039,1.71e-4 0.7890556,0.0093 1.1835186,0.01874 0.374034,0.0075 0.7481,0.01339 1.122193,0.01693 0.414623,8.25e-4 0.829061,0.01306 1.243575,0.02081 0.320675,0.0094 0.641272,0.01886 0.962057,0.0232 0.24413,0.0046 0.48828,0.0079 0.732404,0.01279 0.190721,0.0053 0.38155,0.0037 0.572268,0.0085 0.14273,0.0036 0.285494,0.0068 0.428075,0.01447 0.07043,0.004 0.140817,0.0087 0.211337,0.01108 0.05599,-3.66e-4 0.111879,5.06e-4 0.167768,0.004 0.01063,6.29e-4 0.02127,0.0017 0.03189,0.0024 -3.6e-5,-1.63e-4 -7.1e-5,-3.25e-4 -1.07e-4,-4.88e-4 0.38308,-0.27771 0.766161,-0.555421 1.149241,-0.833132 0,0 -1.166032,0.824834 -1.166032,0.824834 v 0 c 0.39378,-0.276349 0.78756,-0.552699 1.18134,-0.829048 -3.1e-4,-1.77e-4 -6.2e-4,-3.53e-4 -9.3e-4,-5.29e-4 -0.01271,-2.24e-4 -0.02546,1.26e-4 -0.03818,1.8e-4 -0.05747,1.71e-4 -0.114834,-0.0019 -0.172255,-0.0031 -0.07286,3.85e-4 -0.145781,7.35e-4 -0.218551,-0.0035 -0.146321,-5.45e-4 -0.29248,-0.0074 -0.438799,-0.0084 -0.193169,-0.0023 -0.386319,-0.0044 -0.579515,-0.0041 -0.248266,-0.0018 -0.496505,-0.0056 -0.744785,-0.004 -0.325723,-0.0037 -0.651447,-0.0069 -0.977163,-0.01113 -0.413659,-0.0081 -0.827422,-0.0102 -1.240973,-0.02358 -0.374072,-0.0068 -0.748183,-0.0089 -1.122254,-0.01552 -0.394664,-0.008 -0.789317,-0.01663 -1.184061,-0.01984 -0.427233,-0.005 -0.8545164,-0.0068 -1.2817539,-0.0113 -0.4537605,-0.0015 -0.9073472,-0.0094 -1.3609585,-0.02103 -0.2707055,-0.0067 -0.5417075,-0.01142 -0.8120059,-0.02796 0,0 -1.1488606,0.830603 -1.1488606,0.830603 z"
       id="path1282"
       style="fill:#000000;fill-opacity:1;fill-rule:nonzero;stroke:none" />
    <path
       d="m 5.9152236,17.422447 c 0.3159926,-0.0064 0.6321251,-0.0029 0.9481381,6.41e-4 0.5485121,-0.0011 1.0968522,0.01389 1.6450036,0.03214 0.3803244,0.01067 0.760468,0.02707 1.1408707,0.03477 0.358751,0.0077 0.71754,0.01267 1.076212,0.0236 0.333024,0.01139 0.666199,0.01747 0.999276,0.02717 0.327173,0.0096 0.654349,0.01927 0.981652,0.02288 0.33501,0.0024 0.669969,0.006 1.004825,0.01672 0.258927,0.0061 0.517729,0.01419 0.776489,0.02535 0.20173,0.0057 0.40337,0.01384 0.605089,0.01984 0.169135,0.0032 0.338139,0.01012 0.5071,0.01815 0.108696,0.0048 0.217299,0.01145 0.325922,0.01765 0.07528,0.0039 0.150614,0.0052 0.225858,0.0099 0.02492,0.0018 0.04988,0.0034 0.07468,0.0065 0.479949,0.08029 0.178401,-0.09106 1.269661,-0.686826 0,0 -1.330984,0.515744 -1.330984,0.515744 v 0 c 2.806717,-1.526999 1.677699,-0.76186 1.223414,-0.667562 -0.0278,0.0013 -0.05565,0.001 -0.08347,8.88e-4 -0.07642,-0.0011 -0.152548,-0.0071 -0.228944,-0.0079 -0.111953,-0.0019 -0.223762,-0.008 -0.335721,-0.0098 -0.171583,-0.006 -0.343036,-0.0142 -0.514772,-0.01471 -0.202685,-0.0057 -0.405374,-0.01112 -0.608046,-0.01731 -0.263898,-0.0052 -0.52778,-0.01143 -0.791691,-0.01576 -0.336351,-0.0049 -0.672674,-0.01145 -1.009037,-0.01558 -0.326399,-0.0042 -0.652806,-0.0086 -0.978974,-0.02256 -0.335569,-0.0072 -0.671112,-0.01569 -1.006706,-0.02152 -0.357116,-0.0083 -0.714108,-0.02097 -1.071253,-0.02821 -0.388568,-0.0083 -0.7772947,-0.0087 -1.165886,-0.01641 -0.5453447,-0.0065 -1.090767,-0.01418 -1.6356478,-0.03909 -0.2982371,-0.0094 -0.5968062,-0.0164 -0.8943948,-0.0392 0,0 -1.1486588,0.830509 -1.1486588,0.830509 z"
       id="path1284"
       style="fill:#000000;fill-opacity:1;fill-rule:nonzero;stroke:none" />
    <path
       d="m 5.2096915,3.661383 c 0.00845,0.3932988 -0.00143,0.7873051 -0.02214,1.1801315 -0.014204,0.1484813 -0.020333,0.2986732 -0.047023,0.4457745 -0.00361,0.019902 -0.032844,0.068079 -0.014854,0.058834 1.2980385,-0.6670538 1.2728656,-0.223181 1.2622156,-0.8135586 0.00218,-0.3953799 0.0035,-0.7910111 0.059935,-1.1829028 0.013187,-0.054146 0.023249,-0.1091505 0.03956,-0.1624389 0.019451,-0.063546 0.060056,-0.1698608 0.1078095,-0.2232924 0.018852,-0.021094 0.093718,-0.063315 0.069417,-0.04883 C 5.5002271,3.609187 5.1039037,3.6500695 5.612329,3.5845972 5.643197,3.5947552 5.675623,3.6010362 5.704933,3.6150712 5.932028,3.7238161 6.1584903,4.0559717 6.3090781,4.2506753 6.6120651,4.653731 6.9214778,5.0521052 7.233894,5.4479082 7.280629,5.5027882 7.3345881,5.5764731 7.3973961,5.6185155 7.8163843,5.8989779 8.3124355,5.1845791 8.7276182,4.8985127 8.7624342,4.874524 8.7426762,4.8152878 8.751593,4.7739585 8.7625406,4.7232164 8.7753305,4.6728893 8.7871993,4.6223548 8.877053,4.2258125 9.001815,3.8411106 9.1685878,3.4705523 9.2830357,3.2084601 9.4459871,2.9774264 9.6500479,2.7787113 c 0.018555,-0.015164 0.034879,-0.033568 0.055666,-0.045491 0.016612,-0.00953 0.071177,-0.027425 0.054634,-0.017777 -0.3905397,0.227745 -0.7871046,0.4450497 -1.1777004,0.6726986 -0.010005,0.00583 0.024123,-0.011969 0.034179,-0.00623 0.025322,0.014461 0.044797,0.038076 0.062356,0.061358 0.03211,0.042576 0.05718,0.090032 0.08577,0.1350476 0.2152874,0.4254935 0.4375973,0.8464552 0.6886444,1.2521209 0.084997,0.1358789 0.1800824,0.2651988 0.2796475,0.3906856 0.0226,0.028484 0.08873,0.1122 0.1227481,0.1373718 0.023861,0.017656 0.052171,0.028328 0.078257,0.042492 0.9446315,0.02191 1.3403875,-0.7115473 1.7101925,-1.3495564 0.234701,-0.4395309 0.494004,-0.8641062 0.778137,-1.2732483 0.07591,-0.1000714 0.138171,-0.1913266 0.228268,-0.2783819 0.02999,-0.028977 0.133577,-0.099278 0.09745,-0.078458 -0.370853,0.2211303 -0.741705,0.4422606 -1.112558,0.6633909 0.01334,-0.00755 0.02475,-0.024001 0.04001,-0.022636 0.01809,0.00162 0.03021,0.020179 0.04531,0.030269 0.1355,0.2101355 0.201735,0.4547872 0.29336,0.6851851 0.07573,0.1904417 0.104522,0.2447208 0.191101,0.4294062 0.172197,0.3195506 0.330139,0.6518347 0.555841,0.9381075 0.07692,0.077714 0.198316,0.1598269 0.314627,0.096084 1.049986,-0.5754299 1.075085,-0.4799024 1.567652,-1.0609016 0.282058,-0.3694792 0.569665,-0.7322346 0.902856,-1.057054 0.07934,-0.068969 0.177694,-0.1601297 0.267751,-0.2181102 0.03741,-0.024083 0.156443,-0.084709 0.1182,-0.061979 -0.36662,0.2151446 -0.733241,0.4302892 -1.099861,0.6454337 0.02064,-0.0048 0.04073,-0.015035 0.06191,-0.014412 0.01694,4.983e-4 0.03179,0.011757 0.04768,0.017636 0.01764,0.025958 0.03823,0.050132 0.0529,0.077872 0.08274,0.156453 0.130015,0.3329221 0.18676,0.4994941 0.07462,0.2190595 0.0558,0.163878 0.138181,0.3798579 0.1223,0.3089294 0.26304,0.6099672 0.40676,0.9093555 0.04198,0.093518 0.09249,0.1833591 0.132437,0.2777993 0,0 1.233364,-0.7158002 1.233364,-0.7158002 v 0 C 17.028453,4.8438766 16.981935,4.7548665 16.930562,4.6698238 16.768604,4.3865957 16.631544,4.0902149 16.506548,3.7889668 16.444653,3.6263166 16.425406,3.5815594 16.37121,3.4157009 16.312821,3.2370108 16.271255,3.0489343 16.196287,2.8759903 c -0.02028,-0.046781 -0.04708,-0.090454 -0.07062,-0.1356815 -0.02993,-0.02725 -0.05459,-0.06176 -0.08979,-0.081751 -0.03073,-0.017454 -0.07069,-0.042994 -0.102407,-0.02742 -0.441475,0.2167496 -0.86384,0.4705034 -1.292206,0.7121295 -0.133005,0.075024 -0.233893,0.1998442 -0.346359,0.2993903 -0.319228,0.3371722 -0.597254,0.7076101 -0.897991,1.0607883 -0.05084,0.052046 -0.09935,0.1064636 -0.152513,0.1561376 -0.04486,0.041919 -0.195751,0.1464294 -0.141175,0.1183033 0.362293,-0.1867116 0.708874,-0.4025935 1.067737,-0.5958165 0.05046,-0.027168 -0.09194,0.093983 -0.148724,0.086238 -0.02741,-0.00374 -0.04802,-0.027469 -0.07203,-0.041203 C 13.701361,4.1750311 13.547189,3.8500529 13.376938,3.5434448 13.282579,3.3451637 13.27116,3.3316806 13.19297,3.1245906 13.117532,2.9247907 13.062822,2.717151 12.983444,2.5188716 c -0.0204,-0.050951 -0.04554,-0.099871 -0.06831,-0.1498063 -0.02956,-0.039426 -0.05142,-0.086026 -0.08868,-0.1182789 -0.02658,-0.023014 -0.06539,-0.05824 -0.09668,-0.042192 -0.962304,0.493628 -1.123929,0.4764083 -1.541619,1.1094389 -0.270429,0.4202051 -0.529506,0.8473393 -0.778905,1.2803575 -0.09325,0.1481442 -0.129525,0.2114206 -0.230298,0.3505558 -0.03078,0.042491 -0.06212,0.084681 -0.09616,0.1246015 -0.02713,0.031819 -0.1240733,0.1098238 -0.087096,0.090294 1.111521,-0.587052 1.345893,-1.0181278 1.091704,-0.5772038 -0.01309,0.00886 -0.02357,0.028374 -0.03928,0.026592 C 11.019284,4.6099601 10.927145,4.5151102 10.919703,4.50752 10.810397,4.396034 10.712603,4.2738462 10.62041,4.1480364 10.347372,3.7537265 10.132841,3.3404128 9.952174,2.8960608 9.9128419,2.8142264 9.8570177,2.6830197 9.7964857,2.6090357 9.7751915,2.5830094 9.7497092,2.5303176 9.7191215,2.5442894 8.9540224,2.8937683 8.7212921,2.9066423 8.3585214,3.3196967 8.1812757,3.5344278 8.042215,3.7742641 7.9408319,4.0341392 7.7810882,4.4170958 7.6557097,4.810835 7.5453132,5.2106817 c -0.017872,0.04978 -0.03159,0.1012545 -0.053616,0.1493415 -0.015413,0.03365 -0.091263,0.1110903 -0.058124,0.094608 0.3996113,-0.1987483 0.7759091,-0.4416674 1.17148,-0.6483405 0.017695,-0.00925 -0.010594,0.046799 -0.029896,0.0519 C 8.5223909,4.8721331 8.4113052,4.7540027 8.400036,4.7442703 8.0515398,4.3815165 7.748035,3.9807422 7.4664687,3.5643024 7.3152968,3.3537625 7.161924,3.1120091 6.9733247,2.9325397 6.8948323,2.8578471 6.8498791,2.8375465 6.7593085,2.7835739 6.7236005,2.7689388 6.6868752,2.7227628 6.6521845,2.7396685 6.1421583,2.9882186 5.4550516,3.0881752 5.288682,3.6469381 5.252561,3.7682533 5.248957,3.8239581 5.229127,3.9528599 5.192948,4.3536318 5.190572,4.7567211 5.146738,5.1570033 5.080837,5.7299977 5.088654,5.3541552 6.390873,4.7165494 c 0.015502,-0.00759 -0.00402,-0.034343 -0.00432,-0.051601 -0.00146,-0.083228 0.0022,-0.1664686 0.00366,-0.249697 0.00107,-0.060821 0.00243,-0.121637 0.00364,-0.1824555 0.010132,-0.399702 0.00937,-0.8039134 0.085853,-1.1977412 0,0 -1.2700163,0.6263283 -1.2700163,0.6263283 z"
       id="path1286"
       style="fill:#000000;fill-opacity:1;fill-rule:nonzero;stroke:none" />
    <path
       d="m 17.897216,4.5761122 c 0.233479,-0.3403017 0.441979,-0.6953417 0.641342,-1.0563877 0.08755,-0.1590565 0.152938,-0.2796029 0.242257,-0.435476 0.03159,-0.055129 0.120593,-0.2191732 0.177396,-0.2731222 0.01894,-0.017989 0.09288,-0.047811 0.07015,-0.03494 -0.400067,0.2265389 -0.801498,0.4506626 -1.202247,0.6759939 0.140859,0.2908983 0.256225,0.5938298 0.369209,0.8964722 0.03761,0.098147 0.06948,0.1983379 0.104325,0.2974532 0.0059,0.016894 0.0088,0.035409 0.01867,0.050376 0.01407,0.021424 0.03452,0.037906 0.05178,0.056859 0,0 1.195006,-0.7653863 1.195006,-0.7653863 v 0 c -0.02704,0.02262 -0.01273,0.018978 -0.03895,-0.029973 -0.0487,-0.090912 -0.09227,-0.1845162 -0.13633,-0.2777109 -0.07937,-0.17715 -0.156557,-0.354571 -0.221081,-0.5378417 -0.02212,-0.062832 -0.04137,-0.1266381 -0.06206,-0.1899571 -0.01471,-0.052608 -0.02608,-0.1062638 -0.04412,-0.1578228 -0.01535,-0.043856 -0.0372,-0.085155 -0.0558,-0.1277322 -0.427054,0.2137761 -0.859728,0.4166772 -1.281164,0.6413283 -0.02052,0.010938 -0.02384,0.039941 -0.03506,0.060302 -0.01987,0.036038 -0.03924,0.072357 -0.05823,0.1088697 -0.101171,0.1945698 -0.197667,0.3916102 -0.304369,0.5832892 -0.214006,0.3776602 -0.447157,0.7450756 -0.732973,1.0734029 0,0 1.302263,-0.5579973 1.302263,-0.5579973 z"
       id="path1288"
       style="fill:#000000;fill-opacity:1;fill-rule:nonzero;stroke:none" />
    <path
       d="m 4.2082211,20.421002 c 0.033933,0.337459 0.061206,0.675686 0.085642,1.013985 0.012861,0.199842 0.024441,0.399903 0.027267,0.600189 0.00183,0.12957 -0.00546,0.257545 0.00572,0.386645 0.025841,0.02925 0.042319,0.104625 0.077523,0.08776 0.4459689,-0.213584 0.8656339,-0.479128 1.2853898,-0.740493 0.037483,-0.02334 0.050342,-0.07259 0.076983,-0.107799 0.036342,-0.04804 0.074527,-0.09465 0.1119142,-0.141876 0.2313139,-0.292193 0.049564,-0.0604 0.3013718,-0.383246 0.2884437,-0.347437 0.53818,-0.731971 0.8687128,-1.042121 0.5387385,-0.241064 -0.3182057,0.137684 -1.0212273,0.621347 -0.029009,0.01996 0.068571,0.01957 0.09854,0.03805 0.1825757,0.112605 0.3338094,0.296825 0.4822343,0.44752 0.408083,0.403547 0.815198,0.808153 1.2525229,1.180215 0.1018689,0.07461 0.2913794,0.215508 0.4330871,0.136533 1.1579491,-0.645331 1.0833491,-0.473601 1.5628026,-1.127859 0.2446267,-0.357765 0.4600637,-0.733783 0.7127817,-1.086119 0.03174,-0.04135 0.06023,-0.08541 0.09522,-0.124052 0.02756,-0.03043 0.06109,-0.05484 0.09164,-0.08227 -0.367519,0.220675 -0.737514,0.437278 -1.1025582,0.662024 -0.019779,0.01218 0.042436,-0.02567 0.06557,-0.02358 0.088248,0.0079 0.1683901,0.09913 0.2253254,0.147225 0.3530018,0.370522 0.6907008,0.755456 1.0371448,1.132209 0.139089,0.147281 0.278041,0.294819 0.420858,0.438521 0.03849,0.03873 0.133942,0.136408 0.185375,0.169925 0.02886,0.0188 0.06207,0.02988 0.0931,0.04482 0.809165,0.06114 1.375025,-0.680425 1.807161,-1.247309 0.164352,-0.236612 0.349458,-0.455017 0.558376,-0.653093 0.134115,-0.114891 0.267375,-0.230966 0.404095,-0.3428 0.05778,-0.04634 0.117037,-0.09102 0.178631,-0.132198 0.01761,-0.01177 0.07191,-0.04477 0.05358,-0.03416 -1.227044,0.710145 -1.552005,0.878574 -1.115392,0.651149 0.01942,0.0034 0.04047,0.0016 0.05825,0.01008 0.06297,0.03007 0.135823,0.107786 0.17907,0.154158 0.145324,0.155823 0.274018,0.326301 0.405297,0.493783 0.221164,0.289855 0.460915,0.564711 0.712185,0.828679 0.536052,0.552229 0.410065,0.136562 1.515343,-0.558982 0.06361,-0.341172 0.119931,-0.681463 0.21703,-1.015259 0.03269,-0.09041 0.05521,-0.181661 0.118095,-0.257541 0.02105,-0.0254 0.05141,-0.04135 0.07712,-0.06203 -0.369751,0.223565 -0.74455,0.438991 -1.109255,0.670696 -0.02612,0.01659 0.05897,-0.02329 0.08992,-0.02309 0.04311,2.79e-4 0.08466,0.01633 0.126995,0.02449 0.298768,0.121636 0.568668,0.303339 0.836947,0.480183 0.347449,0.255417 0.737355,0.439003 1.12768,0.617563 0.210567,0.09374 0.418562,0.192915 0.625463,0.294419 0.0042,-0.0019 0.0517,0.03382 0.04282,0.0169 0,0 1.205057,-0.772673 1.205057,-0.772673 v 0 c -0.0218,-0.01982 -0.04357,-0.02494 -0.07279,-0.0318 -0.228819,-0.07233 -0.45037,-0.165466 -0.671868,-0.257277 -0.386762,-0.164537 -0.772489,-0.338292 -1.104638,-0.600926 -0.266783,-0.197805 -0.553245,-0.3647 -0.846064,-0.521147 -0.01471,-0.0069 -0.222793,-0.115177 -0.261658,-0.09535 -0.981974,0.5009 -1.222208,0.389466 -1.414508,1.104587 -0.047,0.191751 -0.08851,0.384428 -0.13269,0.576817 -0.0185,0.08056 -0.05375,0.2371 -0.08654,0.319833 -0.01393,0.03515 -0.03475,0.06716 -0.05212,0.100746 0.388611,-0.217746 0.770289,-0.448356 1.165833,-0.653238 0.01567,-0.0081 0.0043,0.03836 -0.0062,0.05257 -0.02467,0.03354 -0.198132,-0.132387 -0.209304,-0.13664 -0.272467,-0.236956 -0.513519,-0.506173 -0.735639,-0.790635 -0.1556,-0.203779 -0.11989,-0.154464 -0.26872,-0.359344 -0.113644,-0.156445 -0.22103,-0.32495 -0.385482,-0.4335 -0.02627,-0.0094 -0.05399,-0.04079 -0.0788,-0.02806 -0.547004,0.280618 -1.040636,0.513514 -1.48658,0.893551 -0.131259,0.112782 -0.264067,0.22453 -0.384803,0.348702 -0.193216,0.207346 -0.369131,0.428651 -0.532128,0.660548 -0.105576,0.134771 -0.210311,0.274023 -0.33577,0.39148 -0.03456,0.03236 -0.151968,0.111801 -0.110063,0.08977 1.001091,-0.526299 1.459551,-0.881996 1.050453,-0.568975 -0.02385,8.95e-4 -0.04876,0.0097 -0.07157,0.0027 -0.05174,-0.01601 -0.165253,-0.11195 -0.196925,-0.138969 -0.154321,-0.131651 -0.297178,-0.276312 -0.442578,-0.417475 -0.357085,-0.367417 -0.696697,-0.750585 -1.016289,-1.151224 -0.06289,-0.06992 -0.164226,-0.194932 -0.249965,-0.246562 -0.03416,-0.02057 -0.07817,-0.05559 -0.113629,-0.03735 -0.8391717,0.431461 -1.0720558,0.429959 -1.4269463,0.964694 -0.2360269,0.355602 -0.4406852,0.731751 -0.6994718,1.071963 -0.04841,0.05874 -0.094245,0.119695 -0.145231,0.176211 -0.045238,0.05014 -0.2041125,0.172398 -0.1431168,0.143408 0.3618678,-0.17199 0.699909,-0.390358 1.0546322,-0.576638 0.036921,-0.01939 -0.060491,0.06171 -0.099923,0.07528 -0.1136693,0.03911 -0.187834,-0.02766 -0.2840754,-0.07519 C 8.5392999,21.328871 8.1327965,20.927161 7.7485468,20.507089 7.5983264,20.339494 7.4546351,20.156511 7.2893211,20.003111 7.2505019,19.96709 7.2149967,19.884539 7.1655519,19.903505 6.1059821,20.309919 6.1932147,20.243147 5.7762562,20.623848 5.4880338,20.956783 5.2365737,21.319454 4.955941,21.658672 4.8037341,21.841967 4.7749686,21.878487 4.62529,22.051986 c -0.043044,0.04989 -0.085648,0.1002 -0.130166,0.148783 -0.032678,0.03566 -0.1448157,0.12506 -0.1013389,0.103861 1.1957597,-0.58305 1.1210107,-1.064578 1.1742271,-0.539632 -0.028975,-0.115555 -0.029865,-0.233948 -0.03624,-0.352654 -0.010732,-0.199828 -0.021564,-0.399631 -0.039211,-0.599013 -0.024612,-0.343213 -0.050918,-0.689828 -0.016825,-1.03324 0,0 -1.2675152,0.640911 -1.2675151,0.640911 z"
       id="path1290"
       style="fill:#000000;fill-opacity:1;fill-rule:nonzero;stroke:none" />
    <circle
       r="0.047768719"
       cy="16.481318"
       cx="20.799248"
       style="fill:#000000;stroke:#000000"
       id="path1292" />
  </g>
</svg>
