<?xml version="1.0" encoding="UTF-8" standalone="no"?>
<svg
   xmlns:dc="http://purl.org/dc/elements/1.1/"
   xmlns:cc="http://creativecommons.org/ns#"
   xmlns:rdf="http://www.w3.org/1999/02/22-rdf-syntax-ns#"
   xmlns:svg="http://www.w3.org/2000/svg"
   xmlns="http://www.w3.org/2000/svg"
   xmlns:sodipodi="http://sodipodi.sourceforge.net/DTD/sodipodi-0.dtd"
   xmlns:inkscape="http://www.inkscape.org/namespaces/inkscape"
   inkscape:version="1.0 (6e3e5246a0, 2020-05-07)"
   sodipodi:docname="send.svg"
   id="svg62"
   version="1.1"
   width="24"
   viewBox="0 0 24 24"
   height="24">
  <metadata
     id="metadata68">
    <rdf:RDF>
      <cc:Work
         rdf:about="">
        <dc:format>image/svg+xml</dc:format>
        <dc:type
           rdf:resource="http://purl.org/dc/dcmitype/StillImage" />
        <dc:title></dc:title>
      </cc:Work>
    </rdf:RDF>
  </metadata>
  <defs
     id="defs66" />
  <sodipodi:namedview
     inkscape:current-layer="layer6"
     inkscape:window-maximized="1"
     inkscape:window-y="27"
     inkscape:window-x="53"
     inkscape:cy="11.240386"
     inkscape:cx="9.6369184"
     inkscape:zoom="19.51905"
     showgrid="false"
     id="namedview64"
     inkscape:window-height="713"
     inkscape:window-width="1313"
     inkscape:pageshadow="2"
     inkscape:pageopacity="0"
     guidetolerance="10"
     gridtolerance="10"
     objecttolerance="10"
     borderopacity="1"
     bordercolor="#666666"
     pagecolor="#ffffff" />
  <path
     id="path58"
     fill="none"
     d="M0 0h24v24H0z" />
  <g
     inkscape:label="Layer 6"
     id="layer6"
     inkscape:groupmode="layer">
    <path
       d="m 2.5829564,4.8532019 c 0.3144895,0.00779 0.6229332,0.081376 0.9266473,0.1526673 0.505599,0.1253039 1.0005452,0.2842433 1.4931476,0.4480898 0.6627835,0.2243763 1.3232409,0.4546555 1.9814445,0.6906138 0.8291996,0.288075 1.6552611,0.5840692 2.4748103,0.8955668 0.8697389,0.3465797 1.7655379,0.6298679 2.6556699,0.9257353 0.763302,0.2462784 1.528844,0.486365 2.293816,0.7280129 0.658078,0.2060316 1.305447,0.4400592 1.95592,0.6659097 0.46688,0.1506729 0.932499,0.3044625 1.396709,0.4622277 0.260847,0.084293 0.515805,0.1830818 0.772976,0.2764618 0.223221,0.07747 0.443224,0.162593 0.66342,0.247249 0.169607,0.06394 0.338121,0.130354 0.506934,0.196098 0.101018,0.03927 0.203618,0.07488 0.306006,0.110865 0.04567,0.01528 0.08986,0.03402 0.134695,0.05119 0.01755,0.0074 0.03073,0.02587 0.04282,0.03845 0,0 1.078848,-0.7630623 1.078848,-0.7630623 v 0 c 0.0038,0.00699 0.02969,0.043164 0.0026,0.027298 C 21.22134,9.9825437 21.168489,9.9685537 21.117268,9.9518807 21.0132,9.9168357 20.908175,9.8843927 20.80446,9.8484207 20.630618,9.7886294 20.458138,9.7254583 20.285797,9.6618516 20.063812,9.5777357 19.841279,9.4950462 19.617562,9.4150493 19.355096,9.3199539 19.091598,9.2265993 18.823817,9.1453799 18.343783,9.0041568 17.861345,8.8697222 17.386995,8.7119913 16.727084,8.4906418 16.06672,8.2708019 15.402207,8.0617506 14.635265,7.8116919 13.861317,7.581712 13.089275,7.3460435 12.192848,7.0663626 11.30487,6.7643204 10.429714,6.4300267 9.6170264,6.1202311 8.8071547,5.8039607 7.9870784,5.5114909 7.3338038,5.276864 6.6822076,5.0381449 6.0288525,4.8037753 5.5422274,4.6345348 5.0558263,4.461797 4.5556812,4.3305217 4.261988,4.2523014 3.9680025,4.1740073 3.6672507,4.1228768 c 0,0 -1.0842943,0.7303251 -1.0842943,0.7303251 z"
       id="path1831"
       style="fill:#000000;fill-opacity:1;fill-rule:nonzero;stroke:none;stroke-width:1" />
    <path
       d="m 19.980761,11.674094 c 0.116413,-0.006 0.23302,9.74e-4 0.349192,0.0081 0.03354,0.0023 0.06711,0.0045 0.100497,0.0084 0.420574,0.122356 1.485882,-0.921312 1.058455,-0.748927 -0.03858,8.6e-5 -0.104427,0.0322 -0.143938,0.0485 -0.263599,0.115289 -0.526301,0.23237 -0.789993,0.347486 -0.43271,0.188856 -0.859941,0.388216 -1.284864,0.591968 -0.558038,0.267965 -1.116206,0.535671 -1.675094,0.802068 -0.674472,0.319434 -1.336463,0.661162 -1.993971,1.010167 -0.631787,0.346815 -1.273858,0.67563 -1.929093,0.981566 -0.612807,0.279459 -1.237092,0.535786 -1.857976,0.798812 -0.588762,0.247887 -1.160388,0.529297 -1.731174,0.811257 -0.5068729,0.254324 -1.015092,0.506267 -1.5223249,0.759957 -0.4069344,0.202299 -0.8097251,0.411797 -1.2146542,0.617584 -0.6765435,0.345636 -1.3420498,0.710372 -1.9960417,1.092352 -0.1505952,0.08606 -0.2984615,0.175748 -0.442728,0.27085 -0.082113,0.05716 -0.1674197,0.109826 -0.2521301,0.16342 -0.5311778,0.2981 1.4312938,-0.800018 1.0513649,-0.569914 -0.010516,0.0065 -0.020315,0.01416 -0.030067,0.0217 -0.2923372,0.380241 -1.4654632,0.987536 -0.9748779,0.744876 0,0 1.0369793,-0.780506 1.0369793,-0.780506 v 0 c -0.4037711,0.187304 -1.4741621,0.625144 -1.1262135,0.817766 0.01508,-0.0019 0.030774,-0.004 0.044551,-0.01013 0.4388707,-0.186958 0.8593532,-0.413999 1.2442508,-0.683291 0.079817,-0.05219 0.1578214,-0.106704 0.2379635,-0.158481 0.1401021,-0.08865 0.2827759,-0.173633 0.4253185,-0.258773 0.056362,-0.03338 0.1725747,-0.102357 0.2270263,-0.134013 0.046802,-0.02721 0.1886818,-0.106527 0.1408107,-0.08101 -1.779174,0.948342 -0.9631065,0.519049 -0.5717292,0.3106 0.4069814,-0.208115 0.8138118,-0.416491 1.2214286,-0.623508 0.5143637,-0.260565 1.0300203,-0.518879 1.5451118,-0.778172 0.5684389,-0.282248 1.1376751,-0.563787 1.7231831,-0.813966 0.62731,-0.269428 1.25974,-0.52846 1.880558,-0.811073 0.656133,-0.301187 1.300236,-0.623081 1.928761,-0.972772 0.653096,-0.350322 1.310754,-0.69329 1.983597,-1.009328 0.549467,-0.260936 1.09964,-0.520553 1.648875,-0.781918 0.414989,-0.198712 0.830212,-0.397233 1.255533,-0.576005 0.251888,-0.108363 0.502807,-0.218752 0.755596,-0.325243 0.03488,-0.01413 0.06613,-0.03127 0.09874,-0.04674 0.0047,-0.0022 0.01103,0.005 0.01566,0.0026 0.0019,-9.74e-4 4.54e-4,-0.0041 6.82e-4,-0.0061 0.448713,-0.04972 1.5371,-0.851585 1.107959,-0.765567 -0.03754,0.0017 -0.07518,6.25e-4 -0.112747,6.38e-4 -0.116514,-0.0019 -0.233105,-0.0055 -0.349273,-0.01436 0,0 -1.083205,0.739068 -1.083205,0.739068 z"
       id="path1833"
       style="fill:#000000;fill-opacity:1;fill-rule:nonzero;stroke:none;stroke-width:1" />
    <path
       d="M 2.827302,6.2113994 C 2.812463,6.4493115 2.808148,6.6870702 2.807455,6.9253773 2.802245,7.2735164 2.795219,7.621604 2.7907,7.9697571 2.78414,8.2769233 2.777714,8.5840687 2.773592,8.8912731 2.768772,9.1575843 2.763752,9.4238788 2.759045,9.6901899 2.751275,9.9072984 2.748833,10.124513 2.741704,10.341639 c -0.0041,0.172556 -0.00485,0.345111 -0.011924,0.51761 -0.00415,0.06232 -0.00701,0.124814 -0.014964,0.186847 0.00152,0.0042 -0.00229,0.009 -0.00537,0.01232 0.4003152,-0.197591 0.8006304,-0.395182 1.2009457,-0.592772 0,0 -1.1930774,0.581398 -1.1930774,0.581398 v 0 c 0.4013919,-0.183992 0.8027837,-0.367985 1.2041756,-0.551977 -0.00289,-0.0064 -0.00393,-0.01267 -0.00388,-0.01978 -0.00375,-0.06009 -0.00381,-0.120323 -0.00634,-0.180462 -0.00482,-0.170356 -0.00197,-0.3406141 0.00164,-0.5109692 0.00167,-0.2153952 0.00457,-0.4307771 0.00487,-0.6461797 0.00332,-0.2655383 0.00909,-0.5310305 0.00846,-0.7966121 0.00225,-0.3057826 0.00666,-0.6115492 0.00887,-0.9173335 0.00408,-0.3473767 0.00367,-0.6948844 0.016503,-1.0420914 0.013342,-0.2398621 0.021552,-0.4839208 0.079076,-0.7186363 0,0 -1.2033874,0.5483963 -1.2033874,0.5483963 z"
       id="path1839"
       style="fill:#000000;fill-opacity:1;fill-rule:nonzero;stroke:none;stroke-width:1" />
    <path
       d="m 2.7773393,13.73195 c -0.0031,0.125215 -0.016951,0.249911 -0.024689,0.374895 -0.00183,0.174233 0.00591,0.348471 0.00973,0.522673 0.018645,0.372518 0.01234,0.745171 0.00483,1.117836 -0.00455,0.350559 -0.00895,0.701037 -0.019129,1.0515 -0.00734,0.252342 -0.018898,0.504578 -0.024645,0.756957 8.27e-5,0.219343 -0.00958,0.438544 -0.010608,0.657855 0.00224,0.191918 -0.0125,0.383438 -0.016342,0.575216 -0.007,0.154326 -0.00648,0.308771 -0.00978,0.463162 -0.00452,0.124713 -0.008,0.249462 -0.01287,0.374166 -0.00413,0.08351 -0.00648,0.167086 -0.01228,0.250515 -0.00215,0.03636 -0.00312,0.07274 -0.00569,0.109071 -5.604e-4,0.0045 -5.719e-4,0.0091 -7.655e-4,0.01372 0,0 1.2041047,-0.577523 1.2041047,-0.577523 v 0 c -2.271e-4,-0.0035 -4.013e-4,-0.007 -7.254e-4,-0.0105 -0.00209,-0.03411 -0.0016,-0.06824 -0.00152,-0.102397 -4.483e-4,-0.08313 0.00495,-0.166104 0.00521,-0.249227 -6.417e-4,-0.122594 0.00138,-0.245186 1.016e-4,-0.36778 0.00272,-0.15454 0.013064,-0.308882 0.011419,-0.463507 0.00488,-0.190072 -0.00232,-0.380188 0.00446,-0.57025 0.00665,-0.219788 0.0054,-0.439742 0.013683,-0.659516 0.0023,-0.248959 -0.00118,-0.497958 0.00422,-0.746908 0.00274,-0.349371 0.0048,-0.698738 0.00967,-1.048092 -2.512e-4,-0.376428 -0.00196,-0.752816 0.016097,-1.128984 0.00407,-0.1767 0.00901,-0.353364 0.019345,-0.52986 0.00511,-0.123288 0.0095,-0.247484 0.037264,-0.368521 0,0 -1.2010986,0.555502 -1.2010986,0.555502 z"
       id="path1841"
       style="fill:#000000;fill-opacity:1;fill-rule:nonzero;stroke:none;stroke-width:1" />
    <path
       d="m 4.0373394,10.858597 c 0.380077,-0.02485 0.7616845,-0.0039 1.141512,0.01524 0.5981688,0.03386 1.1967987,0.05976 1.7952426,0.08908 0.6729975,0.03428 1.345569,0.07531 2.0178569,0.120108 0.6104236,0.03984 1.2213981,0.07219 1.8323771,0.103576 0.580912,0.02604 1.161288,0.06063 1.74172,0.09455 0.429729,0.02081 0.858652,0.05347 1.287857,0.08188 0.242231,0.0192 0.484746,0.03453 0.727177,0.05119 0.149334,0.01251 0.299151,0.01783 0.448537,0.0296 0.111995,0.0087 0.224227,0.01396 0.336106,0.02398 0.45221,0.0472 0.778472,-0.515881 1.098708,-0.736537 0,0 -1.08202,0.749817 -1.08202,0.749817 v 0 c 0.176816,-0.117852 1.585007,-0.713936 1.072518,-0.745804 -0.115068,-0.005 -0.230404,-0.0056 -0.345209,-0.01561 -0.153341,-0.0119 -0.30692,-0.01951 -0.46067,-0.02495 -0.250204,-0.01116 -0.500281,-0.0247 -0.750512,-0.03539 -0.438741,-0.02106 -0.877643,-0.03914 -1.316199,-0.0635 -0.584469,-0.02705 -1.168861,-0.0549 -1.753004,-0.08754 -0.612496,-0.02777 -1.224492,-0.06243 -1.8364663,-0.09888 -0.6754783,-0.03768 -1.3508514,-0.07699 -2.0262783,-0.11546 -0.5887896,-0.03519 -1.1775364,-0.07063 -1.7661406,-0.108462 -0.3622181,-0.02226 -0.7243015,-0.0462 -1.0866922,-0.0658 0,0 -1.0764202,0.738929 -1.0764202,0.738929 z"
       id="path1843"
       style="fill:#000000;fill-opacity:1;fill-rule:nonzero;stroke:none;stroke-width:1" />
    <path
       d="m 4.105357,14.111308 c 0.2721003,-0.06936 0.5445927,-0.137471 0.8170287,-0.205698 0.5499381,-0.138845 1.1049476,-0.258547 1.6601821,-0.376942 0.6516556,-0.135209 1.303934,-0.267814 1.9565104,-0.39905 0.5253769,-0.100559 1.0477261,-0.214214 1.5715858,-0.321326 0.474874,-0.09876 0.95189,-0.187353 1.430206,-0.269988 0.378243,-0.06808 0.757131,-0.13277 1.136173,-0.196811 0.230933,-0.0367 0.461201,-0.07671 0.691515,-0.116623 0.05348,-2.34e-4 0.111954,-0.03079 0.166048,-0.02058 0.367576,0.250911 0.0047,0.0064 1.070992,-0.756165 0,0 -1.104295,0.723289 -1.104295,0.723289 v 0 c 1.097617,-0.756617 1.008106,-1.172549 1.097015,-0.747832 -0.03469,0.04394 -0.12984,0.02946 -0.175511,0.05144 -0.240394,0.04911 -0.480457,0.09992 -0.72252,0.141409 -0.381366,0.06644 -0.763161,0.13079 -1.143825,0.200722 -0.482616,0.09158 -0.965464,0.182255 -1.447039,0.278529 -0.53279,0.108465 -1.063431,0.225465 -1.5951734,0.338331 -0.6518152,0.133321 -1.3044567,0.263071 -1.9560101,0.397569 -0.5405039,0.112266 -1.0818535,0.221346 -1.6199643,0.343426 -0.2563233,0.05978 -0.5117349,0.124402 -0.7705474,0.173935 0,0 -1.0623708,0.762352 -1.0623708,0.762352 z"
       id="path1847"
       style="fill:#000000;fill-opacity:1;fill-rule:nonzero;stroke:none;stroke-width:1" />
  </g>
</svg>
