<?xml version="1.0" encoding="UTF-8" standalone="no"?>
<svg
   xmlns:dc="http://purl.org/dc/elements/1.1/"
   xmlns:cc="http://creativecommons.org/ns#"
   xmlns:rdf="http://www.w3.org/1999/02/22-rdf-syntax-ns#"
   xmlns:svg="http://www.w3.org/2000/svg"
   xmlns="http://www.w3.org/2000/svg"
   xmlns:sodipodi="http://sodipodi.sourceforge.net/DTD/sodipodi-0.dtd"
   xmlns:inkscape="http://www.inkscape.org/namespaces/inkscape"
   inkscape:version="1.0 (6e3e5246a0, 2020-05-07)"
   sodipodi:docname="transfer.svg"
   id="svg62"
   version="1.1"
   width="24"
   viewBox="0 0 24 24"
   height="24">
  <metadata
     id="metadata68">
    <rdf:RDF>
      <cc:Work
         rdf:about="">
        <dc:format>image/svg+xml</dc:format>
        <dc:type
           rdf:resource="http://purl.org/dc/dcmitype/StillImage" />
        <dc:title></dc:title>
      </cc:Work>
    </rdf:RDF>
  </metadata>
  <defs
     id="defs66" />
  <sodipodi:namedview
     inkscape:current-layer="layer5"
     inkscape:window-maximized="1"
     inkscape:window-y="27"
     inkscape:window-x="53"
     inkscape:cy="11.240386"
     inkscape:cx="9.6369184"
     inkscape:zoom="19.51905"
     showgrid="false"
     id="namedview64"
     inkscape:window-height="713"
     inkscape:window-width="1313"
     inkscape:pageshadow="2"
     inkscape:pageopacity="0"
     guidetolerance="10"
     gridtolerance="10"
     objecttolerance="10"
     borderopacity="1"
     bordercolor="#666666"
     pagecolor="#ffffff" />
  <path
     id="path58"
     fill="none"
     d="M0 0h24v24H0z" />
  <g
     inkscape:label="Layer 5"
     id="layer5"
     inkscape:groupmode="layer">
    <path
       d="m 17.492346,7.7767817 c 0.0029,0.2060843 -0.03106,0.410353 -0.05998,0.613752 -0.02097,0.2047116 -0.07031,0.4044023 -0.108003,0.6061536 -0.02536,0.1407713 -0.05162,0.2814069 -0.07907,0.4217886 -0.01325,0.075958 -0.03379,0.1505077 -0.04415,0.226958 -0.01283,0.05833 2.32e-4,0.070984 0.03644,0.126966 0,0 1.212551,-0.7584326 1.212551,-0.7584326 v 0 c 0.03639,0.076862 0.02195,0.042797 0.0303,0.00279 0.0113,-0.071662 0.02052,-0.1436144 0.0323,-0.2151992 0.02426,-0.1396633 0.05056,-0.2789635 0.07292,-0.4189557 0.0362,-0.2008435 0.06417,-0.4029 0.09381,-0.604791 0.03225,-0.2133957 0.0541,-0.4281102 0.07624,-0.6427616 0,0 -1.263362,0.6417277 -1.263362,0.6417277 z"
       id="path1406"
       style="fill:#000000;fill-opacity:1;fill-rule:nonzero;stroke:none" />
    <path
       d="m 17.514068,7.3254515 c 0.222743,0.1602798 0.450076,0.3122593 0.683946,0.4558356 0.285905,0.1707127 0.547206,0.3778695 0.808755,0.5829042 0.269797,0.2133965 0.534977,0.4327219 0.797484,0.655018 0.266931,0.2313994 0.51311,0.4852739 0.76411,0.7335148 0.228977,0.2284054 0.472574,0.4411049 0.712331,0.6579039 0.12711,0.108129 0.243365,0.230152 0.378107,0.329076 0.04674,0.0313 0.09645,0.05785 0.149713,0.07571 0.0087,0.0021 0.01861,0.0094 0.01072,-0.0035 -0.08224,-0.158308 -0.0424,-0.05799 8.9e-4,0.0011 0.0134,0.01904 0.02792,0.03683 0.04529,0.05234 0.37813,-0.278207 0.75626,-0.556414 1.13439,-0.834622 0,0 -1.123612,0.878468 -1.123612,0.878468 v 0 c 0.391546,-0.283141 0.783093,-0.566282 1.174639,-0.849424 -0.0016,0.0092 0.0099,0.03346 -0.0016,0.01887 0.04696,0.0915 0.01951,0.032 -0.02218,-0.04026 -0.0085,-0.01168 -0.01959,-0.0177 -0.03335,-0.02239 -0.04709,-0.018194 -0.09849,-0.020285 -0.14425,-0.04335 -0.146755,-0.074893 -0.2679,-0.192037 -0.397496,-0.2916409 C 22.203834,9.4763147 21.964742,9.2617314 21.736465,9.0348947 21.479678,8.7879561 21.226634,8.5371129 20.964532,8.2957394 20.703201,8.0698258 20.433365,7.8542329 20.168029,7.6330791 19.902398,7.4253361 19.63662,7.2163329 19.348865,7.039542 19.126038,6.8980625 18.90402,6.7527765 18.709738,6.5727996 c 0,0 -1.19567,0.7526519 -1.19567,0.7526519 z"
       id="path1408"
       style="fill:#000000;fill-opacity:1;fill-rule:nonzero;stroke:none" />
    <path
       d="m 21.842572,10.651599 c -0.197596,0.191997 -0.391757,0.387465 -0.587273,0.581567 -0.294741,0.285703 -0.617449,0.540182 -0.928366,0.807689 -0.31136,0.258722 -0.577483,0.562052 -0.838388,0.869793 -0.218084,0.263723 -0.44062,0.523594 -0.665568,0.781462 -0.156483,0.178624 -0.31962,0.35132 -0.48166,0.524894 -0.05283,0.05659 -0.106483,0.112408 -0.159997,0.168353 -0.05354,0.05448 0.06345,0.137758 0.109635,0.171647 0,0 1.112876,-0.899306 1.112876,-0.899306 v 0 c 0.02381,0.05244 0.06363,0.175626 0.09602,0.172644 0.04285,-0.0526 0.08732,-0.103868 0.131998,-0.154914 0.153987,-0.173367 0.312394,-0.342821 0.461568,-0.520437 0.217951,-0.254812 0.426642,-0.517221 0.643672,-0.772817 0.261341,-0.301935 0.536185,-0.591278 0.842216,-0.84888 0.316204,-0.270308 0.643248,-0.528712 0.939166,-0.821846 0.208078,-0.201354 0.411913,-0.407711 0.633008,-0.595022 0,0 -1.308904,0.535173 -1.308904,0.535173 z"
       id="path1410"
       style="fill:#000000;fill-opacity:1;fill-rule:nonzero;stroke:none" />
    <path
       d="m 17.073705,12.778478 c -0.01261,0.273825 -0.04199,0.546767 -0.06708,0.819705 -0.02747,0.276205 -0.05829,0.552079 -0.08841,0.828011 -0.01394,0.137648 -0.02955,0.275112 -0.04412,0.412688 -0.0041,0.04818 -0.007,0.09648 -0.01629,0.143992 -0.0057,0.0176 -0.01438,0.03432 -0.02343,0.05046 -0.0045,0.0067 -0.0056,0.0083 -0.01024,0.0016 -0.03164,-0.0688 0.03465,0.07678 0.09603,0.136748 0.01052,0.01028 0.03096,0.0017 0.04378,-0.0055 0.422159,-0.237707 0.838801,-0.485082 1.258201,-0.727624 0,0 -1.318273,0.513241 -1.318273,0.513241 v 0 c 0.390443,-0.223935 0.780887,-0.447869 1.171331,-0.671804 -0.006,0.0081 -0.02119,0.01473 -0.01789,0.02421 0.01751,0.05042 0.105534,0.210392 0.07464,0.141649 -0.0026,-0.0074 -0.0036,-0.01369 -0.0015,-0.02154 0.004,-0.02498 0.0077,-0.05001 0.0073,-0.07541 0.0019,-0.04855 0.0034,-0.0971 0.0054,-0.14565 0.0041,-0.1325 0.01011,-0.264994 0.02084,-0.397134 0.02147,-0.273361 0.04335,-0.546689 0.07142,-0.819473 0.02705,-0.278629 0.05186,-0.558627 0.108802,-0.833076 0,0 -1.270455,0.624928 -1.270455,0.624928 z"
       id="path1412"
       style="fill:#000000;fill-opacity:1;fill-rule:nonzero;stroke:none" />
    <path
       d="m 5.6096034,12.98507 c 0.093623,-0.0058 0.187534,-0.0049 0.2812467,-0.002 0.04256,0.0051 0.015585,-0.02868 0.00391,-0.0476 -0.037879,-0.07213 -0.1368935,-0.253037 0.035761,0.0565 0.00476,0.0035 0.01021,0.0058 0.015361,0.0085 0.3217503,0.354414 1.5794095,-0.615964 1.1471731,-0.834823 -1.1770242,0.791139 -1.6086056,0.846626 -0.8661831,0.815686 0.474136,-0.01097 0.9484749,-0.01222 1.4227214,-0.01595 0.5641427,-0.0041 1.1282215,0.0056 1.6922788,0.01365 0.5288877,0.0038 1.0577637,0.0086 1.5866417,0.01406 0.499567,0.01242 0.999259,0.01198 1.498917,0.01575 0.45103,0.0054 0.902054,0.0065 1.353013,0.01664 0.349067,0.0075 0.698196,0.01215 1.047294,0.01852 0.272034,1.36e-4 0.544013,0.0061 0.815989,0.01101 0.171423,0.0015 0.342801,0.0056 0.514202,0.0084 0.06508,0.0013 0.130167,0.002 0.195174,0.0055 0.01609,0.0016 0.03224,4.82e-4 0.04837,5.6e-4 0.03265,-0.001 0.0653,-0.0011 0.09796,-0.0011 0.05298,-0.0024 0.106041,-0.0018 0.159023,1.29e-4 0.01964,0.0087 0.03652,-0.0058 0.0503,-0.0048 0.02195,0.0055 0.0441,0.009 0.0665,0.01212 0.0011,7.48e-4 0.0022,0.0015 0.0034,0.0022 0.379473,-0.277181 0.758945,-0.554362 1.138418,-0.831543 0,0 -1.184138,0.786123 -1.184138,0.786123 v 0 c 0.400312,-0.267812 0.800625,-0.535624 1.200937,-0.803436 -5.06e-4,8.36e-4 -10e-4,0.0017 -0.0015,0.0025 -0.018,0.0035 -0.03664,0.007 -0.05472,0.0072 -0.02256,-0.0047 -0.03815,-0.01708 -0.06401,-0.0097 -0.0531,0.0018 -0.106284,0.0027 -0.159374,1.28e-4 -0.0317,-8e-6 -0.06338,-2.7e-5 -0.09506,-0.0011 -0.01672,8.6e-5 -0.03344,-10e-4 -0.05012,6.18e-4 -0.0699,0.0034 -0.139871,0.0043 -0.209839,0.0055 -0.176855,0.0024 -0.353696,0.0056 -0.530583,0.0047 -0.275279,6.14e-4 -0.550549,-8.64e-4 -0.825809,-0.0043 -0.353973,0.0025 -0.707894,0.0012 -1.061809,-0.0065 -0.457457,-0.003 -0.914936,-0.0019 -1.372399,-0.0038 -0.499566,-0.0033 -0.999112,-0.0095 -1.498655,-0.01519 -0.529625,-0.0068 -1.059323,-0.0045 -1.588943,-0.01238 -0.5666368,-0.0052 -1.1332258,-0.0081 -1.6998278,-0.01007 -0.4579839,-0.0039 -0.9161336,-0.005 -1.3739338,-0.0188 -0.6622165,-0.03805 -0.4582764,0.06098 -1.4364003,0.804779 0.481093,0.07472 0.9791256,-1.257158 1.1912715,-0.820834 -0.00159,0.0025 -0.0036,0.0053 -0.00393,0.0084 0.1638307,0.310707 0.067294,0.122691 0.033043,0.04927 -0.020674,-0.03301 -0.044781,-0.07057 -0.088988,-0.06517 -0.094985,0.0046 -0.1901992,0.0083 -0.2852762,0.0046 0,0 -1.1474062,0.83596 -1.1474062,0.83596 z"
       id="path1428"
       style="fill:#000000;fill-opacity:1;fill-rule:nonzero;stroke:none" />
    <circle
       r="0.047768719"
       cy="13.824832"
       cx="17.268883"
       style="fill:#000000;stroke:#000000"
       id="path1430" />
    <path
       d="M 9.1991617,9.258724 C 9.5154638,9.223575 9.834455,9.226927 10.152208,9.229183 c 0.467105,0.00495 0.934204,0.010891 1.401308,0.016439 0.505093,0.00751 1.010179,0.014638 1.515188,0.026611 0.482567,0.009 0.965138,0.016118 1.447594,0.030313 0.33107,0.00714 0.66195,0.020893 0.992988,0.029059 0.262719,0.006 0.525458,0.010897 0.788164,0.017423 0.199233,0.00349 0.398443,0.00675 0.597447,0.017311 0.56288,0.036397 -0.01562,0.088885 1.229497,-0.8380935 -0.0029,3.261e-4 -0.0058,6.522e-4 -0.0086,9.782e-4 0,0 -1.1448,0.8580174 -1.1448,0.8580174 v 0 c 0.0037,-6.615e-4 0.0074,-0.00132 0.01115,-0.00198 1.418322,-1.0321791 1.625237,-0.859523 1.055113,-0.8463227 -0.205374,0.0042 -0.410698,0.0014 -0.616057,-0.0028 -0.264916,-0.00431 -0.529812,-0.00988 -0.794747,-0.01301 -0.337576,-0.00417 -0.675086,-0.011741 -1.012669,-0.015183 -0.486781,-0.00175 -0.973457,-0.00711 -1.460076,-0.020336 -0.506178,-0.010246 -1.012347,-0.020377 -1.518612,-0.025359 -0.459749,-0.00792 -0.919489,-0.018242 -1.379078,-0.032865 -0.306171,-0.00556 -0.612329,-0.00599 -0.918514,-0.00936 0,0 -1.1382943,0.8387091 -1.1382943,0.8387091 z"
       id="path1436"
       style="fill:#000000;fill-opacity:1;fill-rule:nonzero;stroke:none" />
    <path
       d="m 5.8990063,9.6227792 c 0.030437,0.2260128 0.03292,0.4542758 0.0442,0.6817058 0.01783,0.372409 0.00999,0.745385 0.028431,1.11771 0.014603,0.317416 0.033515,0.634621 0.04803,0.952038 0.00991,0.195921 0.00417,0.39192 -0.00126,0.587839 -0.00269,0.06677 -0.00495,0.133649 -0.011849,0.200152 -0.00374,0.0298 9.573e-4,-0.0069 -0.00162,0.01164 0,0 1.2778966,-0.648265 1.2778966,-0.648265 v 0 c -0.00199,-0.01719 0.00154,0.01611 -0.00126,-0.01092 -0.00538,-0.06366 -0.00661,-0.127569 -0.00867,-0.19139 -0.00446,-0.195054 -0.011681,-0.390176 -0.023772,-0.584889 -0.023624,-0.313486 -0.053735,-0.626616 -0.063571,-0.940981 -0.01191,-0.372106 -0.026681,-0.744304 -0.023466,-1.1166747 0.00321,-0.2356912 -0.00397,-0.4712577 5.913e-4,-0.706836 0,0 -1.2636814,0.6488679 -1.2636814,0.6488679 z"
       id="path1438"
       style="fill:#000000;fill-opacity:1;fill-rule:nonzero;stroke:none" />
    <path
       d="M 5.2685226,9.6640388 C 5.1363612,9.9140988 4.9494468,10.127788 4.7617029,10.336932 4.3655846,10.758155 3.911205,11.118134 3.4775735,11.49903 3.043207,11.868588 2.624882,12.25581 2.2126854,12.649726 1.9852045,12.857455 1.772127,13.078895 1.5741947,13.31476 c -0.084949,0.100445 -0.1780744,0.193229 -0.2522791,0.302172 -0.031113,0.02458 -0.047282,0.109065 -0.091408,0.114714 0.083548,0.143134 0.031447,0.107916 0.1141129,0.150239 0,0 1.1376583,-0.862157 1.1376583,-0.862157 v 0 c 0.00472,0.07463 -0.00235,0.01872 0.067148,0.155149 0.00856,-0.04626 0.049624,-0.08047 0.073083,-0.119323 0.077792,-0.09618 0.1596363,-0.189055 0.2360613,-0.286366 0.185523,-0.223514 0.3899938,-0.429215 0.597695,-0.632096 0.3987258,-0.389998 0.8103412,-0.76609 1.2328607,-1.13024 C 5.1368803,10.619231 5.6032614,10.24941 6.0059405,9.8133629 6.2097651,9.5843569 6.4064644,9.3487494 6.566011,9.0859428 c 0,0 -1.2974884,0.578096 -1.2974884,0.578096 z"
       id="path1440"
       style="fill:#000000;fill-opacity:1;fill-rule:nonzero;stroke:none" />
    <path
       d="m 1.1302999,14.085307 c 0.2542673,0.254332 0.5128735,0.504432 0.7713683,0.754582 0.4145262,0.404575 0.8484368,0.788466 1.2747848,1.180411 0.3565918,0.32657 0.7243647,0.64047 1.0874542,0.959689 0.3298229,0.278459 0.6301903,0.588553 0.9213768,0.906446 0.1982099,0.21231 0.3788891,0.439844 0.5691641,0.659054 0.081993,0.08762 0.1606465,0.178215 0.2394504,0.268677 0.03696,0.04421 0.080345,0.08212 0.1226141,0.121025 0.018804,0.01747 0.037477,0.03509 0.055397,0.05347 0.00198,0.0017 0.00322,0.004 0.00483,0.006 0,0 1.2113158,-0.767972 1.2113158,-0.767972 v 0 c -3.498e-4,6.8e-5 9.367e-4,0.0036 -0.00234,4.54e-4 -0.021003,-0.01316 -0.040634,-0.02835 -0.059935,-0.04388 -0.040872,-0.03411 -0.078526,-0.07178 -0.11802,-0.107441 C 7.1218769,17.990149 7.0333398,17.907155 6.9477693,17.821124 6.7434251,17.611101 6.5443492,17.396101 6.3442486,17.18205 6.045251,16.864835 5.7399438,16.553642 5.4131479,16.264681 5.0452311,15.948166 4.660892,15.65098 4.3045441,15.320987 3.8729046,14.939001 3.4430932,14.554202 3.0381176,14.143701 2.7940869,13.889918 2.5485114,13.63509 2.3411499,13.349642 c 0,0 -1.21085,0.735665 -1.21085,0.735665 z"
       id="path1450"
       style="fill:#000000;fill-opacity:1;fill-rule:nonzero;stroke:none" />
    <path
       d="m 5.9904337,17.068982 c 0.2535227,0.03873 0.5102532,0.04904 0.7662623,0.0557 0.5147953,0.01128 1.0297209,0.01407 1.5445471,0.02353 0.587422,0.01366 1.174836,0.0262 1.7621369,0.04448 0.546449,0.0174 1.093114,0.02641 1.639715,0.03748 0.501106,0.01379 1.002257,0.02527 1.503407,0.03714 0.356597,0.01132 0.713099,0.02536 1.069697,0.03675 0.263194,0.0069 0.526318,0.0157 0.789439,0.02492 0.172657,0.0068 0.345192,0.01613 0.51777,0.02459 0.104985,0.006 0.210121,0.0076 0.315216,0.01034 0.07443,0.0028 0.148798,0.0075 0.223303,0.006 -3.6e-4,-0.0023 0.07462,0.0028 0.07424,0.0013 -0.0018,-0.0073 -0.0076,-0.01305 -0.01139,-0.01958 -0.06906,-0.117866 -0.01206,0.02311 0.05755,0.02754 0.05659,-8.26e-4 0.113221,-5.87e-4 0.169766,-0.0032 0.07611,-0.0065 0.15222,-0.0015 0.228221,0.0036 0.04827,0.0038 0.09664,0.0064 0.144871,0.0106 -0.01907,-0.02135 -0.109136,-0.238299 -0.0769,-0.121944 0,0 1.309683,-0.579334 1.309683,-0.579334 v 0 c 0.05784,0.08827 -0.0326,-0.122956 -0.07705,-0.141331 -0.04887,0.0056 -0.09836,0.0066 -0.147455,0.0044 -0.07702,-0.0038 -0.153605,-0.01135 -0.230506,-0.0156 -0.05519,-4.26e-4 -0.110223,0.0041 -0.165399,0.0051 -0.03055,0.002 -0.01928,0.01135 -0.0049,0.03788 0.03424,0.06336 0.01338,0.02236 0.0015,0.0031 -0.0062,-0.01007 -0.01319,-0.01966 -0.01978,-0.0295 -0.03157,-0.03679 -0.05524,-0.01968 -0.102371,-0.02082 -0.0752,5.28e-4 -0.1504,0.0076 -0.225656,0.0036 -0.107328,-0.004 -0.21458,-0.0061 -0.322004,-0.0053 -0.176747,-0.0029 -0.353282,-0.01135 -0.529972,-0.0163 -0.268759,-0.0064 -0.53762,-0.0089 -0.80642,-0.01319 -0.363543,-0.0075 -0.726912,-0.02296 -1.090592,-0.02314 -0.507656,-0.0056 -1.015276,-0.01567 -1.522924,-0.02234 -0.543843,-0.01236 -1.087518,-0.03138 -1.631373,-0.04312 -0.590706,-0.0099 -1.181453,-0.01804 -1.7719553,-0.03737 -0.5017858,-0.01483 -1.0038041,-0.02469 -1.5052375,-0.04894 -0.2369853,-0.01387 -0.4768352,-0.01886 -0.7099684,-0.06706 0,0 -1.1653951,0.81012 -1.1653951,0.81012 z"
       id="path1452"
       style="fill:#000000;fill-opacity:1;fill-rule:nonzero;stroke:none" />
  </g>
</svg>
